<?xml version="1.0" encoding="UTF-8"?>
<svg version="1.1" xmlns="http://www.w3.org/2000/svg" width="239" height="211">
<path d="M0 0 C78.87 0 157.74 0 239 0 C239 69.63 239 139.26 239 211 C160.13 211 81.26 211 0 211 C0 141.37 0 71.74 0 0 Z " fill="#377FD8" transform="translate(0,0)"/>
<path d="M0 0 C78.87 0 157.74 0 239 0 C239 69.63 239 139.26 239 211 C160.13 211 81.26 211 0 211 C0 141.37 0 71.74 0 0 Z M23.33034039 9.76963139 C19.51396502 14.85333168 18.8736926 18.71245821 18.85282898 24.91264343 C18.84915229 25.62010029 18.8454756 26.32755715 18.8416875 27.0564521 C18.83065215 29.43306848 18.82680707 31.80964113 18.82299805 34.1862793 C18.81673323 35.88800699 18.81008642 37.58973331 18.80308533 39.29145813 C18.78204306 44.88570198 18.77168218 50.4799461 18.76171875 56.07421875 C18.75767113 58.00041023 18.75355421 59.92660156 18.74936867 61.85279274 C18.73031594 70.90301108 18.71608557 79.95322127 18.7077567 89.00345582 C18.69798623 99.44758503 18.67167199 109.89150219 18.63125581 120.33555669 C18.60108441 128.40956256 18.58628681 136.4835077 18.58297569 144.55756885 C18.58062619 149.37906316 18.57167887 154.20033096 18.54651451 159.02176476 C18.52321117 163.56000932 18.51900963 168.09787861 18.52927589 172.63616753 C18.52977083 174.29859415 18.52346282 175.96103938 18.50971985 177.62340927 C18.33324491 190.82996559 18.33324491 190.82996559 24.8515625 202.05859375 C25.43679687 202.51363281 26.02203125 202.96867188 26.625 203.4375 C27.21539062 203.91058594 27.80578125 204.38367188 28.4140625 204.87109375 C31.92811862 207.37247852 34.58916092 207.13053547 38.87504578 207.14044189 C39.59052088 207.14341302 40.30599599 207.14638414 41.04315215 207.1494453 C43.45285205 207.15815214 45.86250239 207.15964223 48.2722168 207.16113281 C49.99512336 207.16575968 51.71802889 207.17078416 53.44093323 207.17617798 C58.13121747 207.18931895 62.82148739 207.19575055 67.51178718 207.20018864 C70.44159943 207.20311738 73.37140775 207.20722187 76.30121803 207.21169281 C85.46623647 207.22537387 94.63124594 207.23503684 103.79627389 207.2388947 C114.378485 207.24337335 124.96056682 207.26090976 135.54273862 207.2898953 C143.71946881 207.31151486 151.89616263 207.32159917 160.0729211 207.32293582 C164.95751047 207.3239839 169.8419784 207.329892 174.7265377 207.34775543 C179.32381599 207.36424022 183.92088162 207.36638962 188.51817894 207.35761642 C190.20359364 207.3568462 191.88901979 207.3611869 193.57440567 207.37107468 C195.879868 207.38380449 198.18457838 207.37791219 200.49003601 207.36749268 C202.42328751 207.36969252 202.42328751 207.36969252 204.3955946 207.3719368 C210.99462496 206.69098614 215.74176594 204.20450829 220 199 C222.53294049 193.97019025 223.37671111 190.32258914 223.38768005 184.6063385 C223.39306559 183.89546394 223.39845113 183.18458938 223.40399987 182.45217317 C223.41822255 180.08780856 223.41119013 177.72400833 223.40405273 175.35961914 C223.40975929 173.65729831 223.41672466 171.95498129 223.42485046 170.25267029 C223.44276528 165.64106911 223.44161667 161.02965839 223.43590808 156.41803288 C223.43281386 152.56367771 223.43891126 148.709359 223.44494683 144.85500902 C223.45898488 135.7601606 223.45743669 126.66540614 223.44604492 117.57055664 C223.43456364 108.19727946 223.44864119 98.82428839 223.4754414 89.45104891 C223.49761342 81.39392875 223.50423241 73.33689831 223.49836498 65.27974981 C223.4949979 60.47175489 223.49739403 55.66394338 223.51461601 50.8559742 C223.53010708 46.33405585 223.52610571 41.81256071 223.50731087 37.29065895 C223.503631 35.63469268 223.50671589 33.97869491 223.51719666 32.32275772 C223.71346108 20.55911759 223.71346108 20.55911759 219 10 C212.8408873 4.30699125 206.10467685 2.75724451 197.77165222 2.72584534 C197.078523 2.72060866 196.38539379 2.71537198 195.67126065 2.70997661 C193.36696237 2.69506934 191.06288796 2.69427353 188.75854492 2.69360352 C187.09887827 2.68597582 185.43921514 2.67754728 183.77955627 2.66838074 C179.28356807 2.6464902 174.78764786 2.63764429 170.29161239 2.63255429 C167.47916791 2.62890456 164.66674108 2.62266133 161.85430336 2.6155529 C152.03266242 2.59107824 142.21107416 2.5780106 132.3894043 2.57446289 C123.25016 2.57082819 114.11125163 2.54093242 104.97210997 2.49905831 C97.11199335 2.46431353 89.25198785 2.44891373 81.39179498 2.44821686 C76.70327277 2.44742553 72.01509312 2.43875342 67.32665062 2.41021919 C62.91466255 2.38396626 58.50329935 2.38187334 54.09126854 2.39787483 C52.47805412 2.39968354 50.86480316 2.39305108 49.25166702 2.37705612 C39.73878473 2.28853046 30.34006877 2.34019173 23.33034039 9.76963139 Z " fill="#FDFDFE" transform="translate(0,0)"/>
<path d="M0 0 C4.34494681 3.06702128 4.34494681 3.06702128 5.1875 6.25 C5.69549658 10.14464042 5.30723491 12.005925 3.5625 15.5625 C1.1875 18.25 1.1875 18.25 -2.0625 19.125 C-2.97 19.16625 -3.8775 19.2075 -4.8125 19.25 C-4.4825 18.21875 -4.1525 17.1875 -3.8125 16.125 C-2.6616246 12.10101722 -1.87612022 8.12275956 -3.8125 4.25 C-7.83104522 3.66396216 -11.31076336 3.46260295 -14.98046875 5.38671875 C-21.74430156 10.78993529 -26.15864698 18.26234431 -27.28515625 26.85546875 C-27.45038639 33.55806528 -27.05316778 39.32740027 -23.8125 45.25 C-21.43792777 47.55473187 -19.96730796 48.22270454 -16.6640625 48.30078125 C-12.07467618 47.95772081 -8.36537405 47.32275594 -4.8125 44.25 C-0.71864672 38.98800534 2.34680932 33.25915336 5.1875 27.25 C9.32739637 29.01165803 9.32739637 29.01165803 11.1875 31.25 C12.03250959 35.24652333 12.1746784 39.17273187 12.1875 43.25 C15.19227739 42.91613585 16.97009018 42.40609875 19.4453125 40.62890625 C22.35393291 36.65726986 21.99317535 32.25308696 22.3046875 27.46484375 C23.1875 24.25 23.1875 24.25 26.2578125 22.31640625 C27.22460938 21.96449219 28.19140625 21.61257812 29.1875 21.25 C28.1975 20.26 28.1975 20.26 27.1875 19.25 C28.5075 19.25 29.8275 19.25 31.1875 19.25 C31.36578374 24.24194466 31.06242384 28.23254064 29.69921875 33.0859375 C28.75509129 37.07865972 28.50543009 41.16710837 28.1875 45.25 C34.38893854 42.08176088 36.01018501 37.63890968 38.1875 31.25 C39.07727059 27.26896457 39.71387689 23.30053798 40.1875 19.25 C42.4975 18.92 44.8075 18.59 47.1875 18.25 C48.1775 22.21 48.1775 22.21 49.1875 26.25 C50.3321875 24.826875 50.3321875 24.826875 51.5 23.375 C53.34284046 21.08390105 54.65587417 19.93775056 57.1875 18.25 C60.25 18 60.25 18 63.1875 18.25 C65.1875 20.25 65.1875 20.25 65.4375 24 C65.31026301 30.47848335 64.20512673 36.8625751 63.1875 43.25 C68.80304054 40.28907862 70.26222501 37.1247877 72.1875 31.25 C72.75191674 28.64239468 73.2244842 26.05561744 73.59765625 23.4140625 C74.30954634 20.80222734 74.95941399 19.78832219 77.1875 18.25 C79.875 18.0625 79.875 18.0625 82.1875 18.25 C82.24808594 19.56355469 82.30867188 20.87710938 82.37109375 22.23046875 C82.45553256 23.96615541 82.54017888 25.70183198 82.625 27.4375 C82.66431641 28.30181641 82.70363281 29.16613281 82.74414062 30.05664062 C82.95097016 34.20914122 83.18853531 38.19537862 84.1875 42.25 C87.62720626 41.10343125 88.0657229 40.40481722 89.9375 37.4375 C90.38609375 36.75042969 90.8346875 36.06335938 91.296875 35.35546875 C92.37644214 32.80333415 92.18352699 31.7954023 91.1875 29.25 C90.671875 28.46625 90.15625 27.6825 89.625 26.875 C87.86834923 23.66720294 87.73589622 21.86283023 88.1875 18.25 C89.25 15.4375 89.25 15.4375 91.1875 13.25 C96.8880988 11.62125749 96.8880988 11.62125749 100.125 13.1875 C101.80229795 16.44343131 101.60833655 19.70393467 101.1875 23.25 C100.1875 26.25 100.1875 26.25 99.1875 28.25 C104.40316916 26.34427473 106.8788437 24.85848556 110.1875 20.25 C113.89763399 17.77657734 115.79810262 17.86496514 120.1875 18.25 C122.625 19.75 122.625 19.75 124.1875 21.25 C124.579375 20.755 124.97125 20.26 125.375 19.75 C127.73841715 17.79406857 129.20185003 18.00792027 132.1875 18.25 C131.80074963 22.646741 131.35629405 26.92227395 130.1875 31.1875 C128.9352725 35.81326576 128.55860413 40.48424174 128.1875 45.25 C132.36939449 43.47010276 133.38118173 41.40453202 135.1875 37.25 C135.8475 37.25 136.5075 37.25 137.1875 37.25 C137.53467213 40.98210035 137.4797789 42.79070458 135.4375 46 C131.9875 49.45 131.9875 49.45 129.1875 50.25 C122.92032023 50.03009896 122.92032023 50.03009896 120.25 47.1875 C119.899375 46.548125 119.54875 45.90875 119.1875 45.25 C118.341875 46.095625 117.49625 46.94125 116.625 47.8125 C113.87769471 50.10409114 113.32491835 50.24767088 109.5 50.3125 C105.91139377 49.16143762 104.91858105 48.51981976 103.1875 45.25 C101.40867711 39.91353134 101.74026837 35.29741524 104.1875 30.25 C101.39030733 30.63392841 99.62676652 30.92275204 97.1875 32.25 C95.7275793 34.33874196 94.68768897 36.50208983 93.56640625 38.7890625 C91.24011141 42.94080683 88.00533854 46.41554412 84.1875 49.25 C81.4375 49.96875 81.4375 49.96875 79.1875 50.25 C76.22697516 46.88576723 75.26460178 43.55840713 74.1875 39.25 C73.671875 39.95125 73.15625 40.6525 72.625 41.375 C69.77079053 44.74150347 66.98061971 47.93152726 63.1875 50.25 C59.875 50.3125 59.875 50.3125 57.1875 49.25 C53.66020016 43.95905025 54.58511659 36.75005536 55.640625 30.6171875 C56.09372116 28.81127564 56.63016336 27.02651052 57.1875 25.25 C52.78816243 28.2962767 50.84392558 31.25483833 48.5625 36.0625 C47.70785156 37.83560547 47.70785156 37.83560547 46.8359375 39.64453125 C45.22905266 43.15911586 43.69149783 46.69053848 42.1875 50.25 C39.8125 50 39.8125 50 37.1875 49.25 C35.875 47.1875 35.875 47.1875 35.1875 45.25 C34.671875 45.889375 34.15625 46.52875 33.625 47.1875 C30.39802015 49.91802141 28.39584731 50.32383065 24.1875 50.25 C21.25 47.8125 21.25 47.8125 19.1875 45.25 C18.341875 46.095625 17.49625 46.94125 16.625 47.8125 C13.95115591 50.01968262 13.29976543 50.24409129 9.625 50.4375 C5.14002545 48.88814516 3.87885028 47.08313525 1.1875 43.25 C0.65962891 43.93835938 0.65962891 43.93835938 0.12109375 44.640625 C-4.05234567 49.82745833 -7.87444228 53.6742288 -14.64453125 54.6640625 C-20.68492445 54.9527857 -25.24525584 54.42575925 -30.19140625 50.81640625 C-35.02370205 46.14712765 -36.92420983 40.42479418 -37.10571289 33.80517578 C-37.21692784 21.59405619 -34.55087987 14.50393159 -26.12890625 5.37890625 C-19.32987288 -0.86978378 -8.65934287 -4.54436589 0 0 Z " fill="#F5F9F9" transform="translate(70.8125,78.75)"/>
<path d="M0 0 C2.31 0 4.62 0 7 0 C7 5.28 7 10.56 7 16 C8.546875 15.9175 10.09375 15.835 11.6875 15.75 C15.56101089 15.72802263 16.75391303 15.84250434 20.125 18 C21.053125 18.99 21.053125 18.99 22 20 C22.66 19.01 23.32 18.02 24 17 C27.125 16.8125 27.125 16.8125 30 17 C30 18.65 30 20.3 30 22 C29.505 20.02 29.505 20.02 29 18 C28.34 18.99 27.68 19.98 27 21 C23.875 22.1875 23.875 22.1875 21 23 C21.02320313 23.58007812 21.04640625 24.16015625 21.0703125 24.7578125 C21.21912861 31.19942407 20.80372226 35.70878523 16.6875 40.9375 C15.800625 41.618125 14.91375 42.29875 14 43 C12.35 42.67 10.7 42.34 9 42 C8.505 36.06 8.505 36.06 8 30 C7.34 30 6.68 30 6 30 C4.375 28.5 4.375 28.5 3 27 C2.41992188 28.21236328 2.41992188 28.21236328 1.828125 29.44921875 C1.30734375 30.51785156 0.7865625 31.58648437 0.25 32.6875 C-0.26046875 33.74324219 -0.7709375 34.79898438 -1.296875 35.88671875 C-4.75676968 42.21134274 -8.28242299 45.56552926 -15 48 C-18.91608423 48.62657348 -20.59050286 48.19270454 -24.1875 46.5 C-28.74304633 42.45062548 -29.68513465 38.61433652 -30.38671875 32.7890625 C-30.87805484 22.89682921 -28.47734037 15.37651639 -22.11328125 7.734375 C-18.35480178 3.85770436 -16.00793427 1.85729742 -10.5 1.75 C-9.30890625 1.71132812 -9.30890625 1.71132812 -8.09375 1.671875 C-7.4028125 1.78015625 -6.711875 1.8884375 -6 2 C-3.81959605 5.27060593 -3.77916461 5.76374489 -4.25 9.4375 C-4.33765625 10.19933594 -4.4253125 10.96117188 -4.515625 11.74609375 C-5.02028389 14.09438552 -5.83721022 15.9079315 -7 18 C-2.220891 16.39232276 -2.220891 16.39232276 1.4375 13.1875 C2.69588591 8.29377701 2.13363219 4.5339684 0 0 Z " fill="#1AA3D1" transform="translate(73,80)"/>
<path d="M0 0 C0.66 0 1.32 0 2 0 C2.75849716 5.40498914 3.15251324 10.67931886 3.16113281 16.14086914 C3.16858017 17.29618385 3.16858017 17.29618385 3.17617798 18.47483826 C3.19065364 20.99495366 3.1975744 23.5150063 3.203125 26.03515625 C3.20736607 27.33495328 3.20736607 27.33495328 3.21169281 28.66100883 C3.22662048 33.24023615 3.23589242 37.81943243 3.24023438 42.39868164 C3.24573192 47.11506788 3.26980523 51.83116732 3.29820633 56.54746342 C3.31686101 60.18925302 3.32203966 63.83097359 3.32357025 67.47280693 C3.32658725 69.21146665 3.33458344 70.95012543 3.34775543 72.68873787 C3.36488738 75.12222183 3.36291935 77.55500493 3.35644531 79.98852539 C3.3656601 80.69884918 3.37487488 81.40917297 3.3843689 82.14102173 C3.33226679 88.42036231 1.73907676 92.87446173 -2.25 97.75 C-8.19361172 102.61295504 -13.4509432 103.44092855 -20.87280273 103.34057617 C-21.73213913 103.34101425 -22.59147552 103.34145233 -23.47685242 103.34190369 C-26.2960034 103.3398262 -29.11454762 103.31654458 -31.93359375 103.29296875 C-33.89656754 103.28736909 -35.85954554 103.28310074 -37.82252502 103.28010559 C-42.97317203 103.26868595 -48.12356271 103.2392436 -53.27410889 103.20599365 C-58.53621962 103.17523057 -63.79837202 103.16158694 -69.06054688 103.14648438 C-79.37381015 103.11437112 -89.6868837 103.06320968 -100 103 C-100 102.34 -100 101.68 -100 101 C-101.65 100.67 -103.3 100.34 -105 100 C-102.00571532 96.90912549 -99.86237575 95.69743377 -95.625 95.625 C-91.48652639 95.80523503 -87.91118965 96.66853118 -84 98 C-84 97.34 -84 96.68 -84 96 C-57.6 96 -31.2 96 -4 96 C-4 69.6 -4 43.2 -4 16 C-3.34 16 -2.68 16 -2 16 C-2.185625 15.236875 -2.37125 14.47375 -2.5625 13.6875 C-3 11 -3 11 -2 8 C-1.34 8 -0.68 8 0 8 C0 5.36 0 2.72 0 0 Z " fill="#7B24E7" transform="translate(220,104)"/>
<path d="M0 0 C1.58706088 3.17412177 1.28477127 6.53638667 1 10 C0 13 0 13 -1 15 C4.21566916 13.09427473 6.6913437 11.60848556 10 7 C13.71013399 4.52657734 15.61060262 4.61496514 20 5 C22.4375 6.5 22.4375 6.5 24 8 C24.5878125 7.2575 24.5878125 7.2575 25.1875 6.5 C27.55091715 4.54406857 29.01435003 4.75792027 32 5 C31.61324963 9.396741 31.16879405 13.67227395 30 17.9375 C28.7477725 22.56326576 28.37110413 27.23424174 28 32 C32.18189449 30.22010276 33.19368173 28.15453202 35 24 C35.66 24 36.32 24 37 24 C37.34717213 27.73210035 37.2922789 29.54070458 35.25 32.75 C31.8 36.2 31.8 36.2 29 37 C22.73282023 36.78009896 22.73282023 36.78009896 20.0625 33.9375 C19.711875 33.298125 19.36125 32.65875 19 32 C18.154375 32.845625 17.30875 33.69125 16.4375 34.5625 C13.69019471 36.85409114 13.13741835 36.99767088 9.3125 37.0625 C5.72389377 35.91143762 4.73108105 35.26981976 3 32 C1.22117711 26.66353134 1.55276837 22.04741524 4 17 C1.20280733 17.38392841 -0.56073348 17.67275204 -3 19 C-4.4599207 21.08874196 -5.49981103 23.25208983 -6.62109375 25.5390625 C-8.94738859 29.69080683 -12.18216146 33.16554412 -16 36 C-18.75 36.71875 -18.75 36.71875 -21 37 C-24 33.375 -24 33.375 -24 30 C-22 30 -22 30 -20.375 31.5 C-19.92125 31.995 -19.4675 32.49 -19 33 C-18.01 32.505 -18.01 32.505 -17 32 C-17.33 31.34 -17.66 30.68 -18 30 C-18.039992 28.00039988 -18.04346799 25.99952758 -18 24 C-17.67 24 -17.34 24 -17 24 C-16.67 25.65 -16.34 27.3 -16 29 C-12.56029374 27.85343125 -12.1217771 27.15481722 -10.25 24.1875 C-9.80140625 23.50042969 -9.3528125 22.81335938 -8.890625 22.10546875 C-7.81105786 19.55333415 -8.00397301 18.5454023 -9 16 C-9.515625 15.21625 -10.03125 14.4325 -10.5625 13.625 C-12.31915077 10.41720294 -12.45160378 8.61283023 -12 5 C-8.92368116 -1.29247036 -6.71212541 -1.34242508 0 0 Z " fill="#F0F2F8" transform="translate(171,92)"/>
<path d="M0 0 C1.28922363 -0.0010952 1.28922363 -0.0010952 2.60449219 -0.00221252 C5.41863217 0.00124465 8.23107449 0.04001548 11.04492188 0.0793457 C13.00646053 0.08868052 14.96801091 0.09579347 16.92956543 0.1007843 C22.07219076 0.11980144 27.21410096 0.16885656 32.35644531 0.2243042 C37.61188078 0.27561094 42.86743271 0.2983227 48.12304688 0.32348633 C58.42023468 0.37698053 68.71689362 0.46222904 79.01367188 0.56762695 C79.01367188 0.89762695 79.01367188 1.22762695 79.01367188 1.56762695 C51.95367187 1.89762695 24.89367187 2.22762695 -2.98632812 2.56762695 C-2.32632813 3.22762695 -1.66632812 3.88762695 -0.98632812 4.56762695 C-3.29632813 4.89762695 -5.60632813 5.22762695 -7.98632812 5.56762695 C-8.31632812 7.87762695 -8.64632812 10.18762695 -8.98632812 12.56762695 C-11.62632813 12.56762695 -14.26632813 12.56762695 -16.98632812 12.56762695 C-17.00955757 22.8428903 -17.0272971 33.11814734 -17.0381403 43.39343166 C-17.04334599 48.16529204 -17.0504014 52.93713438 -17.06176758 57.70898438 C-17.07267896 62.31904845 -17.07862237 66.92909522 -17.08120537 71.53917122 C-17.0830448 73.29291112 -17.08663662 75.04665013 -17.09205818 76.80038261 C-17.09937828 79.26765827 -17.10031448 81.73486357 -17.09985352 84.20214844 C-17.10344879 84.91785004 -17.10704407 85.63355164 -17.11074829 86.37094116 C-17.10179216 90.83709591 -16.75920246 95.17947206 -16.19424438 99.61025906 C-15.92869814 102.11016793 -16.055494 104.454324 -16.32617188 106.95043945 C-16.41970947 107.88227051 -16.51324707 108.81410156 -16.60961914 109.77416992 C-16.71330811 110.73726074 -16.81699707 111.70035156 -16.92382812 112.69262695 C-17.68709695 120.4914858 -18.12752491 128.07495554 -17.98632812 135.91137695 C-17.98632812 141.02456992 -18.33474179 146.10268112 -18.71899414 151.19995117 C-18.84471982 152.98697689 -18.92041704 154.77739691 -18.98632812 156.56762695 C-18.65632813 156.89762695 -18.32632812 157.22762695 -17.98632812 157.56762695 C-18.07719264 160.10303993 -18.22342262 162.60317479 -18.42382812 165.13012695 C-18.47603516 165.84104492 -18.52824219 166.55196289 -18.58203125 167.28442383 C-18.7120692 169.04584694 -18.84859709 170.80678868 -18.98632812 172.56762695 C-18.32632812 172.56762695 -17.66632812 172.56762695 -16.98632812 172.56762695 C-16.9322669 174.50482073 -16.89350788 176.44244617 -16.86132812 178.38012695 C-16.838125 179.45907227 -16.81492187 180.53801758 -16.79101562 181.6496582 C-16.98632812 184.56762695 -16.98632812 184.56762695 -18.98632812 187.56762695 C-18.32632812 188.22762695 -17.66632812 188.88762695 -16.98632812 189.56762695 C-17.36132812 191.69262695 -17.36132812 191.69262695 -17.98632812 193.56762695 C-18.64632813 193.56762695 -19.30632813 193.56762695 -19.98632812 193.56762695 C-21.97839329 189.40591328 -22.24362804 186.01257884 -22.26048279 181.42120361 C-22.26571947 180.71274347 -22.27095615 180.00428333 -22.27635151 179.2743547 C-22.29132373 176.90623428 -22.29205605 174.53833047 -22.29272461 172.17016602 C-22.30034804 170.46976356 -22.30877586 168.76936454 -22.31794739 167.06896973 C-22.33988282 162.45309957 -22.34869016 157.83729567 -22.35377383 153.22137928 C-22.35741893 150.3355843 -22.36365983 147.44980663 -22.37077522 144.56401825 C-22.39526767 134.49066914 -22.4083209 124.4173715 -22.41186523 114.34399414 C-22.41549899 104.96392756 -22.44538345 95.58418848 -22.48726982 86.20422196 C-22.52199822 78.14373859 -22.53741413 70.0833636 -22.53811127 62.02280593 C-22.5389033 57.2118875 -22.54760764 52.40130266 -22.57610893 47.59046173 C-22.60233287 43.06277872 -22.60447078 38.53570481 -22.58845329 34.00798035 C-22.58664216 32.35080891 -22.59329918 30.6936021 -22.609272 29.03650665 C-22.7643714 11.89385673 -22.7643714 11.89385673 -16.98632812 5.56762695 C-11.75346205 0.83066028 -6.88541098 -0.15586743 0 0 Z " fill="#04B5D0" transform="translate(40.986328125,3.432373046875)"/>
<path d="M0 0 C2.42228174 0.52253975 4.64770892 1.19922006 7 2 C7 1.34 7 0.68 7 0 C17.00499195 -0.0462752 27.00995858 -0.08184462 37.01503563 -0.10362434 C41.66045274 -0.11407582 46.30579681 -0.12825979 50.95117188 -0.15087891 C55.43153225 -0.1725588 59.91182222 -0.18455834 64.39223099 -0.18975449 C66.10431655 -0.19345899 67.81639812 -0.20069266 69.52845383 -0.21146011 C71.92058486 -0.22591068 74.31242242 -0.22798067 76.70458984 -0.22705078 C77.41740616 -0.23424133 78.13022247 -0.24143188 78.86463928 -0.24884033 C83.77189568 -0.22810432 83.77189568 -0.22810432 86 2 C79.375 5.125 79.375 5.125 76 4 C76 4.66 76 5.32 76 6 C68.46112676 6.13285299 60.92221563 6.26335715 53.383255 6.39115143 C49.87966979 6.450609 46.37610008 6.51076921 42.87255859 6.57275391 C25.58086415 6.87809892 8.29497046 7.08094564 -9 7 C-9 6.34 -9 5.68 -9 5 C-10.65 4.67 -12.3 4.34 -14 4 C-9.601631 -0.54025187 -5.97076438 -0.7120162 0 0 Z " fill="#7B2BE7" transform="translate(129,200)"/>
<path d="M0 0 C0.66 1.32 1.32 2.64 2 4 C2.66 2.68 3.32 1.36 4 0 C4 30.36 4 60.72 4 92 C3.67 92 3.34 92 3 92 C3 89.36 3 86.72 3 84 C2.34 84 1.68 84 1 84 C1 86.64 1 89.28 1 92 C0.67 92 0.34 92 0 92 C0 89.36 0 86.72 0 84 C-0.66 84 -1.32 84 -2 84 C-3.09828769 80.45811722 -3.11445011 77.1790238 -3.09765625 73.484375 C-3.09443359 72.23398438 -3.09121094 70.98359375 -3.08789062 69.6953125 C-3.07951172 68.39335938 -3.07113281 67.09140625 -3.0625 65.75 C-3.05798828 64.43257813 -3.05347656 63.11515625 -3.04882812 61.7578125 C-3.03704316 58.50516259 -3.02059011 55.25260416 -3 52 C-2.34 52 -1.68 52 -1 52 C-1.00523682 51.13536133 -1.01047363 50.27072266 -1.01586914 49.37988281 C-1.10237732 32.8885761 -1.10814897 16.46392761 0 0 Z " fill="#4B5EDA" transform="translate(219,20)"/>
<path d="M0 0 C-0.165 0.680625 -0.33 1.36125 -0.5 2.0625 C-1.3108383 6.82617502 -1.42414383 10.67766922 0.0625 15.3125 C2.60975653 18.84579131 4.8112247 19.20966504 9 20 C9 22.31 9 24.62 9 27 C6.69 27 4.38 27 2 27 C0.64560332 24.29120665 0.93498549 21.99066732 1 19 C-9.18875454 18.67404901 -9.18875454 18.67404901 -19 21 C-17.68 22.32 -16.36 23.64 -15 25 C-15.33 25.66 -15.66 26.32 -16 27 C-17.93681161 27.08107583 -19.8745934 27.13922475 -21.8125 27.1875 C-22.89144531 27.22230469 -23.97039062 27.25710937 -25.08203125 27.29296875 C-28 27 -28 27 -29.84375 25.65625 C-31.34177261 23.51043382 -31.65285529 21.56887084 -32 19 C-33.65 18.67 -35.3 18.34 -37 18 C-35.18690997 14.22272911 -33.0926741 10.62730178 -31 7 C-28.31970803 9.68029197 -27.93402685 12.3989953 -26.9765625 16.00390625 C-26.1758294 18.14250238 -26.1758294 18.14250238 -24.14453125 18.9609375 C-20.39518202 19.02923166 -18.58703657 16.54991852 -15.96484375 14.11328125 C-13.09265259 11.02410547 -11.05357591 7.66141441 -9 4 C-7 1 -7 1 -4.5 0.3125 C-2 0 -2 0 0 0 Z " fill="#5464DC" transform="translate(175,109)"/>
<path d="M0 0 C56.1 0 112.2 0 170 0 C170 0.33 170 0.66 170 1 C169.05088242 1.01030746 168.10176483 1.02061493 167.12388611 1.03123474 C158.16387383 1.12914136 149.20392832 1.23189108 140.24402523 1.33933926 C135.63804866 1.39442015 131.0320656 1.44781573 126.42602539 1.49731445 C121.97801503 1.54517768 117.53007771 1.5975271 113.08215523 1.65294075 C111.38818756 1.67326522 109.69419994 1.69199402 108.00019646 1.70907402 C105.62107034 1.73333886 103.24207945 1.76336113 100.86303711 1.79467773 C100.16819717 1.8004332 99.47335724 1.80618866 98.75746155 1.81211853 C91.38116424 1.47654574 91.38116424 1.47654574 85 4 C78.6928255 5.03928912 72.52517749 5.12698327 66.14453125 5.078125 C65.10400101 5.07371399 64.06347076 5.06930298 62.9914093 5.0647583 C59.66088512 5.04855371 56.33047334 5.02437829 53 5 C50.80387438 4.98879714 48.60774808 4.97772877 46.41162109 4.96679688 C40.93792284 4.9345584 35.46515174 4.87171354 29.99194336 4.79248047 C27.75146869 4.76367791 25.51088118 4.74277065 23.27026367 4.72900391 C19.9752256 4.70774102 16.68139748 4.66132971 13.38671875 4.609375 C12.38380295 4.60814636 11.38088715 4.60691772 10.34757996 4.60565186 C9.42423355 4.58593323 8.50088715 4.5662146 7.54956055 4.54589844 C6.74036667 4.53701599 5.93117279 4.52813354 5.09745789 4.51898193 C3 4 3 4 0 0 Z " fill="#41C2DC" transform="translate(35,3)"/>
<path d="M0 0 C1.28900459 -0.00087616 1.28900459 -0.00087616 2.60404968 -0.00177002 C5.4233851 0.00100015 8.241642 0.03204098 11.06079102 0.06347656 C13.02376223 0.07094276 14.98674094 0.0766339 16.94972229 0.08062744 C22.10046189 0.0958539 27.25074581 0.13510998 32.40130615 0.17944336 C37.66338945 0.22046058 42.92554684 0.23865222 48.18774414 0.25878906 C58.5010947 0.3016071 68.81410799 0.3698222 79.12719727 0.45410156 C79.12719727 0.78410156 79.12719727 1.11410156 79.12719727 1.45410156 C52.06719727 1.78410156 25.00719727 2.11410156 -2.87280273 2.45410156 C-2.21280273 3.11410156 -1.55280273 3.77410156 -0.87280273 4.45410156 C-3.18280273 4.78410156 -5.49280273 5.11410156 -7.87280273 5.45410156 C-8.20280273 7.76410156 -8.53280273 10.07410156 -8.87280273 12.45410156 C-11.51280273 12.45410156 -14.15280273 12.45410156 -16.87280273 12.45410156 C-16.89603218 22.72936491 -16.91377171 33.00462195 -16.92461491 43.27990627 C-16.9298206 48.05176665 -16.93687601 52.82360899 -16.94824219 57.59545898 C-16.95915357 62.20552306 -16.96509698 66.81556983 -16.96767998 71.42564583 C-16.96951941 73.17938573 -16.97311123 74.93312474 -16.97853279 76.68685722 C-16.98585289 79.15413288 -16.98678909 81.62133818 -16.98632812 84.08862305 C-16.9899234 84.80432465 -16.99351868 85.52002625 -16.9972229 86.25741577 C-16.9882817 90.71612629 -16.64685707 95.05033016 -16.08071899 99.47348785 C-15.79975316 102.14997305 -15.95284145 104.68979423 -16.21264648 107.36425781 C-16.30610352 108.37294922 -16.39956055 109.38164063 -16.49584961 110.42089844 C-16.59961914 111.44248047 -16.70338867 112.4640625 -16.81030273 113.51660156 C-16.91020508 114.57298828 -17.01010742 115.629375 -17.11303711 116.71777344 C-17.35816462 119.29744862 -17.61157292 121.87601586 -17.87280273 124.45410156 C-18.20280273 124.45410156 -18.53280273 124.45410156 -18.87280273 124.45410156 C-18.8831102 123.14166977 -18.89341766 121.82923798 -18.90403748 120.47703552 C-19.00183389 108.10289195 -19.10457386 95.72879797 -19.21214199 83.35473537 C-19.26728392 76.99326209 -19.32068987 70.63178413 -19.37011719 64.27026367 C-19.41788961 58.1299809 -19.47023687 51.98975255 -19.52574348 45.84953499 C-19.54610876 43.50803039 -19.56483128 41.1665109 -19.58187675 38.82497978 C-19.60605004 35.54301456 -19.63608662 32.26115106 -19.66748047 28.97924805 C-19.67323593 28.01323669 -19.67899139 27.04722534 -19.68492126 26.05194092 C-19.72757822 22.12335342 -19.82279728 18.31130467 -20.43251038 14.42591858 C-20.87280273 11.45410156 -20.87280273 11.45410156 -20.12280273 9.37988281 C-19.71030273 8.8475 -19.29780273 8.31511719 -18.87280273 7.76660156 C-18.48092773 7.22648438 -18.08905273 6.68636719 -17.68530273 6.12988281 C-12.11062592 0.97570963 -7.32992454 -0.13214574 0 0 Z " fill="#04BDC6" transform="translate(40.872802734375,3.5458984375)"/>
<path d="M0 0 C2.375 1.5 2.375 1.5 4 3 C4.66 2.01 5.32 1.02 6 0 C9.125 -0.1875 9.125 -0.1875 12 0 C12 1.65 12 3.3 12 5 C11.67 3.68 11.34 2.36 11 1 C10.01 2.485 10.01 2.485 9 4 C5.875 5.1875 5.875 5.1875 3 6 C3.02320312 6.58007812 3.04640625 7.16015625 3.0703125 7.7578125 C3.21912861 14.19942407 2.80372226 18.70878523 -1.3125 23.9375 C-2.6428125 24.9584375 -2.6428125 24.9584375 -4 26 C-5.65 25.67 -7.3 25.34 -9 25 C-9.33 21.04 -9.66 17.08 -10 13 C-10.66 13 -11.32 13 -12 13 C-13.625 10.5 -13.625 10.5 -15 8 C-10.50755379 2.25965207 -7.75882157 -0.80821058 0 0 Z " fill="#EFF7F8" transform="translate(91,97)"/>
<path d="M0 0 C1.58323688 -0.027193 3.16661062 -0.04648306 4.75 -0.0625 C6.07257812 -0.07990234 6.07257812 -0.07990234 7.421875 -0.09765625 C9.79006229 -0.00795219 11.72077292 0.41433137 14 1 C15.67293936 0.69972883 17.33985384 0.36442233 19 0 C20.6662553 -0.0370279 22.33401319 -0.04759962 24 0 C24 2.31 24 4.62 24 7 C23.319375 6.835 22.63875 6.67 21.9375 6.5 C13.91936317 5.13521075 6.38590543 6.10154903 -0.46484375 10.62890625 C-6.94924046 15.96963233 -10.37022805 22.11068416 -13 30 C-13.65194763 39.41583378 -13.58627871 47.48262526 -9 56 C-11.375 56.125 -11.375 56.125 -14 56 C-16 54 -16 54 -16.22705078 50.28466797 C-16.22673351 48.68713948 -16.21539982 47.08958973 -16.1953125 45.4921875 C-16.1924826 44.65156769 -16.18965271 43.81094788 -16.18673706 42.94485474 C-16.1755243 40.25475954 -16.15041803 37.5649949 -16.125 34.875 C-16.1149716 33.05339022 -16.10584551 31.23177523 -16.09765625 29.41015625 C-16.07558142 24.93997642 -16.04104434 20.47004429 -16 16 C-13.36 16 -10.72 16 -8 16 C-8 13.36 -8 10.72 -8 8 C-5.36 8 -2.72 8 0 8 C0 5.36 0 2.72 0 0 Z " fill="#0FB5CE" transform="translate(48,72)"/>
<path d="M0 0 C0.598125 0.78375 1.19625 1.5675 1.8125 2.375 C3.91085249 5.14574323 3.91085249 5.14574323 7 7 C12.30731422 6.80343281 15.14089246 5.62522223 19 2 C19.66 3.65 20.32 5.3 21 7 C19.02 7.99 19.02 7.99 17 9 C17 9.66 17 10.32 17 11 C17.66 11.33 18.32 11.66 19 12 C19 12.99 19 13.98 19 15 C18.26394531 14.91621094 17.52789062 14.83242187 16.76953125 14.74609375 C15.30580078 14.59333984 15.30580078 14.59333984 13.8125 14.4375 C12.84957031 14.33308594 11.88664062 14.22867188 10.89453125 14.12109375 C8.04281126 14.00179102 5.76867514 14.3718132 3 15 C2.01 15 1.02 15 0 15 C-0.66 14.34 -1.32 13.68 -2 13 C-2 13.66 -2 14.32 -2 15 C-9.43957968 15.12609457 -9.43957968 15.12609457 -12.5 14.4375 C-15.39736918 13.93046039 -17.90633496 14.31191627 -20.796875 14.7421875 C-24.52505647 15.17846405 -28.25245037 15.07807395 -32 15 C-32 12.69 -32 10.38 -32 8 C-31.0925 8.495 -30.185 8.99 -29.25 9.5 C-23.95636321 11.71818384 -18.62931136 11.90653845 -13 11 C-7.52706173 8.56397406 -3.36270825 4.97096001 0 0 Z " fill="#2F92D7" transform="translate(72,121)"/>
<path d="M0 0 C2.4375 1.5 2.4375 1.5 4 3 C4.391875 2.505 4.78375 2.01 5.1875 1.5 C7.55091715 -0.45593143 9.01435003 -0.24207973 12 0 C11.47458553 7.7498635 9.44408524 14.6450086 7 22 C6.67 22 6.34 22 6 22 C5.67 19.69 5.34 17.38 5 15 C4.01 15 3.02 15 2 15 C1.67 12.03 1.34 9.06 1 6 C-1.3852733 5.87184635 -1.3852733 5.87184635 -4 7 C-7.98913206 12.17911044 -9.01830848 18.69650706 -10 25 C-10.99 24.67 -11.98 24.34 -13 24 C-13.27679283 21.27118374 -13.52206665 18.54546556 -13.75 15.8125 C-13.83121094 15.04357422 -13.91242188 14.27464844 -13.99609375 13.48242188 C-14.30557333 9.47638061 -14.36152367 7.58865485 -12.203125 4.07421875 C-8.06144132 0.17486763 -5.63971233 -0.49471161 0 0 Z M-15 25 C-14.34 25.66 -13.68 26.32 -13 27 C-13.66 27 -14.32 27 -15 27 C-15 26.34 -15 25.68 -15 25 Z " fill="#FAFAF9" transform="translate(191,97)"/>
<path d="M0 0 C0 0.66 0 1.32 0 2 C0.99 2.33 1.98 2.66 3 3 C3 3.66 3 4.32 3 5 C-18.12 5 -39.24 5 -61 5 C-61 4.01 -61 3.02 -61 2 C-55.52356111 1.56680063 -50.0466835 1.13981674 -44.56933594 0.71826172 C-42.71113429 0.57440717 -40.85305686 0.42893768 -38.99511719 0.28173828 C-25.90570148 -0.75386135 -13.07329951 -1.7431066 0 0 Z " fill="#4669DA" transform="translate(117,202)"/>
<path d="M0 0 C5.28 0 10.56 0 16 0 C16 1.98 16 3.96 16 6 C16.33 6.99 16.66 7.98 17 9 C16.67 9.66 16.34 10.32 16 11 C16.09723451 12.99021521 16.09723451 12.99021521 16.4375 15.125 C16.623125 16.40375 16.80875 17.6825 17 19 C18.65 19.33 20.3 19.66 22 20 C22 20.99 22 21.98 22 23 C22.66 23.33 23.32 23.66 24 24 C20.04 24.495 20.04 24.495 16 25 C16 23.35 16 21.7 16 20 C15.34 20 14.68 20 14 20 C13.71125 20.94875 13.4225 21.8975 13.125 22.875 C12 26 12 26 10 28 C9.01 28 8.02 28 7 28 C6.39827077 18.52276462 8.63599942 10.09718079 11 1 C7.59687262 2.05875074 4.98646769 3.00902154 2 5 C1.34 3.35 0.68 1.7 0 0 Z " fill="#6545E0" transform="translate(192,96)"/>
<path d="M0 0 C21.12 0 42.24 0 64 0 C64 0.99 64 1.98 64 3 C49.75791491 3.92799012 35.58166864 4.12347444 21.3125 4.0625 C19.23112089 4.05746742 17.14974057 4.05290766 15.06835938 4.04882812 C10.04554245 4.03797916 5.0227851 4.02081486 0 4 C0 2.68 0 1.36 0 0 Z " fill="#12A1D1" transform="translate(128,4)"/>
<path d="M0 0 C4.29 0 8.58 0 13 0 C13 1.65 13 3.3 13 5 C12.34 5 11.68 5 11 5 C11.99 6.485 11.99 6.485 13 8 C13.66 5.36 14.32 2.72 15 0 C15.33 0 15.66 0 16 0 C16.76779061 9.83198537 14.45024854 19.34032986 8 27 C5.875 27.6484375 5.875 27.6484375 4 28 C3.39827077 18.52276462 5.63599942 10.09718079 8 1 C5.36 1.66 2.72 2.32 0 3 C0 2.01 0 1.02 0 0 Z " fill="#3187D2" transform="translate(95,96)"/>
<path d="M0 0 C0.66 0 1.32 0 2 0 C2.68519979 11.71986853 3.30352693 23.3159495 2.31860352 35.03295898 C2.18159149 36.68637478 2.08607007 38.34315118 2 40 C2.33 40.33 2.66 40.66 3 41 C2.90913549 43.53541298 2.7629055 46.03554784 2.5625 48.5625 C2.51029297 49.27341797 2.45808594 49.98433594 2.40429688 50.71679688 C2.27425893 52.47821999 2.13773103 54.23916173 2 56 C2.66 56 3.32 56 4 56 C4.05406122 57.93719378 4.09282025 59.87481921 4.125 61.8125 C4.14820313 62.89144531 4.17140625 63.97039062 4.1953125 65.08203125 C4 68 4 68 2 71 C2.66 71.66 3.32 72.32 4 73 C3.625 75.125 3.625 75.125 3 77 C2.34 77 1.68 77 1 77 C-1.02789006 72.80444395 -1.21639013 69.45587622 -1.13525391 64.82299805 C-1.12579239 64.12001083 -1.11633087 63.41702362 -1.10658264 62.69273376 C-1.07305554 60.3821221 -1.02490048 58.07206399 -0.9765625 55.76171875 C-0.95037977 54.15462161 -0.92511402 52.54750929 -0.90072632 50.94038391 C-0.83422805 46.72013062 -0.75530259 42.50019838 -0.67376709 38.2802124 C-0.5926976 33.97013629 -0.52341061 29.65987244 -0.453125 25.34960938 C-0.31359934 16.89951168 -0.16094153 8.44971681 0 0 Z " fill="#16A7D3" transform="translate(20,120)"/>
<path d="M0 0 C0.99 0.33 1.98 0.66 3 1 C2.67 3.64 2.34 6.28 2 9 C2.66 9 3.32 9 4 9 C4 10.32 4 11.64 4 13 C5.32 13 6.64 13 8 13 C8 13.66 8 14.32 8 15 C7.22269531 15.08121094 6.44539063 15.16242188 5.64453125 15.24609375 C2.91587682 15.73051597 2.91587682 15.73051597 1.69921875 17.78515625 C1.36535156 18.53667969 1.03148437 19.28820312 0.6875 20.0625 C-1.94201236 25.24686979 -5.30767212 29.51630203 -10 33 C-12.75 33.71875 -12.75 33.71875 -15 34 C-18 30.375 -18 30.375 -18 27 C-16 27 -16 27 -14.375 28.5 C-13.92125 28.995 -13.4675 29.49 -13 30 C-12.34 29.67 -11.68 29.34 -11 29 C-11.33 28.34 -11.66 27.68 -12 27 C-12.039992 25.00039988 -12.04346799 22.99952758 -12 21 C-11.67 21 -11.34 21 -11 21 C-10.67 22.65 -10.34 24.3 -10 26 C-6.56029374 24.85343125 -6.1217771 24.15481722 -4.25 21.1875 C-3.80140625 20.50042969 -3.3528125 19.81335938 -2.890625 19.10546875 C-1.81105786 16.55333415 -2.00397301 15.5454023 -3 13 C-3.515625 12.21625 -4.03125 11.4325 -4.5625 10.625 C-6.26054198 7.52422769 -6.24294519 5.48221436 -6 2 C-4 4 -4 4 -3.875 6.625 C-3.91625 7.40875 -3.9575 8.1925 -4 9 C-3.01 8.67 -2.02 8.34 -1 8 C-0.67 5.36 -0.34 2.72 0 0 Z " fill="#E4EAF6" transform="translate(165,95)"/>
<path d="M0 0 C0.66 0 1.32 0 2 0 C2.26554688 0.77085938 2.53109375 1.54171875 2.8046875 2.3359375 C3.15789062 3.33882813 3.51109375 4.34171875 3.875 5.375 C4.22304687 6.37273437 4.57109375 7.37046875 4.9296875 8.3984375 C5.84782502 11.10442118 5.84782502 11.10442118 8 13 C7.64931313 16.49194589 5.89862523 18.91262732 3.9375 21.75 C3.38964844 22.54921875 2.84179688 23.3484375 2.27734375 24.171875 C1.85582031 24.77515625 1.43429688 25.3784375 1 26 C0.01 25.67 -0.98 25.34 -2 25 C-3.14191174 20.42321773 -3.18352601 15.99783009 -3.1875 11.3125 C-3.19974609 10.54099609 -3.21199219 9.76949219 -3.22460938 8.97460938 C-3.22983104 6.98167293 -3.1226341 4.98916662 -3 3 C-2.34 2.34 -1.68 1.68 -1 1 C-1 2.32 -1 3.64 -1 5 C-0.34 5 0.32 5 1 5 C0.67 3.35 0.34 1.7 0 0 Z " fill="#4B69DC" transform="translate(156,96)"/>
<path d="M0 0 C2.42228174 0.52253975 4.64770892 1.19922006 7 2 C7 1.34 7 0.68 7 0 C13.6 0 20.2 0 27 0 C23.38863788 1.80568106 22.455469 2.24851563 18.75 2.125 C16.89375 2.063125 16.89375 2.063125 15 2 C15 3.65 15 5.3 15 7 C7.08 7 -0.84 7 -9 7 C-9 6.34 -9 5.68 -9 5 C-10.65 4.67 -12.3 4.34 -14 4 C-9.601631 -0.54025187 -5.97076438 -0.7120162 0 0 Z " fill="#6B36E0" transform="translate(129,200)"/>
<path d="M0 0 C2.625 0.375 2.625 0.375 5 1 C4.70549317 9.01058567 3.88384984 16.11615016 -2 22 C-4.125 21.625 -4.125 21.625 -6 21 C-6.48290881 13.70271128 -6.22181235 8.14782164 -2 2 C-1.34 1.34 -0.68 0.68 0 0 Z " fill="#5B56DC" transform="translate(188,102)"/>
<path d="M0 0 C1.32 0 2.64 0 4 0 C5.48966106 6.2294917 4.48472027 11.11357937 2 17 C0.390625 19.30078125 0.390625 19.30078125 -1 21 C-2.65 20.67 -4.3 20.34 -6 20 C-6.64665162 12.1827004 -6.02656926 7.16372756 -1 1 C-0.67 0.67 -0.34 0.34 0 0 Z " fill="#2A92D5" transform="translate(88,102)"/>
<path d="M0 0 C0.33 0 0.66 0 1 0 C2.01125055 8.74326995 2.11957711 17.39323439 2.0625 26.1875 C2.05746963 27.53450352 2.05290947 28.88150889 2.04882812 30.22851562 C2.03715354 33.48572537 2.02077883 36.74283778 2 40 C1.67 40 1.34 40 1 40 C1 37.36 1 34.72 1 32 C0.34 32 -0.32 32 -1 32 C-1 34.64 -1 37.28 -1 40 C-1.33 40 -1.66 40 -2 40 C-2 37.36 -2 34.72 -2 32 C-2.66 32 -3.32 32 -4 32 C-4.78688445 29.22276075 -5.11949924 26.77389923 -5.09765625 23.890625 C-5.09443359 23.13652344 -5.09121094 22.38242188 -5.08789062 21.60546875 C-5.07951172 20.82816406 -5.07113281 20.05085938 -5.0625 19.25 C-5.05798828 18.45722656 -5.05347656 17.66445312 -5.04882812 16.84765625 C-5.03708565 14.89840492 -5.01915146 12.94919262 -5 11 C-4.67 11 -4.34 11 -4 11 C-4 12.65 -4 14.3 -4 16 C-2.68 16 -1.36 16 0 16 C0 10.72 0 5.44 0 0 Z " fill="#6249E3" transform="translate(221,72)"/>
<path d="M0 0 C1.9375 1.1875 1.9375 1.1875 3 3 C3.1875 5.6875 3.1875 5.6875 3 8 C5.97 8 8.94 8 12 8 C10.33333333 9.66666667 8.66666667 11.33333333 7 13 C6.175 13.9075 5.35 14.815 4.5 15.75 C1.86794823 18.11884659 0.47184157 18.70241358 -3 19 C-2.835 18.38125 -2.67 17.7625 -2.5 17.125 C-1.79924683 12.74529271 -1.92265749 8.42571011 -2 4 C-4.97 4 -7.94 4 -11 4 C-11 3.34 -11 2.68 -11 2 C-7.35969312 -0.3297964 -4.24881273 -0.3862557 0 0 Z " fill="#4E6ADA" transform="translate(173,88)"/>
<path d="M0 0 C0.66 0 1.32 0 2 0 C2.99 1.98 3.98 3.96 5 6 C5.99 5.67 6.98 5.34 8 5 C9.58078719 11.56634679 8.51322191 14.99558352 5.32421875 20.8984375 C4 23 4 23 2 25 C1.01 25 0.02 25 -1 25 C-1.12573674 17.70726916 -1.12573674 17.70726916 -0.5 14.1875 C0.2406592 9.4657976 0.07638165 4.76960994 0 0 Z " fill="#4076D6" transform="translate(135,97)"/>
<path d="M0 0 C7.09727428 -0.10808032 13.96094956 0.06145994 21 1 C21 1.66 21 2.32 21 3 C21.99 3.33 22.98 3.66 24 4 C24 4.66 24 5.32 24 6 C10.8 6 -2.4 6 -16 6 C-16 5.67 -16 5.34 -16 5 C-8.08 4.505 -8.08 4.505 0 4 C0 2.68 0 1.36 0 0 Z " fill="#5455DC" transform="translate(96,201)"/>
<path d="M0 0 C0.33 0 0.66 0 1 0 C1.18175781 0.69867188 1.36351562 1.39734375 1.55078125 2.1171875 C1.92783203 3.48230469 1.92783203 3.48230469 2.3125 4.875 C2.67794922 6.23238281 2.67794922 6.23238281 3.05078125 7.6171875 C3.86669852 10.32113319 3.86669852 10.32113319 7 12 C8.65549531 12.38499891 10.3222433 12.72793135 12 13 C12 15.31 12 17.62 12 20 C9.69 20 7.38 20 5 20 C4 18 4 18 4 12 C0.04 12 -3.92 12 -8 12 C-6.125 6.25 -6.125 6.25 -5 4 C-3.68 4 -2.36 4 -1 4 C-0.67 2.68 -0.34 1.36 0 0 Z " fill="#535ADE" transform="translate(172,116)"/>
<path d="M0 0 C0.33 0 0.66 0 1 0 C1 9.9 1 19.8 1 30 C0.67 30 0.34 30 0 30 C-0.495 32.475 -0.495 32.475 -1 35 C-2.32 35 -3.64 35 -5 35 C-6.12862175 29.63904667 -6.09688221 24.44693314 -6 19 C-4.68 19 -3.36 19 -2 19 C-2 16.36 -2 13.72 -2 11 C-1.34 11 -0.68 11 0 11 C0 7.37 0 3.74 0 0 Z " fill="#5750DC" transform="translate(222,53)"/>
<path d="M0 0 C0.99 1.32 1.98 2.64 3 4 C1.68 5.32 0.36 6.64 -1 8 C-0.34 8.66 0.32 9.32 1 10 C1 10.99 1 11.98 1 13 C0.26394531 12.91621094 -0.47210938 12.83242187 -1.23046875 12.74609375 C-2.69419922 12.59333984 -2.69419922 12.59333984 -4.1875 12.4375 C-5.15042969 12.33308594 -6.11335938 12.22867188 -7.10546875 12.12109375 C-9.95718874 12.00179102 -12.23132486 12.3718132 -15 13 C-15.99 13 -16.98 13 -18 13 C-18.33 12.01 -18.66 11.02 -19 10 C-15.91190305 8.23537317 -14.76687864 8 -11 8 C-11.66 7.34 -12.32 6.68 -13 6 C-12.39671875 5.90203125 -11.7934375 5.8040625 -11.171875 5.703125 C-6.29421718 4.79053096 -3.16176612 4.12404277 0 0 Z " fill="#2C8BD2" transform="translate(90,123)"/>
<path d="M0 0 C0.66 0.33 1.32 0.66 2 1 C2 2.32 2 3.64 2 5 C1.360625 4.835 0.72125 4.67 0.0625 4.5 C-1.80826821 3.96073333 -1.80826821 3.96073333 -3 4 C-4.66666667 4 -6.33333333 4 -8 4 C-7.01 4.66 -6.02 5.32 -5 6 C-6.3125 8.9375 -6.3125 8.9375 -8 12 C-8.99 12.33 -9.98 12.66 -11 13 C-11 12.01 -11 11.02 -11 10 C-11.66 10 -12.32 10 -13 10 C-14.94456928 14.13418591 -15.37028021 17.769997 -15.625 22.3125 C-15.69976562 23.56675781 -15.77453125 24.82101563 -15.8515625 26.11328125 C-15.90054688 27.06589844 -15.94953125 28.01851562 -16 29 C-16.309375 28.360625 -16.61875 27.72125 -16.9375 27.0625 C-17.8345163 25.06389179 -17.8345163 25.06389179 -19 24 C-18.61058941 14.84885116 -14.10398209 7.45275475 -7.55078125 1.27734375 C-4.69425466 -1.07551317 -3.45135848 -1.07854953 0 0 Z " fill="#17AFD0" transform="translate(62,83)"/>
<path d="M0 0 C0.33 0 0.66 0 1 0 C1.33 3.96 1.66 7.92 2 12 C6.09552228 9.57040227 6.09552228 9.57040227 6.609375 6.73828125 C6.67898437 5.53751953 6.67898437 5.53751953 6.75 4.3125 C6.80671875 3.50425781 6.8634375 2.69601563 6.921875 1.86328125 C6.94765625 1.24839844 6.9734375 0.63351563 7 0 C7.66 0 8.32 0 9 0 C8.67 3.3 8.34 6.6 8 10 C11.53600465 8.08864614 13.78972846 6.37357234 16 3 C16.69140625 5.234375 16.69140625 5.234375 17 8 C14.60853927 12.30921358 11.3880666 15.45566016 6.8125 17.25 C4 17 4 17 1.83984375 15.40625 C-0.6082644 12.20447798 -0.40923359 10.23083964 -0.25 6.25 C-0.21390625 5.07953125 -0.1778125 3.9090625 -0.140625 2.703125 C-0.09421875 1.81109375 -0.0478125 0.9190625 0 0 Z " fill="#E5EFF8" transform="translate(126,112)"/>
<path d="M0 0 C4.27866374 3.71568167 6.03168008 6.40083247 7 12 C7.07440955 15.4979506 6.87612322 18.94939852 6.625 22.4375 C6.56828125 23.35982422 6.5115625 24.28214844 6.453125 25.23242188 C6.31280733 27.48919779 6.16152895 29.74465997 6 32 C5.67 32 5.34 32 5 32 C4.67 26.72 4.34 21.44 4 16 C3.67 21.28 3.34 26.56 3 32 C2.01 32 1.02 32 0 32 C0.08378906 31.030625 0.16757813 30.06125 0.25390625 29.0625 C1.0244895 19.25821516 0.84645482 9.79283118 0 0 Z " fill="#4174D7" transform="translate(216,8)"/>
<path d="M0 0 C3 1 3 1 4 3 C4.13415472 5.6723621 4.04318541 8.32250488 4 11 C4.99 11.33 5.98 11.66 7 12 C4.625 11.75 4.625 11.75 2 11 C0.6875 8.9375 0.6875 8.9375 0 7 C-0.515625 7.639375 -1.03125 8.27875 -1.5625 8.9375 C-4.712576 11.60294892 -6.92146505 11.85168964 -11 12 C-11.99 11.34 -12.98 10.68 -14 10 C-14 9.34 -14 8.68 -14 8 C-12.68 8 -11.36 8 -10 8 C-9.34 5.69 -8.68 3.38 -8 1 C-7.67 1 -7.34 1 -7 1 C-7 2.98 -7 4.96 -7 7 C-3.42895561 5.12050295 -1.45255699 3.82946843 0 0 Z " fill="#F1F8F7" transform="translate(106,117)"/>
<path d="M0 0 C0 0.99 0 1.98 0 3 C-9.47393758 3.58237157 -18.94417836 4.10384919 -28.4375 4.1875 C-29.1399585 4.20039063 -29.84241699 4.21328125 -30.56616211 4.2265625 C-34.31451655 4.23391131 -36.74296585 3.79847447 -40 2 C-26.64005361 0.74164834 -13.42668441 -0.35541223 0 0 Z " fill="#2790D1" transform="translate(192,4)"/>
<path d="M0 0 C0 0.99 0 1.98 0 3 C-13.1559355 5.19265592 -26.76826256 3.98534215 -40 3 C-40 2.67 -40 2.34 -40 2 C-26.64005361 0.74164834 -13.42668441 -0.35541223 0 0 Z " fill="#4075D7" transform="translate(80,200)"/>
<path d="M0 0 C0.845625 0.495 1.69125 0.99 2.5625 1.5 C8.55974237 4.13928228 15.59848819 3.20899736 22 3 C24.86810286 3 26.58505355 3.61579033 28.6875 5.5625 C29.120625 6.036875 29.55375 6.51125 30 7 C22.56042032 7.12609457 22.56042032 7.12609457 19.5 6.4375 C16.60263082 5.93046039 14.09366504 6.31191627 11.203125 6.7421875 C7.47494353 7.17846405 3.74754963 7.07807395 0 7 C0 4.69 0 2.38 0 0 Z " fill="#2095CE" transform="translate(40,129)"/>
<path d="M0 0 C4.29 0 8.58 0 13 0 C13 1.65 13 3.3 13 5 C12.34 5 11.68 5 11 5 C11.99 6.485 11.99 6.485 13 8 C13.66 5.36 14.32 2.72 15 0 C15.33 0 15.66 0 16 0 C16.22084624 6.09781001 16.01167675 11.21642935 14 17 C13.34 17 12.68 17 12 17 C11.67 16.01 11.34 15.02 11 14 C10.34 14.66 9.68 15.32 9 16 C9.01160156 15.15695313 9.02320312 14.31390625 9.03515625 13.4453125 C9.04417969 12.34960938 9.05320312 11.25390625 9.0625 10.125 C9.07410156 9.03445312 9.08570312 7.94390625 9.09765625 6.8203125 C9.19744303 4.04822454 9.19744303 4.04822454 8 2 C3.85906302 1.79029441 3.85906302 1.79029441 0 3 C0 2.01 0 1.02 0 0 Z " fill="#298CDA" transform="translate(95,96)"/>
<path d="M0 0 C0.33 0 0.66 0 1 0 C1.33 2.64 1.66 5.28 2 8 C4.47266765 7.65555119 4.47266765 7.65555119 7 7 C7.33 6.34 7.66 5.68 8 5 C8.99 5.33 9.98 5.66 11 6 C11 7.65 11 9.3 11 11 C10.01 11 9.02 11 8 11 C7.2575 11.680625 6.515 12.36125 5.75 13.0625 C3 15 3 15 -0.75 14.875 C-2.35875 14.441875 -2.35875 14.441875 -4 14 C-4.33 13.34 -4.66 12.68 -5 12 C-4.01 12 -3.02 12 -2 12 C-0.85110867 8.06094403 -0.47417305 4.06434042 0 0 Z " fill="#EEF6F9" transform="translate(81,114)"/>
<path d="M0 0 C0.33 0 0.66 0 1 0 C1.01030746 0.79069382 1.02061493 1.58138763 1.03123474 2.39604187 C1.12930235 9.8556419 1.23182976 17.3151611 1.33933926 24.77463055 C1.39445136 28.60940956 1.44785221 32.44419635 1.49731445 36.27905273 C1.5451313 39.98142225 1.59747959 43.68370273 1.65294075 47.38596535 C1.67328606 48.79689116 1.6920117 50.20784132 1.70907402 51.61881065 C1.7332918 53.59838897 1.76385586 55.57788654 1.79467773 57.55737305 C1.81022202 58.68322311 1.8257663 59.80907318 1.84178162 60.96903992 C1.98700257 63.75101068 2.37077866 66.29109837 3 69 C2.01 68.67 1.02 68.34 0 68 C-0.99 68.495 -0.99 68.495 -2 69 C-1.83923477 68.30787918 -1.67846954 67.61575836 -1.51283264 66.90266418 C-0.95420363 63.74078973 -0.83900621 60.76802143 -0.79467773 57.55737305 C-0.77473251 56.27642258 -0.75478729 54.99547211 -0.73423767 53.67570496 C-0.71725722 52.28771076 -0.70037827 50.89971533 -0.68359375 49.51171875 C-0.66300576 48.08396325 -0.64200882 46.65621359 -0.62062073 45.22846985 C-0.56559047 41.48193105 -0.51609773 37.73533899 -0.46777344 33.9887085 C-0.41741879 30.16104426 -0.36180582 26.33345677 -0.30664062 22.50585938 C-0.19929224 15.00397137 -0.09779613 7.50201926 0 0 Z " fill="#F5FDF4" transform="translate(18,128)"/>
<path d="M0 0 C0.66 0 1.32 0 2 0 C2.26554688 0.74765625 2.53109375 1.4953125 2.8046875 2.265625 C3.15789062 3.25046875 3.51109375 4.2353125 3.875 5.25 C4.22304687 6.22453125 4.57109375 7.1990625 4.9296875 8.203125 C5.83274645 10.56294327 6.82078418 12.76905116 8 15 C6.35 15 4.7 15 3 15 C2.34 16.32 1.68 17.64 1 19 C1 14.71 1 10.42 1 6 C-1.49505962 8.49505962 -1.35948376 9.67328888 -1.625 13.125 C-1.69976562 14.03507812 -1.77453125 14.94515625 -1.8515625 15.8828125 C-1.90054688 16.58148438 -1.94953125 17.28015625 -2 18 C-2.33 18 -2.66 18 -3 18 C-3.05383848 15.54137599 -3.09359038 13.0839245 -3.125 10.625 C-3.14175781 9.92632812 -3.15851563 9.22765625 -3.17578125 8.5078125 C-3.19344267 6.67102514 -3.10303261 4.83398037 -3 3 C-2.34 2.34 -1.68 1.68 -1 1 C-1 2.32 -1 3.64 -1 5 C-0.34 5 0.32 5 1 5 C0.67 3.35 0.34 1.7 0 0 Z " fill="#3E6BD4" transform="translate(156,96)"/>
<path d="M0 0 C0.66 0 1.32 0 2 0 C2.34717213 3.73210035 2.2922789 5.54070458 0.25 8.75 C-2.7426182 11.7426182 -4.50074903 12.93185223 -8.75 13.125 C-9.4925 13.08375 -10.235 13.0425 -11 13 C-11.33 11.68 -11.66 10.36 -12 9 C-11.01 8.34 -10.02 7.68 -9 7 C-8.34 6.01 -7.68 5.02 -7 4 C-7 5.32 -7 6.64 -7 8 C-3.70851757 6.86500606 -3.0040131 6.00716624 -1.25 2.875 C-0.8375 1.92625 -0.425 0.9775 0 0 Z " fill="#EBE4F7" transform="translate(206,116)"/>
<path d="M0 0 C2.42228174 0.52253975 4.64770892 1.19922006 7 2 C7 2.66 7 3.32 7 4 C4.94921875 4.22786458 2.8984375 4.45572917 0.84765625 4.68359375 C-1.01140229 4.81886614 -1.01140229 4.81886614 -2 6 C-6.54950416 6.26247139 -9.88439805 5.99544337 -14 4 C-9.601631 -0.54025187 -5.97076438 -0.7120162 0 0 Z " fill="#6347E2" transform="translate(129,200)"/>
<path d="M0 0 C2.46376102 2.46376102 2.35512338 3.53405594 2.625 6.9375 C2.69976562 7.81277344 2.77453125 8.68804687 2.8515625 9.58984375 C2.96246167 11.390496 3 13.19593594 3 15 C3.66 15.33 4.32 15.66 5 16 C3.02 16.99 3.02 16.99 1 18 C0.34 16.02 -0.32 14.04 -1 12 C-2.65 11.67 -4.3 11.34 -6 11 C-4.18690997 7.22272911 -2.0926741 3.62730178 0 0 Z " fill="#4A6CD8" transform="translate(144,116)"/>
<path d="M0 0 C1.0828125 1.2065625 1.0828125 1.2065625 2.1875 2.4375 C5.02515689 5.02292072 6.27166147 5.68042813 10 6 C10 8.33333333 10 10.66666667 10 13 C7.69 13 5.38 13 3 13 C1.64560332 10.29120665 1.93498549 7.99066732 2 5 C0.02 5 -1.96 5 -4 5 C-2.68 3.35 -1.36 1.7 0 0 Z " fill="#6F39E4" transform="translate(190,123)"/>
<path d="M0 0 C0.33 0 0.66 0 1 0 C1 2.64 1 5.28 1 8 C1.66 8 2.32 8 3 8 C3.05406122 9.93719378 3.09282025 11.87481921 3.125 13.8125 C3.14820313 14.89144531 3.17140625 15.97039062 3.1953125 17.08203125 C3 20 3 20 1 23 C1.66 23.66 2.32 24.32 3 25 C2.625 27.125 2.625 27.125 2 29 C1.34 29 0.68 29 0 29 C-2.10853254 24.78293492 -1.79511369 22.5614417 -1 18 C-0.74134185 14.87855415 -0.5896712 11.75324071 -0.4375 8.625 C-0.39431641 7.79355469 -0.35113281 6.96210938 -0.30664062 6.10546875 C-0.20138195 4.07046772 -0.10026928 2.03525297 0 0 Z " fill="#2694D6" transform="translate(21,168)"/>
<path d="M0 0 C3.125 -0.1875 3.125 -0.1875 6 0 C6 1.65 6 3.3 6 5 C5.67 3.68 5.34 2.36 5 1 C4.01 2.485 4.01 2.485 3 4 C-0.125 5.1875 -0.125 5.1875 -3 6 C-2.97679688 6.58007812 -2.95359375 7.16015625 -2.9296875 7.7578125 C-2.81749577 12.61411166 -3.12485085 16.42932395 -5 21 C-5.66 20.67 -6.32 20.34 -7 20 C-6.67 18.824375 -6.34 17.64875 -6 16.4375 C-5.0030467 12.4988324 -4.83130797 9.04860871 -5 5 C-6.65 5.33 -8.3 5.66 -10 6 C-10.33 5.01 -10.66 4.02 -11 3 C-8.69 3.33 -6.38 3.66 -4 4 C-3.67 3.34 -3.34 2.68 -3 2 C-2.67 2.33 -2.34 2.66 -2 3 C-1.34 2.01 -0.68 1.02 0 0 Z " fill="#E2F1F9" transform="translate(97,97)"/>
<path d="M0 0 C0.66 0.33 1.32 0.66 2 1 C1.34 2.32 0.68 3.64 0 5 C3.465 4.505 3.465 4.505 7 4 C5.8553125 4.7734375 5.8553125 4.7734375 4.6875 5.5625 C1.38424393 8.55847644 0.51374274 10.85712514 -1 15 C-2.125 11.25 -2.125 11.25 -1 9 C-1.99 9.33 -2.98 9.66 -4 10 C-4 9.34 -4 8.68 -4 8 C-4.66 8 -5.32 8 -6 8 C-5.65120368 4.74456771 -4.97866739 3.98126893 -2.4375 1.75 C-1.633125 1.1725 -0.82875 0.595 0 0 Z " fill="#EAEDF9" transform="translate(184,97)"/>
<path d="M0 0 C0.99 0 1.98 0 3 0 C3.33 0.99 3.66 1.98 4 3 C3.67 3.66 3.34 4.32 3 5 C8.02296004 6.13016601 11.97874074 5.77916092 17 5 C17 5.66 17 6.32 17 7 C15.68 7.33 14.36 7.66 13 8 C13 8.66 13 9.32 13 10 C9.1863421 10.36320551 7.1673455 10.08209402 3.6875 8.375 C1 6 1 6 0.125 2.75 C0.08375 1.8425 0.0425 0.935 0 0 Z " fill="#29A2D5" transform="translate(45,118)"/>
<path d="M0 0 C0.33 0 0.66 0 1 0 C1 9.57 1 19.14 1 29 C0.67 29 0.34 29 0 29 C0 26.36 0 23.72 0 21 C-0.66 21 -1.32 21 -2 21 C-2 23.64 -2 26.28 -2 29 C-2.33 29 -2.66 29 -3 29 C-3 23.72 -3 18.44 -3 13 C-2.01 13 -1.02 13 0 13 C0 8.71 0 4.42 0 0 Z " fill="#6335DE" transform="translate(222,83)"/>
<path d="M0 0 C2.63085174 5.26170348 2.56769951 9.82074497 2.8125 15.625 C2.87630859 16.6871875 2.94011719 17.749375 3.00585938 18.84375 C3.05162109 19.85695313 3.09738281 20.87015625 3.14453125 21.9140625 C3.18940674 22.8417041 3.23428223 23.7693457 3.28051758 24.72509766 C3.18794678 25.47581543 3.09537598 26.2265332 3 27 C2.01 27.66 1.02 28.32 0 29 C0 19.43 0 9.86 0 0 Z " fill="#4968E1" transform="translate(219,20)"/>
<path d="M0 0 C2.56687367 3.8503105 1.83288724 5.58569763 1 10 C1.99 10.33 2.98 10.66 4 11 C3.01 12.485 3.01 12.485 2 14 C1.01 12.68 0.02 11.36 -1 10 C-1.66 10.66 -2.32 11.32 -3 12 C-3.66 12 -4.32 12 -5 12 C-5.33 12.66 -5.66 13.32 -6 14 C-7.32 13.67 -8.64 13.34 -10 13 C-9.278125 12.34 -8.55625 11.68 -7.8125 11 C-4.54311134 7.75863467 -2.3069961 3.95625289 0 0 Z " fill="#DCEEF7" transform="translate(73,112)"/>
<path d="M0 0 C5.28 0 10.56 0 16 0 C15.67 2.31 15.34 4.62 15 7 C13.35 7.33 11.7 7.66 10 8 C10.33 5.69 10.66 3.38 11 1 C7.59687262 2.05875074 4.98646769 3.00902154 2 5 C1.34 3.35 0.68 1.7 0 0 Z " fill="#6057DD" transform="translate(192,96)"/>
<path d="M0 0 C2.64 0 5.28 0 8 0 C8 2.31 8 4.62 8 7 C5.69 7 3.38 7 1 7 C0.67 4.69 0.34 2.38 0 0 Z " fill="#5F49E5" transform="translate(176,129)"/>
<path d="M0 0 C0.38897161 1.62171239 0.76078298 3.24754925 1.125 4.875 C1.33382812 5.77992187 1.54265625 6.68484375 1.7578125 7.6171875 C1.83773437 8.40351562 1.91765625 9.18984375 2 10 C1.34 10.66 0.68 11.32 0 12 C0 10.02 0 8.04 0 6 C-2.31 6.33 -4.62 6.66 -7 7 C-7 5.02 -7 3.04 -7 1 C-4.53721199 -0.231394 -2.7204945 -0.07159196 0 0 Z " fill="#E0ECF3" transform="translate(118,97)"/>
<path d="M0 0 C0.99 0.33 1.98 0.66 3 1 C2.67 3.97 2.34 6.94 2 10 C1.34 10 0.68 10 0 10 C-0.66 11.32 -1.32 12.64 -2 14 C-5.18923033 9.81413519 -6.50423019 7.29441695 -6 2 C-4 4 -4 4 -3.875 6.625 C-3.91625 7.40875 -3.9575 8.1925 -4 9 C-3.01 8.67 -2.02 8.34 -1 8 C-0.67 5.36 -0.34 2.72 0 0 Z " fill="#E0E9F4" transform="translate(165,95)"/>
<path d="M0 0 C3 0.125 3 0.125 4 1.125 C4.04063832 2.79117115 4.042721 4.45888095 4 6.125 C1.36 6.785 -1.28 7.445 -4 8.125 C-4.04241723 5.79205225 -4.04092937 3.45797433 -4 1.125 C-3 0.125 -3 0.125 0 0 Z " fill="#4370D9" transform="translate(132,127.875)"/>
<path d="M0 0 C-0.7115625 0.8353125 -0.7115625 0.8353125 -1.4375 1.6875 C-3.12395996 4.18346074 -3.58953107 6.0446237 -4 9 C-5.32 9 -6.64 9 -8 9 C-9.32561852 2.61292897 -9.32561852 2.61292897 -7.9375 0 C-5.08594286 -1.47177143 -3.03295907 -0.74138999 0 0 Z " fill="#F9FAFB" transform="translate(52,84)"/>
<path d="M0 0 C0.66 0 1.32 0 2 0 C2.33 2.64 2.66 5.28 3 8 C4.65 8.33 6.3 8.66 8 9 C8 9.99 8 10.98 8 12 C8.66 12.33 9.32 12.66 10 13 C7.36 13.33 4.72 13.66 2 14 C2 12.35 2 10.7 2 9 C1.34 8.67 0.68 8.34 0 8 C0.66 8 1.32 8 2 8 C2 7.34 2 6.68 2 6 C1.34 6 0.68 6 0 6 C0 4.02 0 2.04 0 0 Z " fill="#7137E6" transform="translate(206,107)"/>
<path d="M0 0 C0.33 0 0.66 0 1 0 C1.19335938 0.74765625 1.38671875 1.4953125 1.5859375 2.265625 C1.97652344 3.74289063 1.97652344 3.74289063 2.375 5.25 C2.63023438 6.22453125 2.88546875 7.1990625 3.1484375 8.203125 C3.89598509 10.65837303 4.77123817 12.75617405 6 15 C3.625 15.125 3.625 15.125 1 15 C-1 13 -1 13 -1.23046875 10.9765625 C-1.21628906 10.20054688 -1.20210937 9.42453125 -1.1875 8.625 C-1.18105469 7.85414062 -1.17460937 7.08328125 -1.16796875 6.2890625 C-1.00595151 4.08110656 -0.60634894 2.12464668 0 0 Z " fill="#16A8CE" transform="translate(33,113)"/>
<path d="M0 0 C-0.63065155 5.7809725 -1.65155132 11.3443706 -3 17 C-4.32 16.67 -5.64 16.34 -7 16 C-6.71125 15.319375 -6.4225 14.63875 -6.125 13.9375 C-4.87402645 10.67106907 -3.92552045 7.37153877 -3 4 C-3.66 3.67 -4.32 3.34 -5 3 C-2.25 0 -2.25 0 0 0 Z " fill="#337AD7" transform="translate(128,104)"/>
<path d="M0 0 C1.32 0 2.64 0 4 0 C4.05423638 1.91635217 4.09289963 3.83314925 4.125 5.75 C4.14820312 6.81734375 4.17140625 7.8846875 4.1953125 8.984375 C4.00487687 11.92470106 3.52670104 13.52361878 2 16 C0.00383446 14.00383446 0.59016573 10.18298037 0.4375 7.4375 C0.39431641 6.72658203 0.35113281 6.01566406 0.30664062 5.28320312 C0.20028223 3.52238088 0.09961154 1.7612168 0 0 Z " fill="#17A3D3" transform="translate(76,80)"/>
<path d="M0 0 C0.99 0 1.98 0 3 0 C3.33 1.32 3.66 2.64 4 4 C0.63576723 6.96052484 -2.69159287 7.92289822 -7 9 C-7.33 8.34 -7.66 7.68 -8 7 C-7.21625 6.7525 -6.4325 6.505 -5.625 6.25 C-2.64259316 4.82980627 -2.1589951 3.99407067 -1 1 C-0.67 0.67 -0.34 0.34 0 0 Z " fill="#F7F3F9" transform="translate(220,198)"/>
<path d="M0 0 C3.375 4.5 3.375 4.5 3 9 C-0.33333333 9 -3.66666667 9 -7 9 C-4.69 6.03 -2.38 3.06 0 0 Z " fill="#2192D1" transform="translate(72,121)"/>
<path d="M0 0 C0.33 0 0.66 0 1 0 C1.103125 0.763125 1.20625 1.52625 1.3125 2.3125 C2.04364039 5.17059424 2.76951913 6.15742885 5 8 C2.75 10.5625 2.75 10.5625 0 13 C-2.1875 13 -2.1875 13 -4 12 C-6 9 -6 9 -6 6 C-4 6 -4 6 -2.375 7.5 C-1.92125 7.995 -1.4675 8.49 -1 9 C-0.34 8.67 0.32 8.34 1 8 C0.67 7.34 0.34 6.68 0 6 C-0.039992 4.00039988 -0.04346799 1.99952758 0 0 Z " fill="#E2EBF4" transform="translate(153,116)"/>
<path d="M0 0 C2.97 0 5.94 0 9 0 C9 0.66 9 1.32 9 2 C9.99 2.33 10.98 2.66 12 3 C11.01 3.495 11.01 3.495 10 4 C10 4.66 10 5.32 10 6 C5.96825194 5.72510809 4.43105369 5.46508424 1.625 2.4375 C0.820625 1.2309375 0.820625 1.2309375 0 0 Z " fill="#2F87D5" transform="translate(24,200)"/>
<path d="M0 0 C0.33 0 0.66 0 1 0 C1 5.61 1 11.22 1 17 C0.01 16.67 -0.98 16.34 -2 16 C-3.1194613 13.1085914 -3.10768197 10.32237388 -3.0625 7.25 C-3.05347656 6.45078125 -3.04445312 5.6515625 -3.03515625 4.828125 C-3.02355469 4.22484375 -3.01195312 3.6215625 -3 3 C-2.01 3.495 -2.01 3.495 -1 4 C-0.67 2.68 -0.34 1.36 0 0 Z " fill="#0FA8CB" transform="translate(46,104)"/>
<path d="M0 0 C0.25 2.3125 0.25 2.3125 0 5 C-2 6.8125 -2 6.8125 -4 8 C-5.5625 6.8125 -5.5625 6.8125 -7 5 C-6.8125 2.375 -6.8125 2.375 -6 0 C-3.50907189 -1.24546405 -2.58919267 -0.7767578 0 0 Z " fill="#219AD1" transform="translate(71,113)"/>
<path d="M0 0 C-0.99 0.495 -0.99 0.495 -2 1 C-1.67 1.66 -1.34 2.32 -1 3 C-2.1446875 3.12375 -2.1446875 3.12375 -3.3125 3.25 C-6.52373261 4.14615794 -7.29374499 5.21611025 -9 8 C-10.32 7.34 -11.64 6.68 -13 6 C-5.46629213 -1.95224719 -5.46629213 -1.95224719 0 0 Z " fill="#12C4D1" transform="translate(36,5)"/>
<path d="M0 0 C0.99 0.33 1.98 0.66 3 1 C3.04254356 2.99954746 3.04080783 5.00041636 3 7 C2.67 7.33 2.34 7.66 2 8 C1.84417697 9.34015221 1.74955858 10.68758903 1.68359375 12.03515625 C1.62075195 13.24848633 1.62075195 13.24848633 1.55664062 14.48632812 C1.51732422 15.33646484 1.47800781 16.18660156 1.4375 17.0625 C1.39431641 17.91650391 1.35113281 18.77050781 1.30664062 19.65039062 C1.20023298 21.76672037 1.09958269 23.88333813 1 26 C0.67 26 0.34 26 0 26 C0 17.42 0 8.84 0 0 Z " fill="#1C9BD3" transform="translate(20,160)"/>
<path d="M0 0 C0.33 0 0.66 0 1 0 C1.36320551 3.8136579 1.08209402 5.8326545 -0.625 9.3125 C-3 12 -3 12 -6.25 12.875 C-7.61125 12.936875 -7.61125 12.936875 -9 13 C-8.8125 11.125 -8.8125 11.125 -8 9 C-7.21625 8.731875 -6.4325 8.46375 -5.625 8.1875 C-2.61384427 6.8253105 -2.41040253 6.29475294 -1.1875 3.375 C-0.795625 2.26125 -0.40375 1.1475 0 0 Z " fill="#E6F3FA" transform="translate(75,85)"/>
<path d="M0 0 C2.625 -0.1875 2.625 -0.1875 5 0 C5 2.31 5 4.62 5 7 C1.37 6.34 -2.26 5.68 -6 5 C-6 4.67 -6 4.34 -6 4 C-3.03 4 -0.06 4 3 4 C1.35 3.67 -0.3 3.34 -2 3 C-1.34 2.01 -0.68 1.02 0 0 Z " fill="#11ACCA" transform="translate(67,72)"/>
<path d="M0 0 C0.33 0 0.66 0 1 0 C1.33 2.64 1.66 5.28 2 8 C4.47266765 7.65555119 4.47266765 7.65555119 7 7 C7.33 6.34 7.66 5.68 8 5 C8.99 5.33 9.98 5.66 11 6 C11 7.65 11 9.3 11 11 C7.25838897 11 3.71046443 10.48661829 0 10 C0 6.7 0 3.4 0 0 Z " fill="#D2E7F5" transform="translate(81,114)"/>
<path d="M0 0 C0.66 0 1.32 0 2 0 C2.36256858 1.4562672 2.71479793 2.91511185 3.0625 4.375 C3.35833984 5.59316406 3.35833984 5.59316406 3.66015625 6.8359375 C4 9 4 9 3 11 C2.01 11 1.02 11 0 11 C-0.19491452 9.54263913 -0.38069358 8.08405407 -0.5625 6.625 C-0.66691406 5.81289062 -0.77132812 5.00078125 -0.87890625 4.1640625 C-1 2 -1 2 0 0 Z " fill="#F7FBFB" transform="translate(161,93)"/>
<path d="M0 0 C0 1.32 0 2.64 0 4 C1.32 4 2.64 4 4 4 C4 4.66 4 5.32 4 6 C3.21625 6.12375 2.4325 6.2475 1.625 6.375 C-1.14057822 6.79117993 -1.14057822 6.79117993 -3 9 C-3.66 7.02 -4.32 5.04 -5 3 C-2.25 0 -2.25 0 0 0 Z " fill="#F9FBF9" transform="translate(169,104)"/>
<path d="M0 0 C-0.66 1.65 -1.32 3.3 -2 5 C-6.455 4.01 -6.455 4.01 -11 3 C-11 2.67 -11 2.34 -11 2 C-9.35 2 -7.7 2 -6 2 C-6 1.34 -6 0.68 -6 0 C-3 -1 -3 -1 0 0 Z " fill="#EAF3F9" transform="translate(216,1)"/>
<path d="M0 0 C1.0828125 1.2065625 1.0828125 1.2065625 2.1875 2.4375 C5.02515689 5.02292072 6.27166147 5.68042813 10 6 C10 6.33 10 6.66 10 7 C7.36 7 4.72 7 2 7 C2 6.34 2 5.68 2 5 C0.02 5 -1.96 5 -4 5 C-2.68 3.35 -1.36 1.7 0 0 Z " fill="#6344DC" transform="translate(190,123)"/>
<path d="M0 0 C0.33 0 0.66 0 1 0 C1 1.98 1 3.96 1 6 C1.66 6.33 2.32 6.66 3 7 C2.01 7.33 1.02 7.66 0 8 C-0.33 8.66 -0.66 9.32 -1 10 C-0.34 10.33 0.32 10.66 1 11 C-1.97 10.505 -1.97 10.505 -5 10 C-5.33 9.01 -5.66 8.02 -6 7 C-4.68 7 -3.36 7 -2 7 C-1.34 4.69 -0.68 2.38 0 0 Z " fill="#DBEDFC" transform="translate(98,118)"/>
<path d="M0 0 C1.98567708 0.5859375 3.97135417 1.171875 5.95703125 1.7578125 C5.26953125 3.6953125 5.26953125 3.6953125 3.95703125 5.7578125 C1.33203125 6.5078125 1.33203125 6.5078125 -1.04296875 6.7578125 C0.27703125 6.0978125 1.59703125 5.4378125 2.95703125 4.7578125 C2.95703125 4.0978125 2.95703125 3.4378125 2.95703125 2.7578125 C-0.01296875 3.4178125 -2.98296875 4.0778125 -6.04296875 4.7578125 C-4.92142695 1.39318711 -3.83642022 -0.45479551 0 0 Z " fill="#1E98C8" transform="translate(59.04296875,120.2421875)"/>
<path d="M0 0 C0.33 0.66 0.66 1.32 1 2 C4.3 2 7.6 2 11 2 C11.33 2.66 11.66 3.32 12 4 C10.04196493 4.05389087 8.08351091 4.09274217 6.125 4.125 C5.03445312 4.14820313 3.94390625 4.17140625 2.8203125 4.1953125 C0 4 0 4 -2 2 C-1.34 2 -0.68 2 0 2 C0 1.34 0 0.68 0 0 Z " fill="#EEF7F7" transform="translate(47,129)"/>
<path d="M0 0 C1.36125 0.12375 1.36125 0.12375 2.75 0.25 C3.41 1.57 4.07 2.89 4.75 4.25 C1.78824877 3.63722388 0.36941217 2.99627478 -2.25 1.25 C-1.92 2.24 -1.59 3.23 -1.25 4.25 C-3.23 4.25 -5.21 4.25 -7.25 4.25 C-4.83923194 1.28290085 -3.90322061 0.30024774 0 0 Z " fill="#E5F4FB" transform="translate(131.25,96.75)"/>
<path d="M0 0 C1.49080078 0.16628906 1.49080078 0.16628906 3.01171875 0.3359375 C3.77097656 0.43132813 4.53023437 0.52671875 5.3125 0.625 C5.3125 0.955 5.3125 1.285 5.3125 1.625 C3.73324025 2.01680108 2.14881206 2.38780736 0.5625 2.75 C-0.31921875 2.95882813 -1.2009375 3.16765625 -2.109375 3.3828125 C-5.01625493 3.65588304 -6.25411348 3.16008028 -8.6875 1.625 C-5.1388865 -0.74074234 -4.1110475 -0.48365265 0 0 Z " fill="#F2FAFA" transform="translate(34.6875,1.375)"/>
<path d="M0 0 C0.12375 0.639375 0.2475 1.27875 0.375 1.9375 C0.684375 2.9584375 0.684375 2.9584375 1 4 C1.66 4.33 2.32 4.66 3 5 C1.02 5.99 1.02 5.99 -1 7 C-0.01 7.66 0.98 8.32 2 9 C0.35 9 -1.3 9 -3 9 C-3.33 7.68 -3.66 6.36 -4 5 C-3.01 4.34 -2.02 3.68 -1 3 C-0.67 2.01 -0.34 1.02 0 0 Z " fill="#EBE1F9" transform="translate(198,120)"/>
<path d="M0 0 C0 0.66 0 1.32 0 2 C-0.66 2 -1.32 2 -2 2 C-2.33 3.32 -2.66 4.64 -3 6 C-4.98 6 -6.96 6 -9 6 C-6.78104821 2.67157231 -4.2307106 0 0 0 Z " fill="#F8F9F6" transform="translate(205,122)"/>
<path d="M0 0 C0.66 0 1.32 0 2 0 C2.66 3.63 3.32 7.26 4 11 C3.01 11.495 3.01 11.495 2 12 C2 11.01 2 10.02 2 9 C1.34 8.67 0.68 8.34 0 8 C0.66 8 1.32 8 2 8 C2 7.34 2 6.68 2 6 C1.34 6 0.68 6 0 6 C0 4.02 0 2.04 0 0 Z " fill="#724BE9" transform="translate(206,107)"/>
<path d="M0 0 C2.4375 0.375 2.4375 0.375 5 1 C5.33 1.66 5.66 2.32 6 3 C1.02936879 3.91297308 -3.02936879 3.91297308 -8 3 C-8 2.67 -8 2.34 -8 2 C-5.36 2 -2.72 2 0 2 C0 1.34 0 0.68 0 0 Z " fill="#D9F1F7" transform="translate(68,79)"/>
<path d="M0 0 C0.66 0 1.32 0 2 0 C2.66 1.65 3.32 3.3 4 5 C2.35 5.66 0.7 6.32 -1 7 C-1.625 4.625 -1.625 4.625 -2 2 C-1.34 1.34 -0.68 0.68 0 0 Z " fill="#FDFCF3" transform="translate(151,120)"/>
<path d="M0 0 C0.33 0.66 0.66 1.32 1 2 C3.01669827 3.13350534 3.01669827 3.13350534 5 4 C5 4.99 5 5.98 5 7 C3.35 6.67 1.7 6.34 0 6 C0 4.02 0 2.04 0 0 Z " fill="#4663D7" transform="translate(158,104)"/>
<path d="M0 0 C1.32 0 2.64 0 4 0 C4 0.66 4 1.32 4 2 C3.34 2 2.68 2 2 2 C1.01 3.98 0.02 5.96 -1 8 C-1.66 7.01 -2.32 6.02 -3 5 C-1.125 1.125 -1.125 1.125 0 0 Z " fill="#1D92CF" transform="translate(88,102)"/>
<path d="M0 0 C0.33 0 0.66 0 1 0 C1 3.3 1 6.6 1 10 C1.66 10.33 2.32 10.66 3 11 C1.35 11.33 -0.3 11.66 -2 12 C-1.34 8.04 -0.68 4.08 0 0 Z " fill="#4F5FDB" transform="translate(172,95)"/>
<path d="M0 0 C2.56687367 3.8503105 1.83288724 5.58569763 1 10 C0.01 10 -0.98 10 -2 10 C-1.34 6.7 -0.68 3.4 0 0 Z " fill="#3B94D5" transform="translate(103,98)"/>
<path d="M0 0 C0.66 0.33 1.32 0.66 2 1 C0.55746343 4.36591866 -1.33264727 6.51047079 -4 9 C-4 7.02 -4 5.04 -4 3 C-3.01 3 -2.02 3 -1 3 C-0.67 2.01 -0.34 1.02 0 0 Z " fill="#2C78CC" transform="translate(123,97)"/>
<path d="M0 0 C0.99 0.33 1.98 0.66 3 1 C2.67 3.31 2.34 5.62 2 8 C-0.64 8 -3.28 8 -6 8 C-5.38125 7.71125 -4.7625 7.4225 -4.125 7.125 C-1.86674235 6.06279958 -1.86674235 6.06279958 0 4 C0 2.68 0 1.36 0 0 Z " fill="#01C1C9" transform="translate(30,8)"/>
<path d="M0 0 C0.33 0.66 0.66 1.32 1 2 C1.99 2.33 2.98 2.66 4 3 C2.75 4.5625 2.75 4.5625 1 6 C-1.1875 5.6875 -1.1875 5.6875 -3 5 C-2.67 4.01 -2.34 3.02 -2 2 C-1.34 2 -0.68 2 0 2 C0 1.34 0 0.68 0 0 Z " fill="#685BE0" transform="translate(185,118)"/>
<path d="M0 0 C0.99 0.33 1.98 0.66 3 1 C2.67 3.64 2.34 6.28 2 9 C1.34 9 0.68 9 0 9 C0 6.03 0 3.06 0 0 Z " fill="#4B6CD7" transform="translate(165,95)"/>
<path d="M0 0 C2.475 0.99 2.475 0.99 5 2 C4.67 3.32 4.34 4.64 4 6 C2.68 6.33 1.36 6.66 0 7 C0 4.69 0 2.38 0 0 Z " fill="#23A5D3" transform="translate(40,129)"/>
<path d="M0 0 C0.66 0 1.32 0 2 0 C2 1.98 2 3.96 2 6 C2.99 6.33 3.98 6.66 5 7 C3.35 6.67 1.7 6.34 0 6 C-0.38218767 4.34385343 -0.71395102 2.67542976 -1 1 C-0.67 0.67 -0.34 0.34 0 0 Z " fill="#DBE9F8" transform="translate(108,122)"/>
<path d="M0 0 C0.66 0 1.32 0 2 0 C1.88637738 1.4800841 1.75877092 2.95910074 1.625 4.4375 C1.52058594 5.67306641 1.52058594 5.67306641 1.4140625 6.93359375 C1.27742188 7.61550781 1.14078125 8.29742187 1 9 C0.01 9.495 0.01 9.495 -1 10 C-0.67 6.7 -0.34 3.4 0 0 Z " fill="#2591CB" transform="translate(90,108)"/>
<path d="M0 0 C0.99 0 1.98 0 3 0 C3 2.64 3 5.28 3 8 C2.34 8 1.68 8 1 8 C0.67 5.36 0.34 2.72 0 0 Z " fill="#6741E8" transform="translate(216,96)"/>
<path d="M0 0 C3.3 0 6.6 0 10 0 C10.33 1.32 10.66 2.64 11 4 C10.34 4 9.68 4 9 4 C8.67 3.34 8.34 2.68 8 2 C3.85906302 1.79029441 3.85906302 1.79029441 0 3 C0 2.01 0 1.02 0 0 Z " fill="#1B8CD2" transform="translate(95,96)"/>
<path d="M0 0 C0.8971875 0.5259375 0.8971875 0.5259375 1.8125 1.0625 C-1.6227048 3.35263653 -3.172831 3.24092973 -7.1875 3.0625 C-4.99720701 -0.22293948 -3.86362761 -1.6558404 0 0 Z " fill="#4A5BD3" transform="translate(164.1875,124.9375)"/>
<path d="M0 0 C0.33 0 0.66 0 1 0 C1 1.65 1 3.3 1 5 C0.401875 4.773125 -0.19625 4.54625 -0.8125 4.3125 C-1.8953125 4.1578125 -1.8953125 4.1578125 -3 4 C-4.77190909 5.35444301 -4.77190909 5.35444301 -6 7 C-5.67 5.35 -5.34 3.7 -5 2 C-3.68 2 -2.36 2 -1 2 C-0.67 1.34 -0.34 0.68 0 0 Z " fill="#4C85DD" transform="translate(125,118)"/>
<path d="M0 0 C0.66 0 1.32 0 2 0 C2 0.99 2 1.98 2 3 C1.34 3 0.68 3 0 3 C-0.28875 3.78375 -0.5775 4.5675 -0.875 5.375 C-2 8 -2 8 -4 10 C-3.43697042 6.05879291 -2.3208055 3.2491277 0 0 Z " fill="#1CB2C5" transform="translate(49,90)"/>
<path d="M0 0 C0.66 0.66 1.32 1.32 2 2 C1.01 3.98 0.02 5.96 -1 8 C-1.99 7.67 -2.98 7.34 -4 7 C-4 5.68 -4 4.36 -4 3 C-2.68 3 -1.36 3 0 3 C0 2.01 0 1.02 0 0 Z " fill="#E8F5F9" transform="translate(21,10)"/>
<path d="M0 0 C1.32 0.33 2.64 0.66 4 1 C3.67 1.33 3.34 1.66 3 2 C3.99 2.66 4.98 3.32 6 4 C4.35 4.33 2.7 4.66 1 5 C0.67 3.35 0.34 1.7 0 0 Z " fill="#5D4DD9" transform="translate(176,131)"/>
<path d="M0 0 C0.33 0 0.66 0 1 0 C1 1.98 1 3.96 1 6 C-0.98 6 -2.96 6 -5 6 C-3.35830472 3.97945196 -1.69088222 1.97956942 0 0 Z " fill="#6F34E0" transform="translate(207,122)"/>
<path d="M0 0 C0.33 0.99 0.66 1.98 1 3 C0.01 3.99 -0.98 4.98 -2 6 C-2.99 5.67 -3.98 5.34 -5 5 C-3.35 3.35 -1.7 1.7 0 0 Z " fill="#F5FAF5" transform="translate(161,118)"/>
<path d="M0 0 C0.66 0 1.32 0 2 0 C3.33333333 1.33333333 4.66666667 2.66666667 6 4 C5.01 4 4.02 4 3 4 C2.67 4.66 2.34 5.32 2 6 C2 5.34 2 4.68 2 4 C1.01 3.67 0.02 3.34 -1 3 C-0.67 2.01 -0.34 1.02 0 0 Z " fill="#F3F4F3" transform="translate(192,99)"/>
<path d="M0 0 C1.32 0 2.64 0 4 0 C4 1.65 4 3.3 4 5 C2.02 5 0.04 5 -2 5 C-1 3 -1 3 2 2 C1.34 1.34 0.68 0.68 0 0 Z " fill="#FEF9F1" transform="translate(98,98)"/>
<path d="M0 0 C1.2065625 0.0309375 1.2065625 0.0309375 2.4375 0.0625 C2.7675 0.7225 3.0975 1.3825 3.4375 2.0625 C2.7775 2.0625 2.1175 2.0625 1.4375 2.0625 C1.4375 3.0525 1.4375 4.0425 1.4375 5.0625 C0.7775 5.0625 0.1175 5.0625 -0.5625 5.0625 C-0.5625 4.0725 -0.5625 3.0825 -0.5625 2.0625 C-1.5525 1.7325 -2.5425 1.4025 -3.5625 1.0625 C-2.5625 0.0625 -2.5625 0.0625 0 0 Z " fill="#22ADD6" transform="translate(64.5625,81.9375)"/>
<path d="M0 0 C-0.99 0.495 -0.99 0.495 -2 1 C-1.67 1.66 -1.34 2.32 -1 3 C-3.64 3 -6.28 3 -9 3 C-5.83583464 -0.30799106 -4.50236011 -1.35070803 0 0 Z " fill="#18C0C7" transform="translate(36,5)"/>
<path d="M0 0 C2.35953094 2.35953094 2.49141413 3.77895617 3 7 C2.01 6.67 1.02 6.34 0 6 C-0.99 6.495 -0.99 6.495 -2 7 C-1.34 4.69 -0.68 2.38 0 0 Z " fill="#EEF5F8" transform="translate(18,190)"/>
<path d="M0 0 C0 0.66 0 1.32 0 2 C-2.64 2.33 -5.28 2.66 -8 3 C-8.33 2.34 -8.66 1.68 -9 1 C-5.8035914 -0.06546953 -3.34252724 -0.07427838 0 0 Z " fill="#2AA2D8" transform="translate(56,133)"/>
<path d="M0 0 C2.25 0.25 2.25 0.25 4 1 C4 1.66 4 2.32 4 3 C-0.625 5.125 -0.625 5.125 -4 4 C-2.25 1.9375 -2.25 1.9375 0 0 Z " fill="#339ED7" transform="translate(64,129)"/>
<path d="M0 0 C0.99 1.485 0.99 1.485 2 3 C3.32381517 4.67423683 4.65576661 6.34211215 6 8 C3.03 7.505 3.03 7.505 0 7 C0 4.69 0 2.38 0 0 Z " fill="#6561DB" transform="translate(173,121)"/>
<path d="M0 0 C0.99 0.33 1.98 0.66 3 1 C3.6875 3.0625 3.6875 3.0625 4 5 C2.68 5.33 1.36 5.66 0 6 C-1.125 2.25 -1.125 2.25 0 0 Z " fill="#E6F2F8" transform="translate(106,117)"/>
<path d="M0 0 C2.50037734 2.17424117 3.43628586 3.73045798 4 7 C2.68 7 1.36 7 0 7 C0 4.69 0 2.38 0 0 Z " fill="#487EDC" transform="translate(216,8)"/>
</svg>
