<?xml version="1.0" encoding="UTF-8"?>
<svg version="1.1" xmlns="http://www.w3.org/2000/svg" width="800" height="800">
<path d="M0 0 C264 0 528 0 800 0 C800 264 800 528 800 800 C536 800 272 800 0 800 C0 536 0 272 0 0 Z " fill="#FEFEFE" transform="translate(0,0)"/>
<path d="M0 0 C1.35913368 -0.00433477 2.71826184 -0.01085598 4.07737583 -0.01936007 C7.79295251 -0.0362866 11.5078512 -0.02221652 15.22339189 -0.00284529 C19.23776494 0.01262374 23.25205717 -0.00083093 27.26643372 -0.0105896 C35.12269614 -0.02509703 42.97869965 -0.01290174 50.83493752 0.00852364 C59.98716109 0.03256501 69.13932574 0.03081736 78.29157387 0.02821773 C94.62273523 0.0245296 110.95377478 0.04533597 127.28489685 0.07946777 C143.12607399 0.11256323 158.96712333 0.12672489 174.80833435 0.1204834 C192.06654765 0.11371703 209.32470746 0.11618623 226.58291286 0.1358428 C227.49578312 0.13688229 228.40865338 0.13792177 229.34918637 0.13899276 C231.18254308 0.14108362 233.01589976 0.14319459 234.84925641 0.14532593 C241.22658157 0.15221667 247.60389024 0.15289165 253.98121834 0.15144348 C261.75382481 0.15000273 269.52632717 0.1597139 277.29889912 0.18338984 C281.26344211 0.19523704 285.22784014 0.20238349 289.19239998 0.19655228 C292.82372544 0.19136905 296.45474501 0.20010858 300.0860182 0.21982688 C302.0172631 0.22678912 303.94854376 0.21913268 305.87978369 0.21090555 C314.61052516 0.27928167 322.00962328 1.14965318 328.48143005 7.62145996 C333.91274087 14.43874338 333.03989429 22.2200981 332.98936462 30.51902771 C332.99397512 32.16104373 333.00032903 33.80305561 333.0082736 35.44505888 C333.0249699 39.95173742 333.01671919 44.4580771 333.00432873 48.96475685 C332.99528173 53.82715962 333.00924628 58.68950396 333.02024841 63.55189514 C333.03804234 73.07544117 333.03418963 82.59886115 333.02259785 92.12241214 C333.01356672 99.86246235 333.01233815 107.60247723 333.01669312 115.3425312 C333.01730605 116.44386677 333.01791898 117.54520233 333.01855049 118.67991169 C333.01982938 120.91722111 333.02112623 123.15453053 333.02244085 125.39183993 C333.03384935 146.37543255 333.02072898 167.3589553 332.99923939 188.34253646 C332.98137066 206.34789948 332.98447015 224.35315935 333.00291443 242.35852051 C333.02432065 263.26514035 333.03274807 284.17169892 333.02046537 305.07832819 C333.01919117 307.3077431 333.01793369 309.53715802 333.01669312 311.76657295 C333.01576746 313.41196087 333.01576746 313.41196087 333.01482311 315.09058894 C333.01136928 322.8209406 333.01719932 330.5512534 333.02661133 338.28159904 C333.03783002 347.7029883 333.03479404 357.12424425 333.01348835 366.54561823 C333.00297586 371.3526901 332.99885953 376.15953972 333.01208496 380.96660995 C333.02401063 385.36782739 333.01744342 389.7686167 332.99617475 394.16979534 C332.9917094 395.76123448 332.99397348 397.35270983 333.0036779 398.94412564 C333.09804263 415.70568774 333.09804263 415.70568774 327.06959581 422.12478203 C322.33207841 426.3841344 317.97057279 427.87051696 311.69798374 427.87593555 C310.53524136 427.88176775 309.37249898 427.88759994 308.17452198 427.89360887 C306.26481512 427.88793988 306.26481512 427.88793988 304.31652832 427.88215637 C302.94705336 427.88517719 301.57758008 427.88906633 300.2081098 427.89374894 C296.44563866 427.9040466 292.68326263 427.90184264 288.92078364 427.89756835 C284.86276697 427.89510434 280.80477339 427.90411121 276.74676514 427.91160583 C268.79713149 427.92436374 260.8475316 427.92614518 252.89788944 427.92380557 C246.4373387 427.92202354 239.97679822 427.92376959 233.5162487 427.92803001 C232.59723856 427.9286252 231.67822841 427.92922039 230.73136948 427.92983362 C228.86448753 427.93104535 226.99760559 427.93225948 225.13072365 427.93347599 C207.61804881 427.94435565 190.10539321 427.94218697 172.59271728 427.93609115 C156.5665452 427.93092111 140.54043389 427.94217896 124.51427383 427.96118937 C108.06336028 427.98055423 91.61247549 427.98882618 75.16155046 427.98506612 C65.92369013 427.98315208 56.68588152 427.98566136 47.44803047 427.99978065 C39.58416004 428.01167818 31.72037319 428.01311765 23.85650165 428.00099049 C19.84361621 427.99509044 15.83088378 427.99403335 11.81800842 428.00599289 C8.14470622 428.01681328 4.47168546 428.01379449 0.79839664 427.99973121 C-1.16038064 427.99581435 -3.11917024 428.00666268 -5.07791847 428.01802808 C-12.13024203 427.9744164 -17.11108046 427.67129311 -22.56544495 422.78942871 C-23.1274762 422.13587402 -23.68950745 421.48231934 -24.26856995 420.80895996 C-25.12708557 419.84022949 -25.12708557 419.84022949 -26.00294495 418.85192871 C-29.37581595 413.88824483 -29.76569824 409.03004904 -29.74562073 403.14733887 C-29.74591278 402.42469849 -29.74620483 401.70205811 -29.74650574 400.95751953 C-29.7451211 398.58756168 -29.72960122 396.21792486 -29.71388245 393.84802246 C-29.71014923 392.19750134 -29.70730371 390.54697799 -29.70530701 388.89645386 C-29.69769487 384.56620087 -29.67806731 380.23608346 -29.65589905 375.90588379 C-29.63538836 371.48166741 -29.62629414 367.05742899 -29.6162262 362.63317871 C-29.594819 353.9625438 -29.56071246 345.29201877 -29.51856995 336.62145996 C-30.79928375 336.63256302 -32.07999756 336.64366608 -33.39952087 336.65510559 C-45.49299842 336.75664286 -57.58638902 336.83150297 -69.68019676 336.88052082 C-75.89717303 336.90656901 -82.11380406 336.94188067 -88.33058167 336.99865723 C-94.33471171 337.05314603 -100.33851051 337.08291642 -106.3428688 337.09584618 C-108.62893001 337.10505569 -110.91497393 337.12303971 -113.2008934 337.15011024 C-116.41313527 337.18662366 -119.62402369 337.19139585 -122.83644104 337.18908691 C-123.77296509 337.20706329 -124.70948914 337.22503967 -125.6743927 337.24356079 C-132.50794 337.1907163 -137.8247293 335.45603762 -143.51856995 331.62145996 C-149.31415413 325.68392833 -149.66764119 319.98197116 -149.67247009 312.07000732 C-149.67685235 311.19835395 -149.6812346 310.32670057 -149.68574965 309.42863345 C-149.69912436 306.50234686 -149.70531351 303.57609038 -149.71144104 300.64978027 C-149.71934296 298.55382145 -149.72761197 296.45786399 -149.73622131 294.36190796 C-149.76242784 287.47448015 -149.77774617 280.58704631 -149.79200745 273.69958496 C-149.79736742 271.32855984 -149.80274493 268.95753475 -149.8081398 266.5865097 C-149.82976522 256.72468721 -149.84850251 246.86286635 -149.85976219 237.00102615 C-149.87600608 222.86686536 -149.90919869 208.73297925 -149.96616304 194.59892201 C-150.00485182 184.66079428 -150.02439356 174.72274006 -150.02968276 164.78453898 C-150.03333721 158.84855675 -150.04536932 152.91286759 -150.07778549 146.97696686 C-150.1078476 141.39219448 -150.11418433 135.80789281 -150.10240173 130.22305679 C-150.10218086 128.17522299 -150.11049755 126.12736746 -150.12805557 124.07960892 C-150.15075493 121.27945621 -150.14244869 118.48100937 -150.12657166 115.68084717 C-150.14739479 114.47089958 -150.14739479 114.47089958 -150.16863859 113.23650861 C-150.08518116 107.24550578 -148.22471712 103.30423912 -144.51856995 98.62145996 C-138.24684797 92.66332409 -132.58214402 92.33271402 -124.31227112 92.39440918 C-122.77498856 92.3939711 -122.77498856 92.3939711 -121.20664978 92.39352417 C-117.82485946 92.39491563 -114.44329045 92.41046839 -111.0615387 92.42614746 C-108.71456014 92.42987824 -106.36758003 92.43272491 -104.02059937 92.4347229 C-97.84743439 92.44235422 -91.67436372 92.46199852 -85.50123596 92.48413086 C-79.20038631 92.50460001 -72.8995214 92.51372691 -66.59864807 92.52380371 C-54.23858062 92.54524479 -41.87858313 92.57937479 -29.51856995 92.62145996 C-29.5285627 91.25749084 -29.5285627 91.25749084 -29.53875732 89.8659668 C-29.59900119 81.27425895 -29.64461172 72.68262259 -29.67400646 64.09075165 C-29.6896269 59.67413788 -29.71079858 55.25769942 -29.74488831 50.84118652 C-29.77761151 46.57475575 -29.79545017 42.30849305 -29.80320168 38.04194641 C-29.80872201 36.41853695 -29.8195017 34.79513614 -29.83576012 33.17179871 C-29.92587643 23.79667356 -29.89375158 16.20349112 -24.89356995 7.93395996 C-17.42924589 0.66606549 -10.10251875 -0.10129509 0 0 Z " fill="#117A43" transform="translate(308.51856994628906,185.3785400390625)"/>
<path d="M0 0 C1.93681161 -0.08107583 3.8745934 -0.13922475 5.8125 -0.1875 C6.89144531 -0.22230469 7.97039062 -0.25710938 9.08203125 -0.29296875 C12 0 12 0 13.86417103 1.24715137 C15.26776829 3.41322884 15.37025717 4.6603075 15.36076355 7.233078 C15.36694954 8.52662956 15.36694954 8.52662956 15.3732605 9.84631348 C15.36247467 10.78930298 15.35168884 11.73229248 15.34057617 12.70385742 C15.34101425 13.6991597 15.34145233 14.69446198 15.34190369 15.71992493 C15.33981084 19.01530458 15.31645601 22.31017778 15.29296875 25.60546875 C15.28737457 27.88804344 15.28310363 30.17062172 15.28010559 32.45320129 C15.26864285 38.46534137 15.23916319 44.47726455 15.20599365 50.48931885 C15.17532366 56.62240667 15.16160681 62.75552949 15.14648438 68.88867188 C15.11429502 80.92587663 15.06308127 92.96292029 15 105 C19.95 105.33 24.9 105.66 30 106 C30.33 104.35 30.66 102.7 31 101 C32.65 101 34.3 101 36 101 C36.33 102.65 36.66 104.3 37 106 C44.59 106 52.18 106 60 106 C60 105.34 60 104.68 60 104 C60.99 104 61.98 104 63 104 C63 104.66 63 105.32 63 106 C62.34 106 61.68 106 61 106 C61 106.66 61 107.32 61 108 C61.66 107.67 62.32 107.34 63 107 C64.51274017 106.9277152 66.02865234 106.91619868 67.54296875 106.9375 C68.45240234 106.94523437 69.36183594 106.95296875 70.29882812 106.9609375 C72.20508171 106.9867151 74.11133183 107.0127513 76.01757812 107.0390625 C76.93345703 107.04679687 77.84933594 107.05453125 78.79296875 107.0625 C79.6233667 107.07410156 80.45376465 107.08570313 81.30932617 107.09765625 C84.12334829 107.04470346 84.12334829 107.04470346 87.36987305 106.50439453 C91.0588143 105.99182794 94.56648716 105.87060047 98.2890625 105.8671875 C98.95537689 105.86623077 99.62169128 105.86527405 100.30819702 105.86428833 C101.70481461 105.86361291 103.10143546 105.86542225 104.49804688 105.86962891 C106.62637397 105.87500347 108.75449171 105.86965347 110.8828125 105.86328125 C112.24739629 105.86394181 113.61197996 105.86522252 114.9765625 105.8671875 C116.20455566 105.86831543 117.43254883 105.86944336 118.69775391 105.87060547 C121.60353011 105.98446481 124.17351692 106.36424649 127 107 C127.66 107 128.32 107 129 107 C166.33333333 107 203.66666667 107 241 107 C241.09345744 132.67779169 241.16398621 158.35555788 241.20724869 184.03348541 C241.22787047 195.95630073 241.2559839 207.87901034 241.30175781 219.80175781 C241.34163713 230.1940949 241.3674356 240.58635544 241.37635398 250.97876692 C241.38156683 256.48106329 241.39381123 261.98314066 241.42292023 267.48536682 C241.45010645 272.66621023 241.45843842 277.84674477 241.45243073 283.02765274 C241.45352952 284.92712712 241.46146419 286.82661202 241.4768219 288.72602463 C241.49680016 291.32476558 241.49191093 293.92234896 241.48101807 296.52111816 C241.49266943 297.2682232 241.5043208 298.01532823 241.51632524 298.7850728 C241.4484865 304.79569653 239.72139562 310.04566073 235.58806062 314.53279734 C230.80468196 318.74125913 226.50269278 320.2490453 220.21655369 320.25447559 C219.05381131 320.26030779 217.89106893 320.26613998 216.69309193 320.27214891 C214.78338507 320.26647992 214.78338507 320.26647992 212.83509827 320.26069641 C211.46562331 320.26371723 210.09615003 320.26760637 208.72667974 320.27228898 C204.96420861 320.28258663 201.20183258 320.28038268 197.43935359 320.27610838 C193.38133691 320.27364438 189.32334333 320.28265125 185.26533508 320.29014587 C177.31570144 320.30290378 169.36610155 320.30468522 161.41645939 320.30234561 C154.95590865 320.30056358 148.49536816 320.30230962 142.03481865 320.30657005 C141.1158085 320.30716524 140.19679836 320.30776043 139.24993942 320.30837366 C137.38305748 320.30958539 135.51617554 320.31079952 133.64929359 320.31201603 C116.13661875 320.32289569 98.62396316 320.32072701 81.11128723 320.31463119 C65.08511515 320.30946115 49.05900383 320.320719 33.03284378 320.33972941 C16.58193022 320.35909427 0.13104544 320.36736621 -16.31987959 320.36360615 C-25.55773993 320.36169212 -34.79554853 320.3642014 -44.03339958 320.37832069 C-51.89727001 320.39021822 -59.76105686 320.39165769 -67.62492841 320.37953053 C-71.63781384 320.37363048 -75.65054627 320.37257339 -79.66342163 320.38453293 C-83.33672383 320.39535332 -87.00974459 320.39233453 -90.68303341 320.37827124 C-92.6418107 320.37435439 -94.6006003 320.38520272 -96.55934852 320.39656812 C-103.63923632 320.35278598 -108.68628224 320.08368482 -114.08203125 315.0625 C-114.65308594 314.381875 -115.22414063 313.70125 -115.8125 313 C-116.39644531 312.319375 -116.98039062 311.63875 -117.58203125 310.9375 C-120.41930731 307.06067101 -120.13678429 303.17922452 -120.11352539 298.59106445 C-120.11367142 297.83960144 -120.11381744 297.08813843 -120.1139679 296.31390381 C-120.11327129 293.83033358 -120.10549067 291.34683837 -120.09765625 288.86328125 C-120.09579118 287.14121034 -120.09436769 285.41913889 -120.09336853 283.69706726 C-120.0895504 279.16460709 -120.07972611 274.63217896 -120.06866455 270.09973145 C-120.05843531 265.47469516 -120.05386766 260.84965371 -120.04882812 256.22460938 C-120.03810323 247.1497255 -120.02103523 238.07486542 -120 229 C-118.71262436 228.99413376 -117.42524872 228.98826752 -116.09886169 228.98222351 C-103.96009958 228.92498353 -91.8215164 228.85221492 -79.68293667 228.76428509 C-73.44252758 228.71957855 -67.20218383 228.68032279 -60.96166992 228.65356445 C-54.93800075 228.62753469 -48.91458293 228.58713396 -42.89106941 228.53681374 C-40.59424023 228.52014293 -38.29736757 228.50863 -36.00048637 228.50238609 C-32.78057446 228.49274764 -29.56130595 228.46469017 -26.34155273 228.43237305 C-25.39424286 228.43380814 -24.44693298 228.43524323 -23.47091675 228.4367218 C-16.94247053 228.34419879 -12.10875728 227.39818418 -6.8125 223.3125 C-2.00445072 217.1780923 -0.40670581 211.66467783 -0.48101807 203.95166016 C-0.47351681 203.0750281 -0.46601556 202.19839605 -0.458287 201.29519939 C-0.438089 198.37624235 -0.446097 195.45806793 -0.45410156 192.5390625 C-0.44536227 190.43937923 -0.43487525 188.33970261 -0.42277527 186.24003601 C-0.39493846 180.5526215 -0.39151009 174.86542456 -0.39249516 169.17795181 C-0.38936409 163.22950632 -0.36374179 157.28115853 -0.34051514 151.33276367 C-0.29996657 140.07429538 -0.27961706 128.81588499 -0.26654124 117.55735493 C-0.25066738 104.73753065 -0.21225005 91.91780485 -0.17194796 79.09803772 C-0.0895646 52.73205821 -0.03546267 26.36608142 0 0 Z " fill="#175634" transform="translate(400,293)"/>
<path d="M0 0 C41.77646852 -0.0686611 83.55293053 -0.12152624 125.32944429 -0.15319599 C130.26113352 -0.15694812 135.19282265 -0.16083109 140.12451172 -0.16479492 C141.1063255 -0.16558185 142.08813927 -0.16636878 143.09970498 -0.16717956 C158.99873955 -0.18023478 174.89774159 -0.20388927 190.79675686 -0.23145839 C207.10965248 -0.25950934 223.42253105 -0.27617561 239.73544979 -0.28226548 C249.80202938 -0.28638256 259.86851702 -0.29938782 269.93506831 -0.3237494 C276.8373392 -0.33960274 283.73956252 -0.34440126 290.64185029 -0.34050413 C294.6245785 -0.33858196 298.60714599 -0.34153625 302.58984566 -0.35761642 C306.23814998 -0.3722388 309.88618582 -0.37293733 313.53450263 -0.36269668 C315.47514969 -0.36083336 317.41579371 -0.37375114 319.35639477 -0.38724393 C328.11113028 -0.34223974 335.50885019 0.50885019 342 7 C345.62919172 12.35372374 346.57939747 16.03600128 346.48101807 22.43455505 C346.48443577 23.2572465 346.48785347 24.07993795 346.49137473 24.92755944 C346.49793639 27.67008418 346.4760064 30.41161895 346.45410156 33.15405273 C346.45297271 35.12550331 346.45360768 37.09695556 346.45587158 39.06840515 C346.45701818 44.4109433 346.43351731 49.75312147 346.40557575 55.09557605 C346.38055331 60.6822748 346.37821942 66.26898201 346.37347412 71.85572815 C346.36104686 82.43078236 346.32822849 93.00567097 346.28807616 103.5806523 C346.23498622 117.87360072 346.21341098 132.16659449 346.19006729 146.45961666 C346.15246703 168.9732018 346.07277438 191.48643747 346 214 C310.03 214.33 274.06 214.66 237 215 C237 215.33 237 215.66 237 216 C233.7 216 230.4 216 227 216 C226.67 215.34 226.34 214.68 226 214 C221.92896481 213.9749534 217.85796054 213.95697911 213.78686523 213.94506836 C212.40697446 213.94009376 211.02708879 213.93331168 209.6472168 213.92456055 C202.18463859 213.87847852 194.85163362 213.99811861 187.4284668 214.77954102 C183.80012872 215.10892568 180.2016073 215.07184812 176.5625 215 C170.70787356 214.83727797 170.70787356 214.83727797 165 216 C165.33 215.01 165.66 214.02 166 213 C166.66 213 167.32 213 168 213 C168 212.34 168 211.68 168 211 C167.39671875 210.99742187 166.7934375 210.99484375 166.171875 210.9921875 C161.74424908 210.77794754 159.66587092 210.66587092 156.4375 207.4375 C154.73933052 203.37665993 154.12721222 200.32937304 155 196 C156.85682004 192.60650131 158.92600912 189.40573199 162 187 C162.99 187 163.98 187 165 187 C165 125.62 165 64.24 165 1 C110.55 1 56.1 1 0 1 C0 0.67 0 0.34 0 0 Z " fill="#21A364" transform="translate(295,186)"/>
<path d="M0 0 C1.65 0 3.3 0 5 0 C5.33 1.65 5.66 3.3 6 5 C13.59 5 21.18 5 29 5 C29 4.34 29 3.68 29 3 C29.99 3 30.98 3 32 3 C32 3.66 32 4.32 32 5 C31.34 5 30.68 5 30 5 C30 5.66 30 6.32 30 7 C30.66 6.67 31.32 6.34 32 6 C33.51274017 5.9277152 35.02865234 5.91619868 36.54296875 5.9375 C37.45240234 5.94523437 38.36183594 5.95296875 39.29882812 5.9609375 C41.20508171 5.9867151 43.11133183 6.0127513 45.01757812 6.0390625 C46.39139648 6.05066406 46.39139648 6.05066406 47.79296875 6.0625 C49.03856567 6.07990234 49.03856567 6.07990234 50.30932617 6.09765625 C53.12334829 6.04470346 53.12334829 6.04470346 56.36987305 5.50439453 C60.0588143 4.99182794 63.56648716 4.87060047 67.2890625 4.8671875 C67.95537689 4.86623077 68.62169128 4.86527405 69.30819702 4.86428833 C70.70481461 4.86361291 72.10143546 4.86542225 73.49804688 4.86962891 C75.62637397 4.87500347 77.75449171 4.86965347 79.8828125 4.86328125 C81.24739629 4.86394181 82.61197996 4.86522252 83.9765625 4.8671875 C85.20455566 4.86831543 86.43254883 4.86944336 87.69775391 4.87060547 C90.60353011 4.98446481 93.17351692 5.36424649 96 6 C96.66 6 97.32 6 98 6 C135.33333333 6 172.66666667 6 210 6 C210 43.29 210 80.58 210 119 C209.67 119 209.34 119 209 119 C208.67 117.02 208.34 115.04 208 113 C207.10178402 113.00184359 206.20356804 113.00368717 205.27813339 113.00558662 C183.43734768 113.04972712 161.59656965 113.08283779 139.75574875 113.10362434 C129.19375763 113.11394336 118.63179625 113.12801565 108.06982422 113.15087891 C98.86558966 113.17079363 89.66137664 113.18371188 80.45712113 113.18817699 C75.58212255 113.19078762 70.70718559 113.19693674 65.83220673 113.21146011 C61.24567592 113.22501372 56.65923226 113.22922714 52.07268333 113.22621536 C50.38762374 113.22676652 48.7025613 113.23075717 47.017519 113.23841095 C44.71980322 113.24833749 42.42241799 113.24597735 40.12469482 113.24050903 C38.19446032 113.24327441 38.19446032 113.24327441 36.22523117 113.24609566 C33.19062748 113.0145455 31.47292579 112.7314796 29 111 C27.65505894 107.06148443 27.88521386 102.98259425 27.90234375 98.85473633 C27.90380402 98.1549617 27.90526428 97.45518707 27.9067688 96.73420715 C27.91056049 95.22225546 27.91666185 93.71030815 27.92483521 92.19837379 C27.93763256 89.80726354 27.94412252 87.41620894 27.94897461 85.02507019 C27.96038109 79.95418839 27.97964042 74.88335272 28 69.8125 C28.02358205 63.92572551 28.04396509 58.03897688 28.05593872 52.15216637 C28.06243435 49.79336954 28.074939 47.43465233 28.08764648 45.07588196 C28.09127748 43.63628204 28.0946294 42.19668139 28.09765625 40.75708008 C28.10289307 39.49753006 28.10812988 38.23798004 28.11352539 36.94026184 C28.20493885 34.06623443 28.20493885 34.06623443 27 32 C26.90345136 30.21038895 26.86924549 28.41721235 26.8671875 26.625 C26.86589844 25.55765625 26.86460937 24.4903125 26.86328125 23.390625 C26.86714844 22.27171875 26.87101562 21.1528125 26.875 20 C26.86919922 18.32164062 26.86919922 18.32164062 26.86328125 16.609375 C26.86457031 15.54203125 26.86585938 14.4746875 26.8671875 13.375 C26.86831543 12.39273437 26.86944336 11.41046875 26.87060547 10.3984375 C27 8 27 8 28 6 C25.36 6.33 22.72 6.66 20 7 C20.20625 7.78375 20.4125 8.5675 20.625 9.375 C20.74875 10.24125 20.8725 11.1075 21 12 C19 14 19 14 15.9609375 14.1953125 C14.77757812 14.17210937 13.59421875 14.14890625 12.375 14.125 C11.18648438 14.10695313 9.99796875 14.08890625 8.7734375 14.0703125 C7.85820312 14.04710937 6.94296875 14.02390625 6 14 C6.33 17.96 6.66 21.92 7 26 C8.98 26 10.96 26 13 26 C13.33 23.69 13.66 21.38 14 19 C15.65 18.67 17.3 18.34 19 18 C21.49000915 21.73501372 21.27651829 23.52983452 20.65234375 27.8359375 C20 30 20 30 17.5625 32.5625 C13.0967431 34.36447208 8.6818633 35.5655676 4 34 C0.10559067 30.00741228 -1.29441522 27.30290794 -1.48828125 21.72265625 C-1.45540073 19.83531427 -1.39628327 17.94826808 -1.3125 16.0625 C-1.28994141 15.09248047 -1.26738281 14.12246094 -1.24414062 13.12304688 C-1.18561887 10.74706346 -1.10370509 8.37436802 -1 6 C-2.65 6.33 -4.3 6.66 -6 7 C-5.79375 7.598125 -5.5875 8.19625 -5.375 8.8125 C-5 11 -5 11 -7 14 C-10.125 14.1875 -10.125 14.1875 -13 14 C-13.04898437 14.91523438 -13.09796875 15.83046875 -13.1484375 16.7734375 C-13.22320312 17.96195312 -13.29796875 19.15046875 -13.375 20.375 C-13.47941406 22.15003906 -13.47941406 22.15003906 -13.5859375 23.9609375 C-14 27 -14 27 -16 29 C-16.08097324 26.72975032 -16.13917704 24.45867925 -16.1875 22.1875 C-16.22230469 20.92292969 -16.25710938 19.65835937 -16.29296875 18.35546875 C-16 15 -16 15 -14.6875 13.0625 C-12.15588663 11.46852121 -9.91422715 11.80571819 -7 12 C-7 10.68 -7 9.36 -7 8 C-11.455 8.495 -11.455 8.495 -16 9 C-16 7.35 -16 5.7 -16 4 C-11.05 4.33 -6.1 4.66 -1 5 C-0.67 3.35 -0.34 1.7 0 0 Z " fill="#107B43" transform="translate(431,394)"/>
<path d="M0 0 C41.77646852 -0.0686611 83.55293053 -0.12152624 125.32944429 -0.15319599 C130.26113352 -0.15694812 135.19282265 -0.16083109 140.12451172 -0.16479492 C141.1063255 -0.16558185 142.08813927 -0.16636878 143.09970498 -0.16717956 C158.99873955 -0.18023478 174.89774159 -0.20388927 190.79675686 -0.23145839 C207.10965248 -0.25950934 223.42253105 -0.27617561 239.73544979 -0.28226548 C249.80202938 -0.28638256 259.86851702 -0.29938782 269.93506831 -0.3237494 C276.8373392 -0.33960274 283.73956252 -0.34440126 290.64185029 -0.34050413 C294.6245785 -0.33858196 298.60714599 -0.34153625 302.58984566 -0.35761642 C306.23814998 -0.3722388 309.88618582 -0.37293733 313.53450263 -0.36269668 C315.47514969 -0.36083336 317.41579371 -0.37375114 319.35639477 -0.38724393 C328.11113028 -0.34223974 335.50885019 0.50885019 342 7 C345.89725979 12.63054206 346.56786611 16.6617899 346.45410156 23.42358398 C346.4545837 24.35617318 346.45506584 25.28876238 346.45556259 26.24961185 C346.45259254 29.24883629 346.42220494 32.24704874 346.390625 35.24609375 C346.38473902 37.10550458 346.38066129 38.96492203 346.37841797 40.82434082 C346.3575025 47.69549538 346.3016573 54.56650778 346.25 61.4375 C346.1675 76.803125 346.085 92.16875 346 108 C286.27 107.67 226.54 107.34 165 107 C165 72.02 165 37.04 165 1 C110.55 1 56.1 1 0 1 C0 0.67 0 0.34 0 0 Z " fill="#34C481" transform="translate(295,186)"/>
<path d="M0 0 C0.69116335 -0.0034177 1.38232669 -0.0068354 2.09443438 -0.01035666 C4.39790902 -0.01691706 6.70020427 0.00500806 9.00357056 0.0269165 C10.65960665 0.02804539 12.31564475 0.02741032 13.97167969 0.02514648 C18.45896066 0.02400001 22.94581292 0.04749853 27.43299437 0.07544231 C32.12549376 0.10046701 36.81800325 0.10279881 41.51055908 0.10754395 C50.39277853 0.11997058 59.27480077 0.15278798 68.15693343 0.1929419 C80.16201608 0.24603449 92.16715276 0.26760761 104.17232323 0.29095078 C123.08187757 0.32854959 141.99101578 0.40824246 160.90054321 0.48101807 C160.90054321 35.46101807 160.90054321 70.44101807 160.90054321 106.48101807 C146.05054321 106.48101807 131.20054321 106.48101807 115.90054321 106.48101807 C110.90054321 98.48101807 110.90054321 98.48101807 110.90054321 96.48101807 C110.15804321 96.21289307 109.41554321 95.94476807 108.65054321 95.66851807 C105.90054321 94.48101807 105.90054321 94.48101807 104.30622864 92.95024109 C100.59624539 90.68444493 96.93401961 90.89788753 92.65957642 90.78594971 C91.73343442 90.75243188 90.80729242 90.71891405 89.85308552 90.68438053 C78.82101957 90.33334531 67.79051556 90.45943264 56.75601196 90.60211182 C54.52158678 90.62649522 52.28715559 90.65033418 50.05271912 90.67366028 C44.24801655 90.7356855 38.44342395 90.80497087 32.63882446 90.87591553 C26.68509819 90.94734878 20.73129561 91.01171262 14.77749634 91.07672119 C3.15176139 91.20467767 -8.47386947 91.34032573 -20.09945679 91.48101807 C-20.1691307 81.97081911 -20.22235606 72.46070875 -20.2548933 62.95030975 C-20.27051375 58.53369598 -20.29168542 54.11725753 -20.32577515 49.70074463 C-20.35849835 45.43431385 -20.37633701 41.16805116 -20.38408852 36.90150452 C-20.38960885 35.27809506 -20.40038854 33.65469424 -20.41664696 32.03135681 C-20.60723967 12.20330903 -20.60723967 12.20330903 -13.09945679 4.48101807 C-8.5930469 0.94925235 -5.70306666 -0.01704953 0 0 Z " fill="#20A163" transform="translate(299.0994567871094,186.51898193359375)"/>
<path d="M0 0 C11.88 0 23.76 0 36 0 C42.71859952 12.57028297 49.183188 25.2552475 55.5625 38 C55.9710321 38.81456665 56.37956421 39.6291333 56.80047607 40.46838379 C57.97478021 42.8111008 59.14612048 45.15527351 60.31640625 47.5 C60.67329025 48.21178406 61.03017426 48.92356812 61.39787292 49.65692139 C62.76993169 52.41404303 64.02466641 55.07399923 65 58 C65.58265625 56.88367188 66.1653125 55.76734375 66.765625 54.6171875 C71.94233928 44.72648201 77.21701346 34.89536378 82.58007812 25.10449219 C87.135507 16.77854254 91.57974264 8.39848898 96 0 C106.89 0 117.78 0 129 0 C127.5751608 4.2745176 126.60055034 6.98967624 124.33984375 10.6328125 C123.80206299 11.50719971 123.26428223 12.38158691 122.71020508 13.2824707 C121.83271606 14.68952271 121.83271606 14.68952271 120.9375 16.125 C119.66886404 18.18334308 118.40065414 20.24194881 117.1328125 22.30078125 C116.4615332 23.38697754 115.79025391 24.47317383 115.09863281 25.59228516 C112.94265973 29.08680974 110.80866986 32.59445107 108.6796875 36.10546875 C108.31912262 36.69988266 107.95855774 37.29429657 107.58706665 37.90672302 C105.77202502 40.90046015 103.95997323 43.89597601 102.15087891 46.89331055 C98.96239045 52.1691141 95.7518434 57.42341092 92.40625 62.6015625 C91.61287231 63.84425903 91.61287231 63.84425903 90.8034668 65.11206055 C89.84109913 66.61305155 88.86432356 68.10494679 87.87036133 69.58520508 C85.4358288 73.30586748 85.4358288 73.30586748 85.51953125 77.58984375 C86.25236328 78.78287109 86.25236328 78.78287109 87 80 C87.50273437 80.95132813 88.00546875 81.90265625 88.5234375 82.8828125 C92.91395591 90.57085107 97.53451612 98.07907762 102.29223633 105.54516602 C106.4895419 112.14692525 110.54071533 118.82736558 114.54296875 125.54882812 C117.06500977 129.78225412 119.607018 134.00048444 122.19921875 138.19140625 C122.71154053 139.0208374 123.2238623 139.85026855 123.75170898 140.70483398 C124.73061972 142.28605316 125.71305716 143.86509591 126.69946289 145.44165039 C130 150.77969214 130 150.77969214 130 153 C118.45 153 106.9 153 95 153 C92.4425 148.00875 89.885 143.0175 87.25 137.875 C81.5053804 126.67907953 75.69550265 115.5409248 69.49316406 104.58935547 C69.04166992 103.78127441 68.59017578 102.97319336 68.125 102.140625 C67.54105469 101.11243652 67.54105469 101.11243652 66.9453125 100.06347656 C65.87701472 97.73154143 65.41352083 95.52401675 65 93 C64.34 93 63.68 93 63 93 C62.74202637 93.84949219 62.48405273 94.69898438 62.21826172 95.57421875 C60.93791771 99.1745769 59.31718947 102.46068993 57.5078125 105.8125 C57.16534988 106.45558105 56.82288727 107.09866211 56.470047 107.76123047 C55.35962501 109.84331274 54.24249021 111.92170415 53.125 114 C52.35849941 115.4334302 51.59230672 116.86702509 50.82641602 118.30078125 C44.6198497 129.90490635 38.32959276 141.46251446 32 153 C20.12 153 8.24 153 -4 153 C0.2746379 145.67204931 4.52558576 138.49751227 9.1875 131.4375 C14.11543493 123.91674399 18.9640743 116.35187953 23.74951172 108.73974609 C25.98329763 105.18846567 28.22253429 101.64204457 30.50390625 98.12109375 C31.09220215 97.21302979 31.09220215 97.21302979 31.69238281 96.28662109 C32.71562822 94.71160821 33.74239673 93.13888564 34.76953125 91.56640625 C38.01635304 86.48188017 40.98150206 81.22180443 44 76 C43.64921387 75.39865234 43.29842773 74.79730469 42.93701172 74.17773438 C41.86904407 72.34693268 40.80109328 70.51612115 39.7331543 68.68530273 C38.47953188 66.53630632 37.22578555 64.38738219 35.97192383 62.23852539 C32.73494036 56.69062035 29.49974514 51.14169344 26.26953125 45.58984375 C20.89586666 36.35792141 15.51333376 27.13433782 9.99902344 17.9855957 C7.6236901 14.04428926 5.26944378 10.0920916 2.9375 6.125 C2.36902344 5.15820312 1.80054688 4.19140625 1.21484375 3.1953125 C0 1 0 1 0 0 Z " fill="#FAFDFB" transform="translate(216,323)"/>
<path d="M0 0 C3.96 0 7.92 0 12 0 C15 3 15 3 15.36914349 4.99335003 C15.36499542 6.1395996 15.36499542 6.1395996 15.36076355 7.30900574 C15.36488754 8.18820175 15.36901154 9.06739777 15.3732605 9.97323608 C15.36247467 10.93492706 15.35168884 11.89661804 15.34057617 12.88745117 C15.34123329 14.4096653 15.34123329 14.4096653 15.34190369 15.96263123 C15.33981067 19.32293823 15.316455 22.68274871 15.29296875 26.04296875 C15.28737463 28.37038399 15.28310367 30.69780275 15.28010559 33.02522278 C15.26864237 39.15572841 15.23916229 45.28602136 15.20599365 51.41644287 C15.17532469 57.67017744 15.16160704 63.92394631 15.14648438 70.17773438 C15.11429417 82.45191644 15.06307984 94.72594055 15 107 C15.66 107.33 16.32 107.66 17 108 C14 111 14 111 11 114 C10.76518307 116.18292774 10.58636677 118.37203174 10.4375 120.5625 C10.35371094 121.76003906 10.26992188 122.95757812 10.18359375 124.19140625 C10.12300781 125.11824219 10.06242187 126.04507813 10 127 C7.36 127.33 4.72 127.66 2 128 C1.99191315 129.07297333 1.98382629 130.14594666 1.97549438 131.25143433 C1.89812558 141.34619381 1.81041008 151.44081697 1.71247292 161.53539848 C1.66245327 166.7255573 1.61612389 171.91569519 1.578125 177.10595703 C1.54134361 182.11160891 1.49500349 187.11708812 1.44193649 192.12259293 C1.42335443 194.03559475 1.40826068 195.94863364 1.39665604 197.86169052 C1.37985855 200.53411423 1.35083995 203.20613916 1.31884766 205.87841797 C1.31668747 206.67539093 1.31452728 207.47236389 1.31230164 208.29348755 C1.22810432 213.77189568 1.22810432 213.77189568 -1 216 C-0.67 144.72 -0.34 73.44 0 0 Z " fill="#074723" transform="translate(400,293)"/>
<path d="M0 0 C1.65 0 3.3 0 5 0 C5.33 1.65 5.66 3.3 6 5 C13.59 5 21.18 5 29 5 C29 4.34 29 3.68 29 3 C29.99 3 30.98 3 32 3 C32 3.66 32 4.32 32 5 C31.34 5 30.68 5 30 5 C30 5.66 30 6.32 30 7 C32.475 7.495 32.475 7.495 35 8 C35.02899599 11.77081722 35.04679729 15.54160583 35.0625 19.3125 C35.07087891 20.38435547 35.07925781 21.45621094 35.08789062 22.56054688 C35.09111328 23.58857422 35.09433594 24.61660156 35.09765625 25.67578125 C35.10289307 26.62364502 35.10812988 27.57150879 35.11352539 28.5480957 C35 31 35 31 34 34 C32.02 34 30.04 34 28 34 C26.70638006 31.41276011 26.87051051 29.51886997 26.8671875 26.625 C26.86589844 25.55765625 26.86460937 24.4903125 26.86328125 23.390625 C26.86714844 22.27171875 26.87101562 21.1528125 26.875 20 C26.86919922 18.32164062 26.86919922 18.32164062 26.86328125 16.609375 C26.86457031 15.54203125 26.86585938 14.4746875 26.8671875 13.375 C26.86831543 12.39273437 26.86944336 11.41046875 26.87060547 10.3984375 C27 8 27 8 28 6 C25.36 6.33 22.72 6.66 20 7 C20.20625 7.78375 20.4125 8.5675 20.625 9.375 C20.74875 10.24125 20.8725 11.1075 21 12 C19 14 19 14 15.9609375 14.1953125 C14.77757812 14.17210937 13.59421875 14.14890625 12.375 14.125 C11.18648438 14.10695313 9.99796875 14.08890625 8.7734375 14.0703125 C7.85820312 14.04710937 6.94296875 14.02390625 6 14 C6.33 17.96 6.66 21.92 7 26 C8.98 26 10.96 26 13 26 C13.33 23.69 13.66 21.38 14 19 C15.65 18.67 17.3 18.34 19 18 C21.49000915 21.73501372 21.27651829 23.52983452 20.65234375 27.8359375 C20 30 20 30 17.5625 32.5625 C13.0967431 34.36447208 8.6818633 35.5655676 4 34 C0.10559067 30.00741228 -1.29441522 27.30290794 -1.48828125 21.72265625 C-1.45540073 19.83531427 -1.39628327 17.94826808 -1.3125 16.0625 C-1.28994141 15.09248047 -1.26738281 14.12246094 -1.24414062 13.12304688 C-1.18561887 10.74706346 -1.10370509 8.37436802 -1 6 C-2.65 6.33 -4.3 6.66 -6 7 C-5.79375 7.598125 -5.5875 8.19625 -5.375 8.8125 C-5 11 -5 11 -7 14 C-10.125 14.1875 -10.125 14.1875 -13 14 C-13.04898437 14.91523438 -13.09796875 15.83046875 -13.1484375 16.7734375 C-13.22320312 17.96195312 -13.29796875 19.15046875 -13.375 20.375 C-13.47941406 22.15003906 -13.47941406 22.15003906 -13.5859375 23.9609375 C-14 27 -14 27 -16 29 C-16.08097324 26.72975032 -16.13917704 24.45867925 -16.1875 22.1875 C-16.22230469 20.92292969 -16.25710938 19.65835937 -16.29296875 18.35546875 C-16 15 -16 15 -14.6875 13.0625 C-12.15588663 11.46852121 -9.91422715 11.80571819 -7 12 C-7 10.68 -7 9.36 -7 8 C-11.455 8.495 -11.455 8.495 -16 9 C-16 7.35 -16 5.7 -16 4 C-11.05 4.33 -6.1 4.66 -1 5 C-0.67 3.35 -0.34 1.7 0 0 Z " fill="#347A54" transform="translate(431,394)"/>
<path d="M0 0 C0.66 0 1.32 0 2 0 C4.39769512 3.59654269 4.27316909 5.24364547 4.32479858 9.52464294 C4.33543347 10.19807674 4.34606835 10.87151054 4.3570255 11.56535143 C4.39030799 13.856623 4.40891178 16.14777202 4.42724609 18.43920898 C4.4473062 20.11469567 4.46799831 21.79017489 4.48926163 23.46564674 C4.54516812 28.15758095 4.58624678 32.84954542 4.62368441 37.54165959 C4.64865467 40.5850623 4.67703686 43.6284168 4.70624924 46.67178154 C5.29204375 108.85731707 4.93849381 171.04932426 4.6931549 233.23588161 C4.6423993 246.12200115 4.59785123 259.00813056 4.55761719 271.89428711 C4.51019848 287.07946681 4.45969513 302.26463032 4.40379179 317.44978136 C4.39785887 319.06244718 4.39192753 320.67511302 4.38599777 322.28777885 C4.38162019 323.47654138 4.38162019 323.47654138 4.37715418 324.6893193 C4.35690662 330.23997313 4.33879571 335.79063154 4.32149124 341.34129524 C4.30050231 348.04726881 4.27596454 354.75321827 4.24684478 361.45916165 C4.2321182 364.86895565 4.2189524 368.27873637 4.21003914 371.68855095 C4.19954822 375.37773488 4.18303975 379.06684337 4.16494751 382.7559967 C4.16328728 383.83292489 4.16162706 384.90985307 4.15991652 386.01941544 C4.15077981 387.49924649 4.15077981 387.49924649 4.14145851 389.00897312 C4.1382584 389.8583352 4.13505828 390.70769727 4.13176119 391.58279759 C3.99266525 394.13455835 3.55910651 396.50923948 3 399 C2.67 399 2.34 399 2 399 C1.99826375 398.16321518 1.9965275 397.32643035 1.99473864 396.46428841 C1.89179766 346.91251807 1.78370407 297.36076127 1.66888306 247.80901695 C1.65511284 241.86445866 1.64138584 235.91990026 1.62768555 229.9753418 C1.62495724 228.79184528 1.62222894 227.60834876 1.61941796 226.38898871 C1.57529606 207.20483683 1.5346786 188.02067905 1.49534739 168.83651682 C1.4549375 149.16410738 1.41078218 129.49170895 1.36312145 109.81931573 C1.33381128 97.67219991 1.30745201 85.52508495 1.28482103 73.37795482 C1.26904047 65.05771601 1.2496347 56.73749067 1.22733159 48.41726681 C1.2145563 43.6109384 1.20342395 38.8046204 1.19658089 33.99827957 C1.19028845 29.60334971 1.179473 25.20845571 1.1649667 20.8135455 C1.16051748 19.21862098 1.15776864 17.62369068 1.15683801 16.02876022 C1.15533687 13.87033898 1.14779335 11.71202267 1.1386652 9.55362225 C1.13600716 8.3518074 1.13334911 7.14999256 1.13061053 5.91175908 C1.12999993 2.93433563 1.12999993 2.93433563 0 0 Z " fill="#C8F0DD" transform="translate(639,197)"/>
<path d="M0 0 C0 0.99 0 1.98 0 3 C0.639375 3.639375 1.27875 4.27875 1.9375 4.9375 C5.87317028 8.87317028 5.18272905 13.7619695 5.1875 19.0625 C5.19974609 19.78244141 5.21199219 20.50238281 5.22460938 21.24414062 C5.23519011 25.0426247 5.15755655 26.76366518 3 30 C-1.875 29.125 -1.875 29.125 -3 28 C-3.15582303 26.65984779 -3.25044142 25.31241097 -3.31640625 23.96484375 C-3.35830078 23.15595703 -3.40019531 22.34707031 -3.44335938 21.51367188 C-3.48267578 20.66353516 -3.52199219 19.81339844 -3.5625 18.9375 C-3.60568359 18.08349609 -3.64886719 17.22949219 -3.69335938 16.34960938 C-3.79976702 14.23327963 -3.90041731 12.11666187 -4 10 C-5.32 10 -6.64 10 -8 10 C-8.09087891 11.68029297 -8.09087891 11.68029297 -8.18359375 13.39453125 C-8.26801424 14.86719984 -8.35266149 16.33985544 -8.4375 17.8125 C-8.47681641 18.55048828 -8.51613281 19.28847656 -8.55664062 20.04882812 C-8.74381035 23.23071342 -8.98720793 25.96162378 -10 29 C-11.98 29 -13.96 29 -16 29 C-17.5103701 24.4688897 -17.01654359 19.99261544 -16.9375 15.25 C-16.83881192 11.98701628 -16.83881192 11.98701628 -18 9 C-19.65 9 -21.3 9 -23 9 C-23.06058594 10.27617187 -23.12117188 11.55234375 -23.18359375 12.8671875 C-23.26799568 14.53647016 -23.35264386 16.20574037 -23.4375 17.875 C-23.49647461 19.13763672 -23.49647461 19.13763672 -23.55664062 20.42578125 C-23.59853516 21.23144531 -23.64042969 22.03710938 -23.68359375 22.8671875 C-23.72025146 23.61081543 -23.75690918 24.35444336 -23.79467773 25.12060547 C-24 27 -24 27 -25 29 C-26.66611905 29.042721 -28.33382885 29.04063832 -30 29 C-31.54538312 27.45461688 -31.12967467 25.99828899 -31.1328125 23.8515625 C-31.13410156 23.01109375 -31.13539063 22.170625 -31.13671875 21.3046875 C-31.13285156 20.42039062 -31.12898438 19.53609375 -31.125 18.625 C-31.12886719 17.7484375 -31.13273437 16.871875 -31.13671875 15.96875 C-31.13542969 15.12570312 -31.13414062 14.28265625 -31.1328125 13.4140625 C-31.13168457 12.6401416 -31.13055664 11.8662207 -31.12939453 11.06884766 C-30.92018753 7.72390401 -30.23261969 6.22471312 -27.81640625 3.890625 C-20.15635974 -1.25148666 -8.90508693 -0.28881363 0 0 Z " fill="#31915D" transform="translate(503,399)"/>
<path d="M0 0 C2.40367041 0.44070918 2.40367041 0.44070918 4.390625 -0.7734375 C11.62603747 -1.35693851 11.62603747 -1.35693851 14.765625 1.0390625 C17.47873992 4.69133259 18.64090958 6.57808445 18.5859375 11.11328125 C18.57949219 12.05107422 18.57304687 12.98886719 18.56640625 13.95507812 C18.54964844 14.93154297 18.53289062 15.90800781 18.515625 16.9140625 C18.50660156 17.90212891 18.49757813 18.89019531 18.48828125 19.90820312 C18.4647093 22.34790015 18.43180522 24.78710947 18.390625 27.2265625 C16.740625 27.5565625 15.090625 27.8865625 13.390625 28.2265625 C10.86287149 24.43493223 11.16619465 21.41782219 11.265625 17.0390625 C11.27464844 16.28947266 11.28367187 15.53988281 11.29296875 14.76757812 C11.31649922 12.92043596 11.35236939 11.07345838 11.390625 9.2265625 C10.730625 9.2265625 10.070625 9.2265625 9.390625 9.2265625 C9.390625 8.5665625 9.390625 7.9065625 9.390625 7.2265625 C8.070625 7.2265625 6.750625 7.2265625 5.390625 7.2265625 C5.36556885 7.79689209 5.3405127 8.36722168 5.31469727 8.95483398 C5.19905951 11.52482407 5.07618876 14.09441777 4.953125 16.6640625 C4.91380859 17.56189453 4.87449219 18.45972656 4.83398438 19.38476562 C4.79208984 20.23876953 4.75019531 21.09277344 4.70703125 21.97265625 C4.67037354 22.76341553 4.63371582 23.5541748 4.59594727 24.36889648 C4.390625 26.2265625 4.390625 26.2265625 3.390625 27.2265625 C0.890625 27.3515625 0.890625 27.3515625 -1.609375 27.2265625 C-3.12358501 25.71235249 -2.82247356 24.30183482 -2.92578125 22.19140625 C-2.98862305 20.97807617 -2.98862305 20.97807617 -3.05273438 19.74023438 C-3.09205078 18.89009766 -3.13136719 18.03996094 -3.171875 17.1640625 C-3.21505859 16.31005859 -3.25824219 15.45605469 -3.30273438 14.57617188 C-3.40914202 12.45984213 -3.50979231 10.34322437 -3.609375 8.2265625 C-5.259375 7.8965625 -6.909375 7.5665625 -8.609375 7.2265625 C-8.65835937 8.50273437 -8.70734375 9.77890625 -8.7578125 11.09375 C-8.83283691 12.76304322 -8.90838488 14.43231296 -8.984375 16.1015625 C-9.0153125 16.94332031 -9.04625 17.78507812 -9.078125 18.65234375 C-9.11679687 19.45800781 -9.15546875 20.26367188 -9.1953125 21.09375 C-9.24244385 22.20919189 -9.24244385 22.20919189 -9.29052734 23.34716797 C-9.609375 25.2265625 -9.609375 25.2265625 -11.609375 27.2265625 C-14.234375 27.3515625 -14.234375 27.3515625 -16.609375 27.2265625 C-16.66754123 23.80996759 -16.70302695 20.39350045 -16.734375 16.9765625 C-16.75113281 16.00847656 -16.76789063 15.04039062 -16.78515625 14.04296875 C-16.79160156 13.10839844 -16.79804688 12.17382812 -16.8046875 11.2109375 C-16.81516113 10.35209961 -16.82563477 9.49326172 -16.83642578 8.60839844 C-16.58723545 5.99431145 -16.0082234 4.43716233 -14.609375 2.2265625 C-9.74229835 -1.39254578 -5.70183443 -0.79451791 0 0 Z " fill="#167843" transform="translate(378.609375,400.7734375)"/>
<path d="M0 0 C0.33 0 0.66 0 1 0 C1 37.29 1 74.58 1 113 C0.67 113 0.34 113 0 113 C-0.33 111.02 -0.66 109.04 -1 107 C-58.75 107 -116.5 107 -176 107 C-176 106.34 -176 105.68 -176 105 C-118.25 104.67 -60.5 104.34 -1 104 C-0.505 52.52 -0.505 52.52 0 0 Z " fill="#146F3F" transform="translate(640,400)"/>
<path d="M0 0 C7.90331126 -0.61986755 7.90331126 -0.61986755 11.875 1.625 C16.77593054 7.1025106 17.41988007 11.84401324 17.1875 18.875 C17.16719727 20.050625 17.16719727 20.050625 17.14648438 21.25 C17.11141789 23.16696782 17.05762072 25.08357751 17 27 C15.02 27.99 15.02 27.99 13 29 C12.01 28.34 11.02 27.68 10 27 C9.61421076 23.55757292 9.51496513 20.22286498 9.47265625 16.765625 C9.4128648 14.83823009 9.21476063 12.91632566 9 11 C6.24104365 8.70362221 6.24104365 8.70362221 3.4375 9.25 C0.84999433 9.83808052 0.84999433 9.83808052 -1 12 C-1.02375926 13.9931567 -1.02375926 13.9931567 -0.625 16.125 C-0.41875 17.40375 -0.2125 18.6825 0 20 C2.31 20.66 4.62 21.32 7 22 C8.125 25.75 8.125 25.75 7 28 C1.79304044 28.31241757 -1.62483347 27.95069371 -6 25 C-7.90154147 21.29393448 -8.29667132 18.13656284 -8.3125 14 C-8.32925781 12.989375 -8.34601563 11.97875 -8.36328125 10.9375 C-7.94639654 7.56656124 -7.04214863 5.69544262 -5 3 C-2.3125 2.1875 -2.3125 2.1875 0 2 C0 1.34 0 0.68 0 0 Z " fill="#30935E" transform="translate(338,400)"/>
<path d="M0 0 C2.97 0.495 2.97 0.495 6 1 C6 1.33 6 1.66 6 2 C6.63808594 2.13277344 7.27617188 2.26554687 7.93359375 2.40234375 C8.75988281 2.57894531 9.58617187 2.75554687 10.4375 2.9375 C11.26121094 3.11152344 12.08492187 3.28554688 12.93359375 3.46484375 C15 4 15 4 16 5 C16.5625 7.5625 16.5625 7.5625 16 11 C13.69727384 14.11315163 11.19526751 16.80290506 8 19 C5.23046875 19.2265625 5.23046875 19.2265625 3 19 C2.92572162 15.65747276 2.93453047 13.1964086 4 10 C3.01 10.66 2.02 11.32 1 12 C0.41654524 14.95746492 0.41654524 14.95746492 1 18 C4.02065307 21.50395756 7.60600014 21.43040743 12 22 C12.66 22.66 13.32 23.32 14 24 C13.625 26.625 13.625 26.625 13 29 C1.18478865 29.86033092 1.18478865 29.86033092 -2.625 26.8125 C-6.5619405 22.15033361 -7.50542787 18.31163091 -7.39453125 12.29296875 C-6.70081156 8.26115232 -4.69877145 6.02005376 -2 3 C-1.34 3 -0.68 3 0 3 C0 2.01 0 1.02 0 0 Z " fill="#30935D" transform="translate(521,399)"/>
<path d="M0 0 C0.66 0 1.32 0 2 0 C2.66 8.25 3.32 16.5 4 25 C-2.75 29.5 -2.75 29.5 -8 29 C-7.01 29.66 -6.02 30.32 -5 31 C-5.99 31.33 -6.98 31.66 -8 32 C-7.34 32.66 -6.68 33.32 -6 34 C-10.40875955 33.49614177 -12.82550966 32.0886933 -16 29 C-17.28759766 26.64746094 -17.28759766 26.64746094 -18 24 C-17.18896484 21.70410156 -17.18896484 21.70410156 -15.7109375 19.390625 C-15.18113281 18.55402344 -14.65132812 17.71742188 -14.10546875 16.85546875 C-13.53441406 15.99566406 -12.96335938 15.13585937 -12.375 14.25 C-11.82714844 13.37472656 -11.27929688 12.49945313 -10.71484375 11.59765625 C-6.59762587 5.22929767 -6.59762587 5.22929767 -3.86962891 4.18261719 C-3.25265137 4.12235352 -2.63567383 4.06208984 -2 4 C-1.67 4.33 -1.34 4.66 -1 5 C-0.67 3.35 -0.34 1.7 0 0 Z " fill="#F0F2F0" transform="translate(266,395)"/>
<path d="M0 0 C2.89774524 0.39742135 2.89774524 0.39742135 4.96875 -0.84375 C7.78125 -1.21875 7.78125 -1.21875 10.96875 -0.84375 C13.54160724 1.328885 15.45871919 3.13618838 16.96875 6.15625 C17.05183638 7.53173156 17.07611016 8.91110796 17.06640625 10.2890625 C17.06318359 11.09472656 17.05996094 11.90039062 17.05664062 12.73046875 C17.04407227 13.99310547 17.04407227 13.99310547 17.03125 15.28125 C17.02673828 16.13074219 17.02222656 16.98023438 17.01757812 17.85546875 C17.00577874 19.95575909 16.98784306 22.0560133 16.96875 24.15625 C15.64875 24.15625 14.32875 24.15625 12.96875 24.15625 C12.90816406 22.89167969 12.84757812 21.62710937 12.78515625 20.32421875 C12.70074096 18.66405129 12.61609345 17.00389563 12.53125 15.34375 C12.49193359 14.51037109 12.45261719 13.67699219 12.41210938 12.81835938 C12.37021484 12.01591797 12.32832031 11.21347656 12.28515625 10.38671875 C12.24849854 9.64832764 12.21184082 8.90993652 12.17407227 8.14916992 C12.02032859 5.948755 12.02032859 5.948755 10.96875 3.15625 C8.65875 3.81625 6.34875 4.47625 3.96875 5.15625 C3.63875 11.09625 3.30875 17.03625 2.96875 23.15625 C1.64875 23.15625 0.32875 23.15625 -1.03125 23.15625 C-1.06863281 21.95226562 -1.10601562 20.74828125 -1.14453125 19.5078125 C-1.21017928 17.93225989 -1.27662701 16.35674046 -1.34375 14.78125 C-1.36630859 13.9871875 -1.38886719 13.193125 -1.41210938 12.375 C-1.50910075 10.29409419 -1.76119825 8.22183668 -2.03125 6.15625 C-4.9489 4.21115 -6.65662285 3.70348683 -10.03125 3.15625 C-11.13914535 7.20933333 -11.36856267 11.22736374 -11.59375 15.40625 C-11.63693359 16.15132813 -11.68011719 16.89640625 -11.72460938 17.6640625 C-11.83021725 19.494599 -11.93119201 21.32540176 -12.03125 23.15625 C-13.02125 23.15625 -14.01125 23.15625 -15.03125 23.15625 C-15.11245751 20.25984882 -15.17184421 17.36574088 -15.21875 14.46875 C-15.24388672 13.65212891 -15.26902344 12.83550781 -15.29492188 11.99414062 C-15.35295486 7.21609178 -15.18028871 4.02201907 -12.03125 0.15625 C-8.37032148 -1.67421426 -3.98151512 -0.38758112 0 0 Z " fill="#177945" transform="translate(489.03125,402.84375)"/>
<path d="M0 0 C3.96805236 0.4591135 7.84522465 0.39354652 11.8359375 0.328125 C11.8359375 0.658125 11.8359375 0.988125 11.8359375 1.328125 C9.85026042 1.81640625 7.86458333 2.3046875 5.87890625 2.79296875 C4.17910548 3.23823205 2.50291796 3.77246485 0.8359375 4.328125 C-0.1540625 3.668125 -1.1440625 3.008125 -2.1640625 2.328125 C-7.2240576 1.77405691 -7.2240576 1.77405691 -11.5390625 4.140625 C-14.59303365 8.25174 -14.46408536 12.58880008 -14.7265625 17.515625 C-14.76974609 18.26521484 -14.81292969 19.01480469 -14.85742188 19.78710938 C-14.96328935 21.63390875 -15.0641601 23.48099334 -15.1640625 25.328125 C-13.8440625 25.328125 -12.5240625 25.328125 -11.1640625 25.328125 C-11.19886719 24.21953125 -11.23367188 23.1109375 -11.26953125 21.96875 C-11.29767599 20.50522352 -11.32497542 19.04168061 -11.3515625 17.578125 C-11.37669922 16.84851563 -11.40183594 16.11890625 -11.42773438 15.3671875 C-11.47387886 11.98325896 -11.41730378 9.74953943 -9.65234375 6.8125 C-9.16121094 6.32265625 -8.67007812 5.8328125 -8.1640625 5.328125 C-2.4140625 6.078125 -2.4140625 6.078125 -0.1640625 8.328125 C-0.01888506 11.2374808 0.02224546 14.048071 -0.0390625 16.953125 C-0.04808594 17.75492187 -0.05710937 18.55671875 -0.06640625 19.3828125 C-0.09000027 21.36471023 -0.12587185 23.34645481 -0.1640625 25.328125 C0.8259375 24.998125 1.8159375 24.668125 2.8359375 24.328125 C2.92681641 22.52214844 2.92681641 22.52214844 3.01953125 20.6796875 C3.10393482 19.10415423 3.18858291 17.52863404 3.2734375 15.953125 C3.31275391 15.1590625 3.35207031 14.365 3.39257812 13.546875 C3.72265625 7.5546875 3.72265625 7.5546875 4.8359375 5.328125 C7.6484375 5.078125 7.6484375 5.078125 10.8359375 5.328125 C13.60764752 7.83307419 13.84750709 9.42917974 14.27734375 13.18359375 C14.33149373 14.62715295 14.37147681 16.07130215 14.3984375 17.515625 C14.4605646 20.14567233 14.60160905 22.7030531 14.8359375 25.328125 C15.4959375 25.658125 16.1559375 25.988125 16.8359375 26.328125 C16.5059375 19.068125 16.1759375 11.808125 15.8359375 4.328125 C15.1759375 4.328125 14.5159375 4.328125 13.8359375 4.328125 C13.5059375 3.338125 13.1759375 2.348125 12.8359375 1.328125 C13.8259375 1.328125 14.8159375 1.328125 15.8359375 1.328125 C19.98812875 5.84810941 19.17386998 11.39719022 19.0234375 17.140625 C19.00313477 18.60918945 19.00313477 18.60918945 18.98242188 20.10742188 C18.94719062 22.51489125 18.89793015 24.92122064 18.8359375 27.328125 C17.1859375 27.658125 15.5359375 27.988125 13.8359375 28.328125 C11.30818399 24.53649473 11.61150715 21.51938469 11.7109375 17.140625 C11.71996094 16.39103516 11.72898437 15.64144531 11.73828125 14.86914062 C11.76181172 13.02199846 11.79768189 11.17502088 11.8359375 9.328125 C11.1759375 9.328125 10.5159375 9.328125 9.8359375 9.328125 C9.8359375 8.668125 9.8359375 8.008125 9.8359375 7.328125 C8.5159375 7.328125 7.1959375 7.328125 5.8359375 7.328125 C5.81088135 7.89845459 5.7858252 8.46878418 5.76000977 9.05639648 C5.64437201 11.62638657 5.52150126 14.19598027 5.3984375 16.765625 C5.35912109 17.66345703 5.31980469 18.56128906 5.27929688 19.48632812 C5.23740234 20.34033203 5.19550781 21.19433594 5.15234375 22.07421875 C5.11568604 22.86497803 5.07902832 23.6557373 5.04125977 24.47045898 C4.8359375 26.328125 4.8359375 26.328125 3.8359375 27.328125 C1.3359375 27.453125 1.3359375 27.453125 -1.1640625 27.328125 C-2.67827251 25.81391499 -2.37716106 24.40339732 -2.48046875 22.29296875 C-2.54331055 21.07963867 -2.54331055 21.07963867 -2.60742188 19.84179688 C-2.64673828 18.99166016 -2.68605469 18.14152344 -2.7265625 17.265625 C-2.76974609 16.41162109 -2.81292969 15.55761719 -2.85742188 14.67773438 C-2.96382952 12.56140463 -3.06447981 10.44478687 -3.1640625 8.328125 C-4.8140625 7.998125 -6.4640625 7.668125 -8.1640625 7.328125 C-8.21304687 8.60429687 -8.26203125 9.88046875 -8.3125 11.1953125 C-8.38752441 12.86460572 -8.46307238 14.53387546 -8.5390625 16.203125 C-8.57 17.04488281 -8.6009375 17.88664062 -8.6328125 18.75390625 C-8.67148437 19.55957031 -8.71015625 20.36523438 -8.75 21.1953125 C-8.79713135 22.31075439 -8.79713135 22.31075439 -8.84521484 23.44873047 C-9.1640625 25.328125 -9.1640625 25.328125 -11.1640625 27.328125 C-13.7890625 27.453125 -13.7890625 27.453125 -16.1640625 27.328125 C-16.22222873 23.91153009 -16.25771445 20.49506295 -16.2890625 17.078125 C-16.30582031 16.11003906 -16.32257813 15.14195312 -16.33984375 14.14453125 C-16.34628906 13.20996094 -16.35273438 12.27539062 -16.359375 11.3125 C-16.36984863 10.45366211 -16.38032227 9.59482422 -16.39111328 8.70996094 C-16.14192295 6.09587395 -15.5629109 4.53872483 -14.1640625 2.328125 C-9.40254193 -1.21249286 -5.57896919 -0.70310297 0 0 Z " fill="#31935E" transform="translate(378.1640625,400.671875)"/>
<path d="M0 0 C3.99261815 0.5892919 6.14501799 1.85791893 9.35546875 4.34765625 C11.55187436 8.64497157 11.62558427 12.5756154 11.35546875 17.34765625 C11.02546875 18.33765625 10.69546875 19.32765625 10.35546875 20.34765625 C9.36546875 20.67765625 8.37546875 21.00765625 7.35546875 21.34765625 C7.52046875 20.83203125 7.68546875 20.31640625 7.85546875 19.78515625 C8.79679939 15.19616938 9.00666429 11.67836018 6.91796875 7.41015625 C3.65411051 4.7831484 1.5848802 4.67973908 -2.515625 4.9296875 C-4.83540881 5.25143671 -4.83540881 5.25143671 -7.20703125 6.97265625 C-9.42654458 10.63967827 -9.00435908 13.63847405 -8.14453125 17.72265625 C-7.97953125 18.25890625 -7.81453125 18.79515625 -7.64453125 19.34765625 C-6.32453125 19.01765625 -5.00453125 18.68765625 -3.64453125 18.34765625 C-3.64453125 17.68765625 -3.64453125 17.02765625 -3.64453125 16.34765625 C-2.65453125 16.34765625 -1.66453125 16.34765625 -0.64453125 16.34765625 C-0.31453125 15.35765625 0.01546875 14.36765625 0.35546875 13.34765625 C1.01546875 13.67765625 1.67546875 14.00765625 2.35546875 14.34765625 C2.35546875 15.33765625 2.35546875 16.32765625 2.35546875 17.34765625 C3.01546875 17.34765625 3.67546875 17.34765625 4.35546875 17.34765625 C3.69546875 15.36765625 3.03546875 13.38765625 2.35546875 11.34765625 C-0.61453125 10.85265625 -0.61453125 10.85265625 -3.64453125 10.34765625 C-3.64453125 9.35765625 -3.64453125 8.36765625 -3.64453125 7.34765625 C0.08458531 6.30697256 1.73804727 6.0255233 5.23046875 7.84765625 C7.35546875 10.34765625 7.35546875 10.34765625 8.04296875 13.66015625 C7.14426246 18.48049001 5.31872808 21.42507771 1.35546875 24.34765625 C-2.26953125 24.84765625 -2.26953125 24.84765625 -5.64453125 24.34765625 C-6.36640625 24.30640625 -7.08828125 24.26515625 -7.83203125 24.22265625 C-11.02062741 22.68333396 -12.06933563 20.4417905 -13.64453125 17.34765625 C-14.5349241 12.86898023 -14.03004939 10.05222389 -11.83203125 6.03515625 C-7.8746984 1.17329017 -6.35001686 -0.23825512 0 0 Z " fill="#35925F" transform="translate(463.64453125,372.65234375)"/>
<path d="M0 0 C0.33 0 0.66 0 1 0 C1.25324035 5.57128769 1.25324035 5.57128769 0.00806046 7.67926121 C-1.50559365 11.16396868 -1.27484285 14.64721072 -1.25396729 18.38182068 C-1.25864726 19.66184915 -1.25864726 19.66184915 -1.26342177 20.96773678 C-1.27140976 23.83199534 -1.26507496 26.69604253 -1.25878906 29.56030273 C-1.26149859 31.61186853 -1.2650593 33.66343336 -1.26940918 35.71499634 C-1.27854059 41.29138782 -1.27498566 46.86770543 -1.26865101 52.44409823 C-1.26359424 58.27540206 -1.26828163 64.10669947 -1.27142334 69.93800354 C-1.27506421 79.732525 -1.270261 89.52701632 -1.26074219 99.3215332 C-1.24986045 110.64934024 -1.2533807 121.97707527 -1.264395 133.30488056 C-1.27346803 143.02471039 -1.27475297 152.74451854 -1.26951766 162.46435124 C-1.26639767 168.27213379 -1.26598939 174.0798825 -1.27259064 179.88766289 C-1.27836357 185.34838739 -1.27436808 190.80901898 -1.26280212 196.26973343 C-1.26015514 198.27526889 -1.26092128 200.28081216 -1.26532745 202.28634453 C-1.27078283 205.02140086 -1.26394874 207.75615844 -1.25396729 210.49119568 C-1.25842873 211.28711119 -1.26289017 212.08302669 -1.26748681 212.90306085 C-1.23768822 217.10542451 -0.64092852 220.16184314 1 224 C0.67 224.99 0.34 225.98 0 227 C-2.76993899 221.47932856 -3.43172419 217.20596564 -3.38095093 211.07432556 C-3.3856309 210.19869778 -3.39031087 209.32306999 -3.39513266 208.42090803 C-3.40705865 205.49911799 -3.3976348 202.57779904 -3.38818359 199.65600586 C-3.39225032 197.5563581 -3.39759277 195.45671249 -3.40411377 193.35707092 C-3.41778018 187.66299583 -3.41249165 181.96908397 -3.40297651 176.27500606 C-3.39537748 170.31472635 -3.40242612 164.35446055 -3.40713501 158.3941803 C-3.41259141 148.38637789 -3.40540348 138.37864193 -3.39111328 128.37084961 C-3.37478257 116.80041843 -3.38007886 105.2301458 -3.3965925 93.65971845 C-3.41020528 83.7240955 -3.41212816 73.78852029 -3.40427649 63.85289103 C-3.39959943 57.91935124 -3.39897619 51.985886 -3.40888596 46.052351 C-3.41755042 40.47499223 -3.41154304 34.897838 -3.39420319 29.32050133 C-3.39023578 27.27345876 -3.39137671 25.22639898 -3.39799118 23.17936325 C-3.40618648 20.38557322 -3.39590934 17.59243902 -3.38095093 14.7986908 C-3.38764309 13.98827975 -3.39433526 13.1778687 -3.40123022 12.34289974 C-3.35078252 7.48673458 -2.57060848 4.26652307 0 0 Z " fill="#20724A" transform="translate(162,286)"/>
<path d="M0 0 C8.37818079 -0.64779748 15.1329193 -0.22249648 22 5 C25.03572611 8.39891682 26.8379305 11.44413276 27.3125 16 C27.209375 16.66 27.10625 17.32 27 18 C25 17 25 17 24 16 C21.98405418 15.76572222 19.961526 15.58663876 17.9375 15.4375 C16.83277344 15.35371094 15.72804688 15.26992188 14.58984375 15.18359375 C13.30787109 15.09271484 13.30787109 15.09271484 12 15 C11.67 15.99 11.34 16.98 11 18 C10.91363281 17.40832031 10.82726562 16.81664062 10.73828125 16.20703125 C9.75222407 10.66159044 8.5957118 7.61091642 4 4 C1.83379456 2.70480005 1.83379456 2.70480005 0 2 C0 1.34 0 0.68 0 0 Z " fill="#11623A" transform="translate(388,278)"/>
<path d="M0 0 C2.93087207 2.25451698 3.82814288 3.48442865 5 7 C5.07973476 8.33525717 5.10771338 9.67412083 5.09765625 11.01171875 C5.09443359 11.76904297 5.09121094 12.52636719 5.08789062 13.30664062 C5.07951172 14.09232422 5.07113281 14.87800781 5.0625 15.6875 C5.05798828 16.48478516 5.05347656 17.28207031 5.04882812 18.10351562 C5.0370585 20.06904257 5.01912348 22.03453085 5 24 C4.01 24 3.02 24 2 24 C1.97421875 22.97519531 1.9484375 21.95039063 1.921875 20.89453125 C1.86556942 19.53381301 1.80822263 18.17313757 1.75 16.8125 C1.73582031 16.13896484 1.72164063 15.46542969 1.70703125 14.77148438 C1.4735387 9.98488702 0.54611926 7.26599494 -3 4 C-6.66499128 4.12859619 -9.53421195 4.84473732 -13 6 C-12.67 9.96 -12.34 13.92 -12 18 C-9.36 18.66 -6.72 19.32 -4 20 C-4 21.32 -4 22.64 -4 24 C-8.31095008 23.7464147 -10.49714628 23.4154009 -13.875 20.625 C-16.89732083 16.89154486 -17.35152554 13.83635855 -17.28125 9.06640625 C-16.8101856 5.6053914 -15.26942471 3.57610372 -13 1 C-8.87029251 -1.63842423 -4.58040968 -1.34154258 0 0 Z " fill="#157944" transform="translate(348,403)"/>
<path d="M0 0 C1.95825873 -0.02694851 3.91662226 -0.04637218 5.875 -0.0625 C6.96554687 -0.07410156 8.05609375 -0.08570313 9.1796875 -0.09765625 C12 0 12 0 14 1 C14 1.66 14 2.32 14 3 C14.66 3 15.32 3 16 3 C16.9375 5.0625 16.9375 5.0625 17 8 C15.37394246 10.03148207 13.59859201 11.71122511 11.6640625 13.44921875 C9.89690262 14.9149951 9.89690262 14.9149951 9 17 C6.7421875 16.87109375 6.7421875 16.87109375 4 16 C1.9453125 13.34765625 1.9453125 13.34765625 0.125 10.0625 C-0.49117188 8.98097656 -1.10734375 7.89945312 -1.7421875 6.78515625 C-2.15726562 5.86605469 -2.57234375 4.94695312 -3 4 C-2.67 3.34 -2.34 2.68 -2 2 C-1.34 2 -0.68 2 0 2 C0 1.34 0 0.68 0 0 Z " fill="#177848" transform="translate(306,401)"/>
<path d="M0 0 C0.99 0 1.98 0 3 0 C3 1.98 3 3.96 3 6 C7.95 6 12.9 6 18 6 C18 7.32 18 8.64 18 10 C13.05 10 8.1 10 3 10 C3.185625 12.8771875 3.185625 12.8771875 3.375 15.8125 C3.44460938 16.89144531 3.51421875 17.97039062 3.5859375 19.08203125 C3.81195733 22.18626186 3.81195733 22.18626186 6 25 C9.06556598 25.73343428 9.06556598 25.73343428 12 26 C12 25.34 12 24.68 12 24 C12.66 24 13.32 24 14 24 C14.66 22.02 15.32 20.04 16 18 C16.66 18 17.32 18 18 18 C18.32469403 22.65394781 17.79790518 25.23358918 15 29 C11.84203893 30.57898053 8.39329364 30.81928171 5 30 C2.2578125 28.27734375 2.2578125 28.27734375 0 25 C-0.61649925 20.71375385 -0.46976804 16.50632239 -0.3125 12.1875 C-0.28994141 11.01767578 -0.26738281 9.84785156 -0.24414062 8.64257812 C-0.18532091 5.76041231 -0.10317141 2.88086319 0 0 Z " fill="#1C5B38" transform="translate(432,396)"/>
<path d="M0 0 C2.9375 1.5 2.9375 1.5 5 3 C4.72482232 7.67802059 2.66806114 9.74638753 -0.52734375 12.86328125 C-2 14 -2 14 -4 14 C-3.43454163 10.04179141 -2.19097652 7.3340947 0 4 C-2.64 4 -5.28 4 -8 4 C-9.20334599 8.33007285 -9.73691063 12.53618501 -9 17 C-5.57617132 20.3200763 -1.62840123 20.54623517 3 21 C2.67 22.32 2.34 23.64 2 25 C-5.97875423 25.78223081 -5.97875423 25.78223081 -9.9375 22.75 C-12.85022009 18.86637322 -14.27764502 16.27561094 -14.1875 11.375 C-14.17783203 10.21097656 -14.17783203 10.21097656 -14.16796875 9.0234375 C-14 7 -14 7 -13 5 C-12.34 5 -11.68 5 -11 5 C-10.67 4.01 -10.34 3.02 -10 2 C-6.27420911 -0.48386059 -4.41288598 -0.3804212 0 0 Z " fill="#167943" transform="translate(530,402)"/>
<path d="M0 0 C2.31 0.66 4.62 1.32 7 2 C7.02899599 5.77081722 7.04679729 9.54160583 7.0625 13.3125 C7.07087891 14.38435547 7.07925781 15.45621094 7.08789062 16.56054688 C7.09111328 17.58857422 7.09433594 18.61660156 7.09765625 19.67578125 C7.10289307 20.62364502 7.10812988 21.57150879 7.11352539 22.5480957 C7 25 7 25 6 28 C4.02 28 2.04 28 0 28 C-1.29361994 25.41276011 -1.12948949 23.51886997 -1.1328125 20.625 C-1.13410156 19.55765625 -1.13539063 18.4903125 -1.13671875 17.390625 C-1.13285156 16.27171875 -1.12898438 15.1528125 -1.125 14 C-1.12886719 12.88109375 -1.13273437 11.7621875 -1.13671875 10.609375 C-1.13542969 9.54203125 -1.13414062 8.4746875 -1.1328125 7.375 C-1.13168457 6.39273437 -1.13055664 5.41046875 -1.12939453 4.3984375 C-1 2 -1 2 0 0 Z " fill="#2E8457" transform="translate(459,400)"/>
<path d="M0 0 C0.33 2.31 0.66 4.62 1 7 C-0.65 7.66 -2.3 8.32 -4 9 C-3.67 9.99 -3.34 10.98 -3 12 C-2.90456331 14.10241416 -2.87014516 16.20792643 -2.875 18.3125 C-2.87242187 19.42238281 -2.86984375 20.53226562 -2.8671875 21.67578125 C-2.99472665 24.86801125 -3.40242227 27.86508827 -4 31 C-7.82715079 26.64496634 -11.04892824 22.34669128 -10.9609375 16.328125 C-10.71752915 13.86622342 -10.40743548 11.43970401 -10 9 C-10.99 9.495 -10.99 9.495 -12 10 C-10.66234568 3.55493827 -10.66234568 3.55493827 -7.6875 1.0625 C-4.89110811 -0.04305028 -2.9756394 -0.25505481 0 0 Z " fill="#F4F5F5" transform="translate(292,399)"/>
<path d="M0 0 C1.85695197 0.00138269 1.85695197 0.00138269 3.75141811 0.00279331 C4.43830934 0.00193889 5.12520056 0.00108446 5.83290666 0.00020415 C8.15150846 -0.00145262 10.47003908 0.00407389 12.7886343 0.00952244 C14.44393315 0.00980429 16.09923213 0.00964661 17.75453091 0.00907993 C22.26260324 0.00879189 26.7706492 0.01468964 31.27871537 0.02165389 C35.98461128 0.02788638 40.69050773 0.02849114 45.39640713 0.0296793 C54.31412025 0.03279293 63.23182118 0.04100673 72.14952892 0.05102879 C82.29929688 0.06218895 92.44906541 0.06770013 102.59883797 0.07272422 C123.48364344 0.08318932 144.36843791 0.10078937 165.25323391 0.12304783 C165.25323391 0.45304783 165.25323391 0.78304783 165.25323391 1.12304783 C164.41263078 1.12543618 163.57202765 1.12782454 162.70595169 1.13028526 C142.25837236 1.18940447 121.81091119 1.26493479 101.36346054 1.35876274 C91.47524804 1.4037408 81.58707173 1.44315083 71.69879055 1.46948338 C63.08081907 1.49244717 54.46296189 1.52582706 45.84508103 1.57174939 C41.28137523 1.59570346 36.71778279 1.61441791 32.15401554 1.62066174 C27.85874756 1.62670272 23.5637697 1.64666675 19.26860905 1.67732334 C17.69203613 1.68611941 16.11542532 1.6898229 14.53882885 1.68805599 C12.38574361 1.68640483 10.23354443 1.7030876 8.08058071 1.72432041 C6.27340557 1.73123386 6.27340557 1.73123386 4.42972183 1.73828697 C0.95090007 2.15966885 -0.85910589 3.2140969 -3.74676609 5.12304783 C-6.55926609 5.31054783 -6.55926609 5.31054783 -8.74676609 5.12304783 C-7.94239109 4.48367283 -7.13801609 3.84429783 -6.30926609 3.18554783 C-2.49005394 0.11154781 -2.49005394 0.11154781 0 0 Z " fill="#2C9C6C" transform="translate(294.74676609039307,186.87695217132568)"/>
<path d="M0 0 C0.33 1.32 0.66 2.64 1 4 C0.34 4 -0.32 4 -1 4 C-1 4.66 -1 5.32 -1 6 C1.31 5.34 3.62 4.68 6 4 C6 4.99 6 5.98 6 7 C4.35 7 2.7 7 1 7 C-0.51953709 11.91582077 -0.51953709 11.91582077 -1 17 C1.28705831 18.14352916 2.59264762 18.10334439 5.125 18.0625 C7.043125 18.0315625 7.043125 18.0315625 9 18 C7.875 19.5 7.875 19.5 6 21 C2.8125 21.1875 2.8125 21.1875 0 21 C0.99 21.66 1.98 22.32 3 23 C2.01 23.33 1.02 23.66 0 24 C0.66 24.66 1.32 25.32 2 26 C-2.40875955 25.49614177 -4.82550966 24.0886933 -8 21 C-9.44921875 18.87890625 -9.44921875 18.87890625 -10 16 C-8.75879087 12.97627341 -6.96603978 10.37695629 -5.125 7.6875 C-4.39603516 6.57665039 -4.39603516 6.57665039 -3.65234375 5.44335938 C-2.45078063 3.61745463 -1.2334201 1.80447141 0 0 Z " fill="#F4F3F3" transform="translate(258,403)"/>
<path d="M0 0 C4.28115853 4.77513836 7.03759841 10.36156231 10 16 C9.360625 16.103125 8.72125 16.20625 8.0625 16.3125 C7.381875 16.539375 6.70125 16.76625 6 17 C5.67 17.99 5.34 18.98 5 20 C4.34 20 3.68 20 3 20 C3 20.66 3 21.32 3 22 C2.01 22 1.02 22 0 22 C0 21.34 0 20.68 0 20 C-0.66 20 -1.32 20 -2 20 C-2 19.01 -2 18.02 -2 17 C-1.34 17 -0.68 17 0 17 C-0.350625 16.175 -0.70125 15.35 -1.0625 14.5 C-2.44874767 9.32467535 -1.7007979 5.10239371 0 0 Z " fill="#F0F4F3" transform="translate(303,405)"/>
<path d="M0 0 C1.32257813 0.08701172 1.32257813 0.08701172 2.671875 0.17578125 C3.56390625 0.22089844 4.4559375 0.26601563 5.375 0.3125 C6.05046875 0.37050781 6.7259375 0.42851562 7.421875 0.48828125 C7.421875 1.80828125 7.421875 3.12828125 7.421875 4.48828125 C4.34570312 4.78125 4.34570312 4.78125 1.26953125 5.07421875 C0.65980469 5.21085937 0.05007813 5.3475 -0.578125 5.48828125 C-0.908125 6.14828125 -1.238125 6.80828125 -1.578125 7.48828125 C-1.578125 6.49828125 -1.578125 5.50828125 -1.578125 4.48828125 C-2.568125 4.98328125 -2.568125 4.98328125 -3.578125 5.48828125 C-3.93637273 8.82134554 -4.02273269 12.13465575 -4.13671875 15.484375 C-4.28238281 16.47566406 -4.42804688 17.46695312 -4.578125 18.48828125 C-7.495775 20.43338125 -9.20349785 20.94104442 -12.578125 21.48828125 C-12.908125 22.47828125 -13.238125 23.46828125 -13.578125 24.48828125 C-10.608125 24.48828125 -7.638125 24.48828125 -4.578125 24.48828125 C-4.908125 25.14828125 -5.238125 25.80828125 -5.578125 26.48828125 C-8.548125 26.48828125 -11.518125 26.48828125 -14.578125 26.48828125 C-15.265625 24.17578125 -15.265625 24.17578125 -15.578125 21.48828125 C-14.515625 19.67578125 -14.515625 19.67578125 -12.578125 18.48828125 C-10.57869024 18.44073524 -8.57746071 18.436738 -6.578125 18.48828125 C-6.64773438 17.16763672 -6.64773438 17.16763672 -6.71875 15.8203125 C-6.75484375 14.65886719 -6.7909375 13.49742187 -6.828125 12.30078125 C-6.87453125 11.15222656 -6.9209375 10.00367188 -6.96875 8.8203125 C-6.41922538 4.1328675 -4.88771314 0.92570325 0 0 Z " fill="#315843" transform="translate(416.578125,401.51171875)"/>
<path d="M0 0 C0 1.98 0 3.96 0 6 C0.94875 5.95875 1.8975 5.9175 2.875 5.875 C6 6 6 6 8 8 C8.125 10.625 8.125 10.625 8 13 C7.34 13 6.68 13 6 13 C6 12.01 6 11.02 6 10 C5.34 10 4.68 10 4 10 C3.67 10.66 3.34 11.32 3 12 C2.01 12 1.02 12 0 12 C0.33 12.99 0.66 13.98 1 15 C0.01 15.33 -0.98 15.66 -2 16 C-4.6909789 13.42602018 -5.87045077 11.97161926 -6.375 8.1875 C-6.00520737 5.04426264 -3.92522289 0 0 0 Z " fill="#2B9762" transform="translate(460,377)"/>
<path d="M0 0 C0 3.3 0 6.6 0 10 C-0.66 10 -1.32 10 -2 10 C-2 10.66 -2 11.32 -2 12 C-3.65 12.33 -5.3 12.66 -7 13 C-3.535 12.505 -3.535 12.505 0 12 C0 12.66 0 13.32 0 14 C-2.84083641 15.42041821 -4.85477278 15.31452272 -8 15 C-10.375 13 -10.375 13 -12 11 C-10.66666667 8.33333333 -9.33333333 5.66666667 -8 3 C-6.35 3 -4.7 3 -3 3 C-3 2.34 -3 1.68 -3 1 C-1 0 -1 0 0 0 Z " fill="#FCFDFC" transform="translate(267,407)"/>
<path d="M0 0 C0.33 0 0.66 0 1 0 C1.33 3.63 1.66 7.26 2 11 C2.33 10.34 2.66 9.68 3 9 C3.99 9.33 4.98 9.66 6 10 C5.34 10 4.68 10 4 10 C3.7525 10.825 3.505 11.65 3.25 12.5 C1.81295189 16.52373471 -0.02354515 20.21979024 -2 24 C-2.66 23.01 -3.32 22.02 -4 21 C-5.94729537 21.84188612 -5.94729537 21.84188612 -7 23 C-8.66617115 23.04063832 -10.33388095 23.042721 -12 23 C-11.01 22.34 -10.02 21.68 -9 21 C-9.66 20.34 -10.32 19.68 -11 19 C-10.236875 18.62875 -9.47375 18.2575 -8.6875 17.875 C-5.47956885 15.6369085 -4.5022184 13.55788567 -3 10 C-2.34 10 -1.68 10 -1 10 C-0.67 6.7 -0.34 3.4 0 0 Z " fill="#EDF3EF" transform="translate(275,406)"/>
<path d="M0 0 C11.88 0 23.76 0 36 0 C36 0.99 36 1.98 36 3 C21.15 2.505 21.15 2.505 6 2 C6.33 3.65 6.66 5.3 7 7 C6.01 8.485 6.01 8.485 5 10 C3.35 6.7 1.7 3.4 0 0 Z " fill="#B7DFC8" transform="translate(216,323)"/>
<path d="M0 0 C0.66 0 1.32 0 2 0 C2.9375 2.0625 2.9375 2.0625 3 5 C1.37394246 7.03148207 -0.40140799 8.71122511 -2.3359375 10.44921875 C-4.10309738 11.9149951 -4.10309738 11.9149951 -5 14 C-7.25 14 -7.25 14 -10 13 C-11.67198768 10.47332213 -12.85805571 7.80063432 -14 5 C-13.34 4.01 -12.68 3.02 -12 2 C-10.0546875 1.70703125 -10.0546875 1.70703125 -7.875 1.8125 C-6.59625 1.874375 -5.3175 1.93625 -4 2 C-4.61277612 4.96175123 -5.25372522 6.38058783 -7 9 C-7.66 9 -8.32 9 -9 9 C-9 9.99 -9 10.98 -9 12 C-5.83884224 10.63016497 -5.0072908 10.0109362 -3 7 C-2.34 7 -1.68 7 -1 7 C-0.67 4.69 -0.34 2.38 0 0 Z " fill="#2E895A" transform="translate(320,404)"/>
<path d="M0 0 C4.95 0.33 9.9 0.66 15 1 C13.02 1.99 13.02 1.99 11 3 C11 3.33 11 3.66 11 4 C10.15151515 8.84848485 10.15151515 8.84848485 9 10 C7.00041636 10.04080783 4.99954746 10.04254356 3 10 C2.95101563 10.91523438 2.90203125 11.83046875 2.8515625 12.7734375 C2.77679688 13.96195312 2.70203125 15.15046875 2.625 16.375 C2.52058594 18.15003906 2.52058594 18.15003906 2.4140625 19.9609375 C2 23 2 23 0 25 C-0.08097324 22.72975032 -0.13917704 20.45867925 -0.1875 18.1875 C-0.22230469 16.92292969 -0.25710938 15.65835937 -0.29296875 14.35546875 C0 11 0 11 1.3125 9.0625 C3.84411337 7.46852121 6.08577285 7.80571819 9 8 C9 6.68 9 5.36 9 4 C4.545 4.495 4.545 4.495 0 5 C0 3.35 0 1.7 0 0 Z " fill="#396D51" transform="translate(415,398)"/>
<path d="M0 0 C0.66 0 1.32 0 2 0 C2.08165496 2.20770805 2.13948488 4.41630425 2.1875 6.625 C2.22230469 7.85476563 2.25710938 9.08453125 2.29296875 10.3515625 C1.9787947 14.26407664 0.96906533 16.64070218 -1 20 C-3.97 20 -6.94 20 -10 20 C-9.67 18.68 -9.34 17.36 -9 16 C-6.69 15.34 -4.38 14.68 -2 14 C-1.93941406 13.07316406 -1.87882812 12.14632813 -1.81640625 11.19140625 C-1.73261719 9.99386719 -1.64882813 8.79632813 -1.5625 7.5625 C-1.48128906 6.36753906 -1.40007812 5.17257812 -1.31640625 3.94140625 C-1 1 -1 1 0 0 Z " fill="#0C361F" transform="translate(413,406)"/>
<path d="M0 0 C1.875 1.125 1.875 1.125 3 3 C3.6090947 6.51921384 3.65635165 8.87326301 1.828125 12.01171875 C-1.97498372 16.84401926 -1.97498372 16.84401926 -5.875 17.4375 C-6.57625 17.293125 -7.2775 17.14875 -8 17 C-8 16.01 -8 15.02 -8 14 C-6.02 13.34 -4.04 12.68 -2 12 C-1.67 9.69 -1.34 7.38 -1 5 C-3.31 4.34 -5.62 3.68 -8 3 C-8 2.01 -8 1.02 -8 0 C-5.06317146 -1.46841427 -3.13175678 -0.76696084 0 0 Z " fill="#44B47E" transform="translate(468,380)"/>
<path d="M0 0 C0 0.99 0 1.98 0 3 C1.9375006 5.18777466 1.9375006 5.18777466 4 7 C3.01 7.33 2.02 7.66 1 8 C1 7.34 1 6.68 1 6 C-3.24342802 3.38865968 -7.02287617 3.60457523 -11.8125 4.5625 C-15.39144959 5.05372838 -18.39888793 4.69585123 -21.94921875 4.15625 C-24.20032638 3.85156121 -24.20032638 3.85156121 -27 5 C-27 4.34 -27 3.68 -27 3 C-17.87341221 0.59826637 -9.43642082 -0.13945449 0 0 Z " fill="#2D9761" transform="translate(503,399)"/>
<path d="M0 0 C9.1796875 1.26953125 9.1796875 1.26953125 12 2 C14 5 14 5 13.5 7.625 C13.005 8.40875 12.51 9.1925 12 10 C10.02 10.33 8.04 10.66 6 11 C4.02 7.37 2.04 3.74 0 0 Z " fill="#328D5E" transform="translate(312,419)"/>
<path d="M0 0 C0.99 1.32 1.98 2.64 3 4 C-4.88191882 17.68265683 -4.88191882 17.68265683 -8 22 C-8.33 22 -8.66 22 -9 22 C-9.49940808 15.88225104 -8.24900602 12.97504047 -5 8 C-4.34 8 -3.68 8 -3 8 C-3 7.34 -3 6.68 -3 6 C-2.01 6 -1.02 6 0 6 C-0.185625 5.38125 -0.37125 4.7625 -0.5625 4.125 C-1 2 -1 2 0 0 Z " fill="#2F845A" transform="translate(258,395)"/>
<path d="M0 0 C4.64464512 -0.45313611 7.64533163 0.30087089 11.51953125 2.73828125 C13.98728591 4.84140725 14.44690618 6.86580167 15 10 C15.19047978 13.74610227 15.18684691 16.43945927 14 20 C13.01 20.33 12.02 20.66 11 21 C11.165 20.484375 11.33 19.96875 11.5 19.4375 C12.44035317 14.85327828 12.70099067 11.34356545 10.5 7.125 C7.00212596 4.15180707 4.53639798 4.2268199 0 4 C0 2.68 0 1.36 0 0 Z " fill="#44B47D" transform="translate(460,373)"/>
<path d="M0 0 C10.89 0 21.78 0 33 0 C33 0.66 33 1.32 33 2 C29.42525275 3.13916302 26.21460618 3.03150662 22.484375 2.87890625 C21.23398437 2.83056641 19.98359375 2.78222656 18.6953125 2.73242188 C17.39335937 2.67634766 16.09140625 2.62027344 14.75 2.5625 C12.77386719 2.48418945 12.77386719 2.48418945 10.7578125 2.40429688 C7.50496572 2.27465443 4.25242833 2.13968844 1 2 C0.67 3.32 0.34 4.64 0 6 C-0.66 6 -1.32 6 -2 6 C-1.34 4.02 -0.68 2.04 0 0 Z " fill="#BAE5CE" transform="translate(312,323)"/>
<path d="M0 0 C-2 2 -2 2 -5.0390625 2.1953125 C-6.22242188 2.17210937 -7.40578125 2.14890625 -8.625 2.125 C-9.81351562 2.10695313 -11.00203125 2.08890625 -12.2265625 2.0703125 C-13.14179688 2.04710937 -14.05703125 2.02390625 -15 2 C-14.67 5.96 -14.34 9.92 -14 14 C-12.02 14 -10.04 14 -8 14 C-8 14.66 -8 15.32 -8 16 C-10.8125 16.25 -10.8125 16.25 -14 16 C-16.40978578 13.67946555 -16.96733394 12.33624266 -17.29296875 8.984375 C-17.25816406 7.91703125 -17.22335937 6.8496875 -17.1875 5.75 C-17.14689453 4.13351562 -17.14689453 4.13351562 -17.10546875 2.484375 C-17.07066406 1.66453125 -17.03585937 0.8446875 -17 0 C-14.54203147 -0.19436491 -12.08390706 -0.3807742 -9.625 -0.5625 C-8.92632812 -0.61857422 -8.22765625 -0.67464844 -7.5078125 -0.73242188 C-2.2265625 -1.11328125 -2.2265625 -1.11328125 0 0 Z " fill="#397755" transform="translate(452,406)"/>
<path d="M0 0 C0.66 0 1.32 0 2 0 C2 7.59 2 15.18 2 23 C1.01 23 0.02 23 -1 23 C-1.02887512 19.35418313 -1.04675585 15.70839537 -1.0625 12.0625 C-1.07087891 11.02158203 -1.07925781 9.98066406 -1.08789062 8.90820312 C-1.09272461 7.42416992 -1.09272461 7.42416992 -1.09765625 5.91015625 C-1.10289307 4.99371338 -1.10812988 4.07727051 -1.11352539 3.13305664 C-1 1 -1 1 0 0 Z " fill="#187344" transform="translate(461,403)"/>
<path d="M0 0 C0.66 0 1.32 0 2 0 C3.03290841 1.93108963 4.05098672 3.870118 5.0625 5.8125 C5.63097656 6.89144531 6.19945312 7.97039062 6.78515625 9.08203125 C8 12 8 12 7 15 C4.46440887 13.73220443 2.89943078 12.08937386 1 10 C1 9.34 1 8.68 1 8 C0.34 7.67 -0.32 7.34 -1 7 C-1.33 7.99 -1.66 8.98 -2 10 C-2.66 10 -3.32 10 -4 10 C-2.8905928 6.51329166 -1.73662334 3.22515763 0 0 Z " fill="#368660" transform="translate(279,416)"/>
<path d="M0 0 C0.66 0.33 1.32 0.66 2 1 C2 7.27 2 13.54 2 20 C1.01 19.67 0.02 19.34 -1 19 C-1.33 13.06 -1.66 7.12 -2 1 C-1.34 0.67 -0.68 0.34 0 0 Z " fill="#11733E" transform="translate(393,407)"/>
<path d="M0 0 C2.92906579 -0.2978711 5.14352551 -0.50159903 8 0 C11.59937354 3.0744649 12.87716833 4.83309913 13.375 9.5625 C13.06144585 12.43674638 12.68081263 15.19164792 12 18 C10.68 18.33 9.36 18.66 8 19 C8 16 8 16 10 13 C10.5 9.5 10.5 9.5 10 6 C8.48105194 3.90235835 8.48105194 3.90235835 6 3 C2.83267579 2.74913276 2.83267579 2.74913276 0 3 C0 2.01 0 1.02 0 0 Z " fill="#2A9963" transform="translate(460,377)"/>
<path d="M0 0 C1.32 0.33 2.64 0.66 4 1 C4.703125 2.734375 4.703125 2.734375 5 5 C3.671875 7.140625 3.671875 7.140625 1.75 9.25 C1.12609375 9.95640625 0.5021875 10.6628125 -0.140625 11.390625 C-2 13 -2 13 -5 13 C-5 12.01 -5 11.02 -5 10 C-4.34 10 -3.68 10 -3 10 C-1.79371992 7.66785852 -0.8345262 5.50357861 0 3 C-1.32 2.67 -2.64 2.34 -4 2 C-2.68 2 -1.36 2 0 2 C0 1.34 0 0.68 0 0 Z " fill="#157743" transform="translate(316,403)"/>
<path d="M0 0 C0.33 0 0.66 0 1 0 C1.33 1.98 1.66 3.96 2 6 C2.33 4.35 2.66 2.7 3 1 C3.33 1 3.66 1 4 1 C4.33910994 3.04071515 4.67102704 5.08262621 5 7.125 C5.185625 8.26195312 5.37125 9.39890625 5.5625 10.5703125 C5.96956049 13.76137602 6.07809902 16.78817791 6 20 C2.38850043 15.89036255 -1.06120593 11.48873774 -0.9609375 5.7734375 C-0.72147786 3.83723523 -0.36967892 1.91560895 0 0 Z " fill="#E7F4EC" transform="translate(282,410)"/>
<path d="M0 0 C0.33 0 0.66 0 1 0 C1.25223681 5.5492098 1.25223681 5.5492098 0.01806641 7.75488281 C-1.41595095 10.91728656 -1.32892665 13.70968389 -1.4140625 17.171875 C-1.43342865 17.8542926 -1.4527948 18.53671021 -1.4727478 19.23980713 C-1.53231098 21.40974608 -1.57883446 23.57973877 -1.625 25.75 C-1.66320131 27.22528297 -1.7022543 28.70054415 -1.7421875 30.17578125 C-1.83799235 33.78365418 -1.92210916 37.39169083 -2 41 C-2.33 41 -2.66 41 -3 41 C-3.07443657 36.12535909 -3.12873667 31.25105272 -3.16479492 26.37597656 C-3.17983465 24.71934237 -3.20027177 23.06274769 -3.22631836 21.40625 C-3.26291515 19.0181297 -3.27977439 16.63053812 -3.29296875 14.2421875 C-3.30845261 13.50757294 -3.32393646 12.77295837 -3.33988953 12.01608276 C-3.34142964 7.25646232 -2.43282457 4.07996185 0 0 Z " fill="#1E6F4B" transform="translate(162,286)"/>
<path d="M0 0 C0.33 0.99 0.66 1.98 1 3 C0.34 3.66 -0.32 4.32 -1 5 C-1.40047444 7.32275177 -1.7397104 9.65739357 -2 12 C-0.68 12.66 0.64 13.32 2 14 C1.67 14.66 1.34 15.32 1 16 C-0.875 15.75 -0.875 15.75 -3 15 C-5.34451939 11.83489882 -5.54809295 8.83665065 -5 5 C-2.5 2.125 -2.5 2.125 0 0 Z " fill="#187946" transform="translate(459,377)"/>
<path d="M0 0 C0.99 0.33 1.98 0.66 3 1 C3 6.28 3 11.56 3 17 C2.01 17 1.02 17 0 17 C0 11.39 0 5.78 0 0 Z " fill="#10703B" transform="translate(350,410)"/>
<path d="M0 0 C0.99 0 1.98 0 3 0 C3 1.98 3 3.96 3 6 C7.95 6 12.9 6 18 6 C18 6.33 18 6.66 18 7 C16.55367188 7.05607422 16.55367188 7.05607422 15.078125 7.11328125 C13.81484375 7.17902344 12.5515625 7.24476563 11.25 7.3125 C9.99703125 7.37050781 8.7440625 7.42851562 7.453125 7.48828125 C3.64111344 7.77307419 3.64111344 7.77307419 0 11 C0 7.37 0 3.74 0 0 Z " fill="#1B663D" transform="translate(432,396)"/>
<path d="M0 0 C0.66 1.32 1.32 2.64 2 4 C-9.55 4 -21.1 4 -33 4 C-33.33 3.01 -33.66 2.02 -34 1 C-33.01 1.33 -32.02 1.66 -31 2 C-28.7161483 2.08378628 -26.429899 2.10729915 -24.14453125 2.09765625 C-23.48289474 2.0962413 -22.82125824 2.09482635 -22.13957214 2.09336853 C-20.03050172 2.08777996 -17.92153823 2.07522965 -15.8125 2.0625 C-14.38086091 2.05748352 -12.94922015 2.05292087 -11.51757812 2.04882812 C-8.01168412 2.0378143 -4.5058525 2.02055755 -1 2 C-0.67 1.34 -0.34 0.68 0 0 Z " fill="#E1FBF0" transform="translate(344,472)"/>
<path d="M0 0 C0.33 0 0.66 0 1 0 C1.02888514 3.14581423 1.04675923 6.29159469 1.0625 9.4375 C1.07087891 10.33533203 1.07925781 11.23316406 1.08789062 12.15820312 C1.09111328 13.01220703 1.09433594 13.86621094 1.09765625 14.74609375 C1.10289307 15.53685303 1.10812988 16.3276123 1.11352539 17.14233398 C1 19 1 19 0 20 C-1.65 20 -3.3 20 -5 20 C-5 14.72 -5 9.44 -5 4 C-4.67 4 -4.34 4 -4 4 C-4 8.62 -4 13.24 -4 18 C-3.01 17.67 -2.02 17.34 -1 17 C-0.67 11.39 -0.34 5.78 0 0 Z " fill="#379863" transform="translate(382,408)"/>
<path d="M0 0 C0.66 0 1.32 0 2 0 C2.9375 2.0625 2.9375 2.0625 3 5 C1.37394246 7.03148207 -0.40140799 8.71122511 -2.3359375 10.44921875 C-4.10309738 11.9149951 -4.10309738 11.9149951 -5 14 C-7.375 13.75 -7.375 13.75 -10 13 C-11.3125 10.9375 -11.3125 10.9375 -12 9 C-11.01 8.67 -10.02 8.34 -9 8 C-9 9.32 -9 10.64 -9 12 C-5.83884224 10.63016497 -5.0072908 10.0109362 -3 7 C-2.34 7 -1.68 7 -1 7 C-0.67 4.69 -0.34 2.38 0 0 Z " fill="#399364" transform="translate(320,404)"/>
<path d="M0 0 C6.0546875 -0.1953125 6.0546875 -0.1953125 8 0 C8.66 0.66 9.32 1.32 10 2 C9.67 2.99 9.34 3.98 9 5 C9.66 5 10.32 5 11 5 C10.67 5.99 10.34 6.98 10 8 C6.8301373 7.29558607 3.86537728 6.54885258 1 5 C0.1875 2.375 0.1875 2.375 0 0 Z " fill="#1C7F49" transform="translate(383,400)"/>
<path d="M0 0 C0.33 0 0.66 0 1 0 C1 5.28 1 10.56 1 16 C-0.32 16.33 -1.64 16.66 -3 17 C-3 12.05 -3 7.1 -3 2 C-2.34 1.67 -1.68 1.34 -1 1 C-1 3.97 -1 6.94 -1 10 C-0.67 6.7 -0.34 3.4 0 0 Z " fill="#1F7E49" transform="translate(381,409)"/>
<path d="M0 0 C1.98 0 3.96 0 6 0 C6 2.64 6 5.28 6 8 C5.38125 7.79375 4.7625 7.5875 4.125 7.375 C3.42375 7.25125 2.7225 7.1275 2 7 C1.34 7.66 0.68 8.32 0 9 C-1.125 3.375 -1.125 3.375 0 0 Z " fill="#248751" transform="translate(542,419)"/>
<path d="M0 0 C2.64 0 5.28 0 8 0 C8 1.32 8 2.64 8 4 C4.92382812 4.29296875 4.92382812 4.29296875 1.84765625 4.5859375 C1.23792969 4.72257812 0.62820313 4.85921875 0 5 C-0.33 5.66 -0.66 6.32 -1 7 C-1.33 5.35 -1.66 3.7 -2 2 C-1.34 2 -0.68 2 0 2 C0 1.34 0 0.68 0 0 Z " fill="#1C5133" transform="translate(416,402)"/>
<path d="M0 0 C0.33 1.32 0.66 2.64 1 4 C0.34 4 -0.32 4 -1 4 C-1 4.66 -1 5.32 -1 6 C1.31 5.34 3.62 4.68 6 4 C6 4.99 6 5.98 6 7 C4.081875 7.12375 4.081875 7.12375 2.125 7.25 C-0.05333418 7.45869931 -0.05333418 7.45869931 -2 8 C-3.5899433 9.92064793 -3.5899433 9.92064793 -4 12 C-4.66 11.67 -5.32 11.34 -6 11 C-4.18690997 7.22272911 -2.0926741 3.62730178 0 0 Z " fill="#DEEEE5" transform="translate(258,403)"/>
<path d="M0 0 C0.99 0.33 1.98 0.66 3 1 C3.625 3.375 3.625 3.375 4 6 C2 8 2 8 -0.625 8.125 C-1.40875 8.08375 -2.1925 8.0425 -3 8 C-3 6.35 -3 4.7 -3 3 C-2.01 3 -1.02 3 0 3 C0 2.01 0 1.02 0 0 Z " fill="#36A670" transform="translate(463,386)"/>
<path d="M0 0 C0.99 0.33 1.98 0.66 3 1 C0.03 6.61 -2.94 12.22 -6 18 C-6.33 18 -6.66 18 -7 18 C-7 16.02 -7 14.04 -7 12 C-6.34 11.67 -5.68 11.34 -5 11 C-3.94647157 8.69034152 -2.94280904 6.3570226 -2 4 C-1.34 4 -0.68 4 0 4 C0 2.68 0 1.36 0 0 Z " fill="#2E7F55" transform="translate(305,332)"/>
<path d="M0 0 C0.33 0 0.66 0 1 0 C1 5.61 1 11.22 1 17 C0.01 17 -0.98 17 -2 17 C-1.85978195 14.35375716 -1.71310224 11.70815422 -1.5625 9.0625 C-1.52318359 8.30775391 -1.48386719 7.55300781 -1.44335938 6.77539062 C-1.11328125 1.11328125 -1.11328125 1.11328125 0 0 Z " fill="#13763F" transform="translate(504,410)"/>
<path d="M0 0 C1 3 1 3 0.14453125 4.98046875 C-0.29503906 5.70878906 -0.73460937 6.43710937 -1.1875 7.1875 C-3.64991113 11.38322846 -5.85629792 15.63319947 -8 20 C-8.66 20 -9.32 20 -10 20 C-8.56347895 15.08558588 -6.45840385 10.99761642 -3.875 6.625 C-3.50246094 5.98433594 -3.12992187 5.34367187 -2.74609375 4.68359375 C-1.83565998 3.11951523 -0.91851809 1.55934466 0 0 Z " fill="#D4F3E0" transform="translate(299,348)"/>
<path d="M0 0 C2.32472205 2.85306797 3.7508258 5.54074837 5 9 C3.68 9 2.36 9 1 9 C1 8.34 1 7.68 1 7 C-0.65 6.67 -2.3 6.34 -4 6 C-4 5.34 -4 4.68 -4 4 C-3.01 4 -2.02 4 -1 4 C-0.67 2.68 -0.34 1.36 0 0 Z " fill="#E2F1E8" transform="translate(313,421)"/>
<path d="M0 0 C0.99 1.32 1.98 2.64 3 4 C1.40629329 5.36646148 -0.20032982 6.71787166 -1.8125 8.0625 C-2.70582031 8.81660156 -3.59914063 9.57070313 -4.51953125 10.34765625 C-5.33808594 10.89292969 -6.15664063 11.43820312 -7 12 C-7.99 11.67 -8.98 11.34 -10 11 C-8.63875 10.2265625 -8.63875 10.2265625 -7.25 9.4375 C-3.48237384 6.96443733 -1.9915852 3.98317039 0 0 Z " fill="#07361A" transform="translate(398,509)"/>
<path d="M0 0 C1.95825873 -0.02694851 3.91662226 -0.04637218 5.875 -0.0625 C6.96554687 -0.07410156 8.05609375 -0.08570313 9.1796875 -0.09765625 C12 0 12 0 14 1 C14 1.66 14 2.32 14 3 C13.32453125 2.91621094 12.6490625 2.83242188 11.953125 2.74609375 C11.06109375 2.64425781 10.1690625 2.54242188 9.25 2.4375 C8.36828125 2.33308594 7.4865625 2.22867187 6.578125 2.12109375 C4.06725449 2.00315892 2.32230542 2.04283358 0 3 C-0.33 3.99 -0.66 4.98 -1 6 C-1.66 5.01 -2.32 4.02 -3 3 C-2.01 2.67 -1.02 2.34 0 2 C0 1.34 0 0.68 0 0 Z " fill="#2E8F5F" transform="translate(306,401)"/>
<path d="M0 0 C1.4606285 2.64738916 2 3.89448334 2 7 C2.66 7 3.32 7 4 7 C4 7.66 4 8.32 4 9 C2.35 9.33 0.7 9.66 -1 10 C-2.1875 7.8125 -2.1875 7.8125 -3 5 C-1.625 2.1875 -1.625 2.1875 0 0 Z " fill="#E7EFE6" transform="translate(251,414)"/>
<path d="M0 0 C0.625 2.375 0.625 2.375 1 5 C0.34 5.66 -0.32 6.32 -1 7 C-1 5.02 -1 3.04 -1 1 C-3.7839183 2.39195915 -3.97898997 4.15575779 -5 7 C-5.66 7 -6.32 7 -7 7 C-6.74438677 4.6568787 -6.40729228 2.32156597 -6 0 C-3.50907189 -1.24546405 -2.58919267 -0.7767578 0 0 Z " fill="#3C7A58" transform="translate(451,413)"/>
<path d="M0 0 C-3.20127338 2.13418226 -4.63219892 2.37474539 -8.375 2.6875 C-9.31085938 2.77386719 -10.24671875 2.86023438 -11.2109375 2.94921875 C-13.97578769 2.99955916 -16.32004815 2.64806108 -19 2 C-19 1.67 -19 1.34 -19 1 C-12.65758005 -0.15316726 -6.43311296 -0.09507063 0 0 Z " fill="#1A8B52" transform="translate(503,399)"/>
<path d="M0 0 C-0.66 0.66 -1.32 1.32 -2 2 C-1.34 2.33 -0.68 2.66 0 3 C0.33 2.34 0.66 1.68 1 1 C1 1.99 1 2.98 1 4 C-1.97 4 -4.94 4 -8 4 C-7.67 2.68 -7.34 1.36 -7 0 C-2.25 -1.125 -2.25 -1.125 0 0 Z " fill="#163C27" transform="translate(411,422)"/>
<path d="M0 0 C1.65 0 3.3 0 5 0 C5.33 1.32 5.66 2.64 6 4 C3.36 4.66 0.72 5.32 -2 6 C-2 5.34 -2 4.68 -2 4 C-1.34 4 -0.68 4 0 4 C0 2.68 0 1.36 0 0 Z " fill="#F6FAF5" transform="translate(259,403)"/>
<path d="M0 0 C0.33 1.32 0.66 2.64 1 4 C0.01 4.495 0.01 4.495 -1 5 C-1.35412344 6.32796291 -1.68521554 7.66216607 -2 9 C-2.99 10.485 -2.99 10.485 -4 12 C-4.66 12 -5.32 12 -6 12 C-6 12.66 -6 13.32 -6 14 C-6.66 13.67 -7.32 13.34 -8 13 C-5.36 8.71 -2.72 4.42 0 0 Z " fill="#2B7E54" transform="translate(311,380)"/>
<path d="M0 0 C0.99 0.99 1.98 1.98 3 3 C2.5359375 4.4540625 2.5359375 4.4540625 2.0625 5.9375 C0.82032903 10.23664491 0.38315147 14.55342634 0 19 C-0.33 19 -0.66 19 -1 19 C-1.10655578 12.55929529 -0.96205088 6.37358711 0 0 Z " fill="#E4F0E9" transform="translate(300,400)"/>
<path d="M0 0 C1.66611905 -0.042721 3.33382885 -0.04063832 5 0 C6 1 6 1 6.0625 3.5625 C6.041875 4.366875 6.02125 5.17125 6 6 C5.01 6.495 5.01 6.495 4 7 C4 5.35 4 3.7 4 2 C3.01 2 2.02 2 1 2 C1 3.32 1 4.64 1 6 C0.34 6 -0.32 6 -1 6 C-0.67 4.02 -0.34 2.04 0 0 Z " fill="#398F61" transform="translate(431,394)"/>
<path d="M0 0 C4.95 0.33 9.9 0.66 15 1 C11.31954508 2.84022746 10.21254016 3.2580902 6.375 3.1875 C5.21097656 3.17783203 5.21097656 3.17783203 4.0234375 3.16796875 C2 3 2 3 0 2 C0 1.34 0 0.68 0 0 Z " fill="#266F49" transform="translate(415,398)"/>
<path d="M0 0 C0.66 1.32 1.32 2.64 2 4 C0.35 5.98 -1.3 7.96 -3 10 C-3.66 9.67 -4.32 9.34 -5 9 C-3.35 6.03 -1.7 3.06 0 0 Z " fill="#DFF6E7" transform="translate(305,337)"/>
<path d="M0 0 C5.875 0.875 5.875 0.875 7 2 C7.25 4.9375 7.25 4.9375 7 8 C6.01 8.66 5.02 9.32 4 10 C4 7.66666667 4 5.33333333 4 3 C2.07977297 1.22590192 2.07977297 1.22590192 0 0 Z " fill="#2A9059" transform="translate(530,402)"/>
<path d="M0 0 C0.33 0 0.66 0 1 0 C1.36923077 6.52307692 1.36923077 6.52307692 -0.5 8.9375 C-0.995 9.288125 -1.49 9.63875 -2 10 C-2.99 9.67 -3.98 9.34 -5 9 C-3.35 6.03 -1.7 3.06 0 0 Z " fill="#308359" transform="translate(274,426)"/>
<path d="M0 0 C0.66 0.33 1.32 0.66 2 1 C2 3.97 2 6.94 2 10 C-0.25245881 7.31158141 -1.88213958 5.35358125 -3 2 C-2.01 1.34 -1.02 0.68 0 0 Z " fill="#238252" transform="translate(325,433)"/>
<path d="M0 0 C2.40072955 2.88087546 4.47291037 5.56404834 6 9 C3.13275314 8.42655063 2.1385485 8.1385485 0 6 C-0.125 2.875 -0.125 2.875 0 0 Z " fill="#DEECDF" transform="translate(307,412)"/>
<path d="M0 0 C0.33 0 0.66 0 1 0 C1 2.31 1 4.62 1 7 C1.99 6.67 2.98 6.34 4 6 C4 7.98 4 9.96 4 12 C3.01 12.495 3.01 12.495 2 13 C-0.24828052 8.50343896 -0.16682272 4.92127034 0 0 Z " fill="#296043" transform="translate(280,591)"/>
<path d="M0 0 C1.65 0 3.3 0 5 0 C5.625 2.3125 5.625 2.3125 6 5 C5.01 6.485 5.01 6.485 4 8 C2.68 5.36 1.36 2.72 0 0 Z " fill="#E5F8ED" transform="translate(217,325)"/>
<path d="M0 0 C0.88336837 2.4667645 1.1312406 3.63859372 0.22265625 6.140625 C-0.16019531 6.83671875 -0.54304688 7.5328125 -0.9375 8.25 C-1.31777344 8.95640625 -1.69804687 9.6628125 -2.08984375 10.390625 C-2.39019531 10.92171875 -2.69054687 11.4528125 -3 12 C-3.66 12 -4.32 12 -5 12 C-3.68938409 7.76570244 -2.05643741 3.92592596 0 0 Z " fill="#E0FCEB" transform="translate(288,368)"/>
<path d="M0 0 C2.95749791 3.46741134 5.07848152 6.86873527 7 11 C6.01 11.495 6.01 11.495 5 12 C5 11.01 5 10.02 5 9 C4.34 9 3.68 9 3 9 C0.56839395 5.63316085 0 4.26649636 0 0 Z " fill="#37825B" transform="translate(237,360)"/>
<path d="M0 0 C0.33 0 0.66 0 1 0 C1.17942163 3.94727588 1.09350689 6.5980513 -1 10 C-1.66 10 -2.32 10 -3 10 C-2.49287967 6.28111761 -1.88391785 3.26545761 0 0 Z " fill="#2D845B" transform="translate(162,286)"/>
<path d="M0 0 C1.32 0 2.64 0 4 0 C4 1.98 4 3.96 4 6 C2.0625 5.1875 2.0625 5.1875 0 4 C-0.33 3.01 -0.66 2.02 -1 1 C-0.67 0.67 -0.34 0.34 0 0 Z " fill="#2A8556" transform="translate(164,512)"/>
<path d="M0 0 C2.64 0 5.28 0 8 0 C8.33 0.99 8.66 1.98 9 3 C3.46153846 3.36923077 3.46153846 3.36923077 1.125 1.5 C0.75375 1.005 0.3825 0.51 0 0 Z " fill="#147A45" transform="translate(315,423)"/>
<path d="M0 0 C0.33 0 0.66 0 1 0 C1.66 3.96 2.32 7.92 3 12 C2.01 12.495 2.01 12.495 1 13 C-1.48887372 8.31506124 -0.85687773 5.0555786 0 0 Z " fill="#DFEDE8" transform="translate(282,410)"/>
<path d="M0 0 C1.98 0.99 1.98 0.99 4 2 C4 6.62 4 11.24 4 16 C3.67 16 3.34 16 3 16 C2.95101563 15.18015625 2.90203125 14.3603125 2.8515625 13.515625 C2.77679688 12.43796875 2.70203125 11.3603125 2.625 10.25 C2.55539062 9.18265625 2.48578125 8.1153125 2.4140625 7.015625 C2.0271777 4.19793568 1.44313834 2.4169634 0 0 Z " fill="#399463" transform="translate(484,407)"/>
<path d="M0 0 C0.66 0.33 1.32 0.66 2 1 C0.6875 4.4375 0.6875 4.4375 -1 8 C-1.99 8.33 -2.98 8.66 -4 9 C-4.25 6.1875 -4.25 6.1875 -4 3 C-2 1.125 -2 1.125 0 0 Z " fill="#1E8047" transform="translate(525,408)"/>
<path d="M0 0 C1 4 1 4 0.00390625 5.921875 C-0.47175781 6.52515625 -0.94742187 7.1284375 -1.4375 7.75 C-1.91058594 8.36359375 -2.38367188 8.9771875 -2.87109375 9.609375 C-3.24363281 10.06828125 -3.61617188 10.5271875 -4 11 C-4.66 10.67 -5.32 10.34 -6 10 C-4.02 6.7 -2.04 3.4 0 0 Z " fill="#357F58" transform="translate(321,363)"/>
<path d="M0 0 C1.32 0.66 2.64 1.32 4 2 C0.48812804 4.40814077 -1.72656908 5.36629408 -6 5 C-5.195625 4.360625 -4.39125 3.72125 -3.5625 3.0625 C-1.7249496 1.59396498 -1.7249496 1.59396498 0 0 Z " fill="#3BA073" transform="translate(292,187)"/>
<path d="M0 0 C2.97 0.495 2.97 0.495 6 1 C5.443125 1.4125 4.88625 1.825 4.3125 2.25 C1.83804044 4.12256399 -0.5835229 6.05339344 -3 8 C-2.67 6.35 -2.34 4.7 -2 3 C-1.34 3 -0.68 3 0 3 C0 2.01 0 1.02 0 0 Z " fill="#248E58" transform="translate(521,399)"/>
<path d="M0 0 C0.66 0.66 1.32 1.32 2 2 C1.01595171 4.95214486 0.01178391 6.66633067 -2 9 C-2.66 9 -3.32 9 -4 9 C-2.80100302 5.9168649 -1.52299523 2.93720508 0 0 Z " fill="#2F7C5A" transform="translate(338,335)"/>
<path d="M0 0 C-2.97 1.65 -5.94 3.3 -9 5 C-8.67 3.35 -8.34 1.7 -8 0 C-2.25 -1.125 -2.25 -1.125 0 0 Z " fill="#DAF8EE" transform="translate(296,186)"/>
<path d="M0 0 C2.32472205 2.85306797 3.7508258 5.54074837 5 9 C2.525 8.01 2.525 8.01 0 7 C0 4.66666667 0 2.33333333 0 0 Z " fill="#2D825A" transform="translate(300,455)"/>
<path d="M0 0 C1.98 0 3.96 0 6 0 C6.33 1.32 6.66 2.64 7 4 C6.34 4 5.68 4 5 4 C5 3.34 5 2.68 5 2 C3.68 2 2.36 2 1 2 C0.67 2.66 0.34 3.32 0 4 C0 2.68 0 1.36 0 0 Z " fill="#2B8D58" transform="translate(383,406)"/>
<path d="M0 0 C0.33 0 0.66 0 1 0 C1.33 4.29 1.66 8.58 2 13 C1.01 13 0.02 13 -1 13 C-0.67 8.71 -0.34 4.42 0 0 Z " fill="#187A46" transform="translate(351,414)"/>
<path d="M0 0 C2.0625 0.4375 2.0625 0.4375 4 1 C2.625 3.5 2.625 3.5 1 6 C0.34 6 -0.32 6 -1 6 C-1.042721 4.33388095 -1.04063832 2.66617115 -1 1 C-0.67 0.67 -0.34 0.34 0 0 Z " fill="#E6F8EB" transform="translate(300,392)"/>
<path d="M0 0 C0.66 0.66 1.32 1.32 2 2 C1.75 5.0625 1.75 5.0625 1 8 C0.01 8.495 0.01 8.495 -1 9 C-1.125 2.25 -1.125 2.25 0 0 Z " fill="#3A9163" transform="translate(250,408)"/>
<path d="M0 0 C2.88437779 1.29299694 4.87219421 2.65941363 7 5 C6.01 5.33 5.02 5.66 4 6 C4 5.34 4 4.68 4 4 C2.68 3.34 1.36 2.68 0 2 C0 1.34 0 0.68 0 0 Z " fill="#27925B" transform="translate(500,401)"/>
</svg>
